{
.formatVersion = 3;
DisplayStrings = (
"/uni1362.vs17"
);
familyName = "ዋልድባ - ዘላን";
customParameters = (
{
name = glyphOrder;
value = (
space,
exclam,
quotedbl,
numbersign,
dollar,
percent,
ampersand,
quotesingle,
parenleft,
parenright,
asterisk,
plus,
comma,
hyphen,
period,
slash,
zero,
one,
two,
three,
four,
five,
six,
seven,
eight,
nine,
colon,
semicolon,
less,
equal,
greater,
question,
at,
A,
B,
C,
D,
E,
F,
G,
H,
I,
J,
K,
L,
M,
N,
O,
P,
Q,
R,
S,
T,
U,
V,
W,
X,
Y,
Z,
bracketleft,
backslash,
bracketright,
asciicircum,
underscore,
grave,
a,
b,
c,
d,
e,
f,
g,
h,
i,
j,
k,
l,
m,
n,
o,
p,
q,
r,
s,
t,
u,
v,
w,
x,
y,
z,
braceleft,
bar,
braceright,
asciitilde,
exclamdown,
cent,
sterling,
currency,
yen,
brokenbar,
section,
dieresis,
copyright,
ordfeminine,
guillemotleft,
logicalnot,
uni00AD,
registered,
overscore,
degree,
plusminus,
twosuperior,
threesuperior,
acute,
mu,
paragraph,
middot,
cedilla,
onesuperior,
ordmasculine,
guillemotright,
onequarter,
onehalf,
threequarters,
questiondown,
Agrave,
Aacute,
Acircumflex,
Atilde,
Adieresis,
Aring,
AE,
Ccedilla,
Egrave,
Eacute,
Ecircumflex,
Edieresis,
Igrave,
Iacute,
Icircumflex,
Idieresis,
Eth,
Ntilde,
Ograve,
Oacute,
Ocircumflex,
Otilde,
Odieresis,
multiply,
Oslash,
Ugrave,
Uacute,
Ucircumflex,
Udieresis,
Yacute,
Thorn,
germandbls,
agrave,
aacute,
acircumflex,
atilde,
adieresis,
aring,
ae,
ccedilla,
egrave,
eacute,
ecircumflex,
edieresis,
igrave,
iacute,
icircumflex,
idieresis,
eth,
ntilde,
ograve,
oacute,
ocircumflex,
otilde,
odieresis,
divide,
oslash,
ugrave,
uacute,
ucircumflex,
udieresis,
yacute,
thorn,
ydieresis,
OE,
oe,
Scaron,
scaron,
Ydieresis,
Zcaron,
zcaron,
florin,
circumflex,
tilde,
uni1200,
uni1201,
uni1202,
uni1203,
uni1204,
uni1205,
uni1206,
uni1208,
uni1209,
uni120A,
uni120B,
uni120C,
uni120D,
uni120E,
uni120F,
uni1210,
uni1211,
uni1212,
uni1213,
uni1214,
uni1215,
uni1216,
uni1217,
uni1218,
uni1219,
uni121A,
uni121B,
uni121C,
uni121D,
uni121E,
uni121F,
uni1220,
uni1221,
uni1222,
uni1223,
uni1224,
uni1225,

glyphs = (
{
glyphname = exclam;
layers = (
{
layerId = "099ACB0D-E961-4620-9891-F06BAF5780F3";
shapes = (
{
closed = 1;
nodes = (
(637,444,l),
(596,1314,l),
(787,1314,l),
(744,444,l)
);
},
{
closed = 1;
nodes = (
(760,244,o),
(850,161,o),
(850,101,q),
(850,42,o),
(758,-39,o),
(690,-39,q),
(624,-39,o),
(532,44,o),
(532,103,q),
(532,163,o),
(624,244,o),
(690,244,q)
);
}
);
width = 1381;
}
);
unicode = 33;
},
{
glyphname = quotedbl;
layers = (
{
layerId = "099ACB0D-E961-4620-9891-F06BAF5780F3";
shapes = (
{
closed = 1;
nodes = (
(558,650,l),
(387,650,l),
(362,1296,l),
(580,1296,l)
);
},
{
closed = 1;
nodes = (
(995,650,l),
(824,650,l),
(801,1296,l),
(1019,1296,l)
);
}
);
width = 1381;
}
);
unicode = 34;
},
{
glyphname = numbersign;
layers = (
{
layerId = "099ACB0D-E961-4620-9891-F06BAF5780F3";
shapes = (
{
closed = 1;
nodes = (
(543,1045,l),
(877,1045,l),
(905,1517,l),
(1013,1517,l),
(986,1045,l),
(1202,1045,l),
(1202,896,l),
(978,896,l),
(955,511,l),
(1202,511,l),
(1202,362,l),
(949,362,l),
(921,-132,l),
(813,-132,l),
(841,362,l),
(505,362,l),
(479,-132,l),
(371,-132,l),
(396,362,l),
(180,362,l),
(180,511,l),
(405,511,l),
(428,896,l),
(180,896,l),
(180,1045,l),
(435,1045,l),
(463,1517,l),
(571,1517,l)
);
},
{
closed = 1;
nodes = (
(514,511,l),
(847,511,l),
(870,896,l),
(536,896,l)
);
}
);
width = 1381;
}
);
unicode = 35;
},
{
glyphname = dollar;
layers = (
{
layerId = "099ACB0D-E961-4620-9891-F06BAF5780F3";
shapes = (
{
closed = 1;
nodes = (
(1096,1259,l),
(1094,1236,o),
(1091,1184,o),
(1091,1149,q),
(1091,1039,o),
(1109,870,o),
(1116,813,q),
(1010,801,l),
(995,914,o),
(930,1050,o),
(854,1123,o),
(773,1151,o),
(741,1158,q),
(741,688,l),
(813,668,o),
(953,622,o),
(1063,550,o),
(1131,439,o),
(1131,356,q),
(1131,283,o),
(1070,171,o),
(964,88,o),
(822,39,o),
(741,33,q),
(741,-314,l),
(631,-314,l),
(631,33,l),
(613,33,o),
(582,35,o),
(541,46,o),
(483,62,o),
(439,76,q),
(415,85,o),
(393,88,o),
(389,88,q),
(366,88,o),
(359,60,o),
(356,20,q),
(248,20,l),
(255,147,o),
(242,352,o),
(226,468,q),
(334,468,l),
(341,428,o),
(369,325,o),
(430,228,o),
(541,154,o),
(631,143,q),
(631,601,l),
(573,617,o),
(444,659,o),
(336,732,o),
(265,847,o),
(265,937,q),
(265,1082,o),
(465,1257,o),
(631,1270,q),
(631,1510,l),
(741,1510,l),
(741,1270,l),
(819,1259,o),
(900,1222,q),
(930,1208,o),
(946,1202,o),
(955,1202,q),
(973,1202,o),
(982,1225,o),
(988,1259,q)
);
},
{
closed = 1;
nodes = (
(631,1160,l),
(604,1155,o),
(520,1137,o),
(442,1089,o),
(384,1008,o),
(384,942,q),
(384,886,o),
(428,815,o),
(497,767,o),
(584,734,o),
(631,720,q)
);
},
{
closed = 1;
nodes = (
(741,143,l),
(778,145,o),
(870,165,o),
(953,214,o),
(1010,294,o),
(1010,354,q),
(1010,407,o),
(962,479,o),
(886,527,o),
(789,560,o),
(741,573,q)
);
}
);
width = 1381;
}
);
unicode = 36;
},
{
glyphname = percent;
layers = (
{
layerId = "099ACB0D-E961-4620-9891-F06BAF5780F3";
shapes = (
{
closed = 1;
nodes = (
(1004,582,o),
(1125,527,o),
(1208,437,o),
(1250,327,o),
(1250,274,q),
(1250,219,o),
(1206,110,o),
(1123,22,o),
(1001,-33,o),
(923,-33,q),
(843,-33,o),
(723,22,o),
(640,112,o),
(598,221,o),
(598,274,q),
(598,325,o),
(640,435,o),
(720,525,o),
(843,582,o),
(923,582,q)
);
},
{
closed = 1;
nodes = (
(874,474,o),
(801,439,o),
(751,384,o),
(723,314,o),
(723,277,q),
(723,198,o),
(826,76,o),
(923,76,q),
(971,76,o),
(1048,110,o),
(1100,169,o),
(1125,239,o),
(1125,277,q),
(1125,310,o),
(1100,382,o),
(1050,439,o),
(973,474,o),
(923,474,q)
);
},
{
closed = 1;
nodes = (
(507,1413,o),
(628,1358,o),
(711,1268,o),
(755,1160,o),
(755,1105,q),
(755,1050,o),
(711,940,o),
(628,852,o),
(507,799,o),
(428,799,q),
(352,799,o),
(230,854,o),
(147,940,o),
(103,1050,o),
(103,1105,q),
(103,1158,o),
(145,1268,o),
(228,1358,o),
(347,1413,o),
(428,1413,q)
);
},
{
closed = 1;
nodes = (
(380,1305,o),
(303,1270,o),
(253,1213,o),
(228,1142,o),
(228,1105,q),
(228,1068,o),
(255,997,o),
(306,942,o),
(382,907,o),
(430,907,q),
(527,907,o),
(631,1026,o),
(631,1105,q),
(631,1181,o),
(527,1305,o),
(430,1305,q)
);
},
{
closed = 1;
nodes = (
(246,444,l),
(200,553,l),
(1135,967,l),
(1181,859,l)
);
}
);
width = 1381;
}
);
unicode = 37;
},
{
glyphname = ampersand;
layers = (
{
layerId = "099ACB0D-E961-4620-9891-F06BAF5780F3";
shapes = (
{
closed = 1;
nodes = (
(1217,536,l),
(1080,536,l),
(1039,415,o),
(978,288,o),
(960,255,q),
(1061,108,l),
(1234,108,l),
(1234,0,l),
(971,0,l),
(877,138,l),
(856,117,o),
(801,62,o),
(723,13,o),
(622,-18,o),
(560,-18,q),
(479,-18,o),
(354,39,o),
(270,136,o),
(226,255,o),
(226,318,q),
(226,435,o),
(369,642,o),
(499,690,q),
(499,698,o),
(490,707,q),
(451,764,o),
(402,837,o),
(375,898,o),
(366,949,o),
(366,980,q),
(366,1094,o),
(525,1243,o),
(663,1243,q),
(714,1243,o),
(801,1222,o),
(845,1204,q),
(894,1186,o),
(925,1179,o),
(940,1179,q),
(967,1179,o),
(1010,1193,o),
(1024,1197,q),
(918,1032,l),
(874,1063,o),
(751,1133,o),
(663,1133,q),
(615,1133,o),
(553,1105,o),
(516,1061,o),
(501,1010,o),
(501,990,q),
(501,949,o),
(547,868,o),
(591,804,q),
(891,359,l),
(912,402,o),
(937,459,o),
(958,514,o),
(980,584,o),
(999,644,q),
(1217,644,l)
);
},
{
closed = 1;
nodes = (
(562,608,l),
(529,593,o),
(465,547,o),
(413,483,o),
(378,398,o),
(378,345,q),
(378,303,o),
(400,217,o),
(453,145,o),
(532,101,o),
(587,101,q),
(631,101,o),
(705,129,o),
(760,171,o),
(801,214,o),
(815,230,q)
);
}
);
width = 1381;
}
);
unicode = 38;
},
{
glyphname = quotesingle;
layers = (
{
layerId = "099ACB0D-E961-4620-9891-F06BAF5780F3";
shapes = (
{
closed = 1;
nodes = (
(776,646,l),
(604,646,l),
(560,1296,l),
(822,1296,l)
);
}
);
width = 1381;
}
);
unicode = 39;
},
{
glyphname = parenleft;
layers = (
{
layerId = "099ACB0D-E961-4620-9891-F06BAF5780F3";
shapes = (
{
closed = 1;
nodes = (
(1066,1494,l),
(1028,1423,o),
(937,1236,o),
(854,1015,o),
(799,767,o),
(799,635,q),
(799,505,o),
(854,255,o),
(937,35,o),
(1028,-152,o),
(1066,-221,q),
(949,-221,l),
(883,-125,o),
(778,97,o),
(703,323,o),
(661,541,o),
(661,635,q),
(661,727,o),
(700,946,o),
(776,1171,o),
(881,1395,o),
(949,1494,q)
);
}
);
width = 1381;
}
);
unicode = 40;
},
{
glyphname = parenright;
layers = (
{
layerId = "099ACB0D-E961-4620-9891-F06BAF5780F3";
shapes = (
{
closed = 1;
nodes = (
(316,-221,l),
(350,-158,o),
(442,26,o),
(527,248,o),
(584,501,o),
(584,635,q),
(584,769,o),
(527,1019,o),
(442,1241,o),
(350,1427,o),
(316,1494,q),
(435,1494,l),
(507,1384,o),
(615,1155,o),
(686,932,o),
(723,725,o),
(723,635,q),
(723,541,o),
(683,327,o),
(610,103,o),
(501,-119,o),
(435,-221,q)
);
}
);
width = 1381;
}
);
unicode = 41;
},
{
glyphname = asterisk;
layers = (
{
layerId = "099ACB0D-E961-4620-9891-F06BAF5780F3";
shapes = (
{
closed = 1;
nodes = (
(755,958,l),
(1077,1075,l),
(1125,927,l),
(795,835,l),
(1008,569,l),
(881,474,l),
(690,762,l),
(499,474,l),
(373,569,l),
(587,835,l),
(255,927,l),
(303,1075,l),
(626,958,l),
(613,1296,l),
(769,1296,l)
);
}
);
width = 1381;
}
);
unicode = 42;
},
{
glyphname = plus;
layers = (
{
layerId = "099ACB0D-E961-4620-9891-F06BAF5780F3";
shapes = (
{
closed = 1;
nodes = (
(749,755,l),
(1230,755,l),
(1230,640,l),
(749,640,l),
(749,169,l),
(633,169,l),
(633,640,l),
(152,640,l),
(152,755,l),
(633,755,l),
(633,1227,l),
(749,1227,l)
);
}
);
width = 1381;
}
);
unicode = 43;
},
{
glyphname = comma;
layers = (
{
layerId = "099ACB0D-E961-4620-9891-F06BAF5780F3";
shapes = (
{
closed = 1;
nodes = (
(571,-251,l),
(407,-251,l),
(582,306,l),
(822,306,l)
);
}
);
width = 1381;
}
);
unicode = 44;
},
{
glyphname = hyphen;
layers = (
{
layerId = "099ACB0D-E961-4620-9891-F06BAF5780F3";
shapes = (
{
closed = 1;
nodes = (
(446,729,l),
(934,729,l),
(934,604,l),
(446,604,l)
);
}
);
width = 1381;
}
);
unicode = 45;
},
{
glyphname = period;
layers = (
{
layerId = "099ACB0D-E961-4620-9891-F06BAF5780F3";
shapes = (
{
closed = 1;
nodes = (
(725,274,o),
(787,251,o),
(837,209,o),
(868,152,o),
(868,117,q),
(868,81,o),
(835,22,o),
(785,-18,o),
(720,-39,o),
(690,-39,q),
(661,-39,o),
(598,-18,o),
(545,20,o),
(514,79,o),
(514,117,q),
(514,154,o),
(545,211,o),
(596,253,o),
(659,274,o),
(690,274,q)
);
}
);
width = 1381;
}
);
unicode = 46;
},
{
glyphname = slash;
layers = (
{
layerId = "099ACB0D-E961-4620-9891-F06BAF5780F3";
shapes = (
{
closed = 1;
nodes = (
(308,-306,l),
(209,-260,l),
(1072,1616,l),
(1171,1575,l)
);
}
);
width = 1381;
}
);
unicode = 47;
},
{
glyphname = zero;
layers = (
{
layerId = "099ACB0D-E961-4620-9891-F06BAF5780F3";
shapes = (
{
closed = 1;
nodes = (
(831,1430,o),
(1004,1285,o),
(1096,1066,o),
(1128,810,o),
(1128,698,q),
(1128,584,o),
(1096,329,o),
(1004,110,o),
(831,-33,o),
(690,-33,q),
(550,-33,o),
(378,112,o),
(285,329,o),
(253,587,o),
(253,698,q),
(253,810,o),
(285,1066,o),
(378,1285,o),
(550,1430,o),
(690,1430,q)
);
},
{
closed = 1;
nodes = (
(587,1326,o),
(463,1197,o),
(396,1008,o),
(375,789,o),
(375,700,q),
(375,608,o),
(396,389,o),
(463,198,o),
(587,71,o),
(688,71,q),
(792,71,o),
(916,200,o),
(986,389,o),
(1006,610,o),
(1006,700,q),
(1006,792,o),
(986,1010,o),
(918,1199,o),
(795,1326,o),
(690,1326,q)
);
}
);
width = 1381;
}
);
unicode = 48;
},
{
glyphname = one;
layers = (
{
layerId = "099ACB0D-E961-4620-9891-F06BAF5780F3";
shapes = (
{
closed = 1;
nodes = (
(769,1430,l),
(769,108,l),
(1162,108,l),
(1162,0,l),
(253,0,l),
(253,108,l),
(654,108,l),
(654,1296,l),
(285,1125,l),
(239,1227,l),
(695,1430,l)
);
}
);
width = 1381;
}
);
unicode = 49;
},
{
glyphname = two;
layers = (
{
layerId = "099ACB0D-E961-4620-9891-F06BAF5780F3";
shapes = (
{
closed = 1;
nodes = (
(1087,0,l),
(189,0,l),
(189,123,l),
(226,154,o),
(382,292,o),
(569,461,o),
(760,637,o),
(828,709,q),
(912,792,o),
(964,927,o),
(964,1008,q),
(964,1091,o),
(898,1206,o),
(801,1280,o),
(690,1314,o),
(646,1314,q),
(615,1314,o),
(514,1294,o),
(417,1239,o),
(350,1146,o),
(354,1075,q),
(235,1075,l),
(235,1225,l),
(299,1300,o),
(435,1386,o),
(553,1423,o),
(637,1430,o),
(652,1430,q),
(732,1430,o),
(889,1370,o),
(1013,1259,o),
(1089,1100,o),
(1089,1004,q),
(1089,930,o),
(1052,815,o),
(1010,749,q),
(982,705,o),
(854,564,o),
(674,393,o),
(459,205,o),
(343,112,q),
(343,108,l),
(978,108,l),
(978,336,l),
(1087,336,l)
);
}
);
width = 1381;
}
);
unicode = 50;
},
{
glyphname = three;
layers = (
{
layerId = "099ACB0D-E961-4620-9891-F06BAF5780F3";
shapes = (
{
closed = 1;
nodes = (
(237,182,l),
(325,141,o),
(523,76,o),
(619,76,q),
(681,76,o),
(804,115,o),
(900,196,o),
(958,314,o),
(958,389,q),
(958,470,o),
(903,575,o),
(835,637,o),
(773,665,o),
(767,668,q),
(707,688,o),
(598,692,o),
(543,688,q),
(543,797,l),
(593,797,o),
(711,810,o),
(764,845,q),
(822,883,o),
(883,1004,o),
(883,1070,q),
(883,1188,o),
(727,1322,o),
(610,1322,q),
(520,1322,o),
(373,1245,o),
(320,1213,q),
(279,1188,l),
(221,1278,l),
(318,1340,o),
(501,1430,o),
(613,1430,q),
(686,1430,o),
(826,1381,o),
(937,1289,o),
(1004,1158,o),
(1004,1072,q),
(1004,997,o),
(960,886,o),
(900,810,o),
(841,769,o),
(826,760,q),
(863,746,o),
(949,686,o),
(1024,596,o),
(1075,472,o),
(1075,393,q),
(1075,297,o),
(1004,138,o),
(877,28,o),
(709,-33,o),
(613,-33,q),
(560,-33,o),
(470,-18,o),
(375,11,o),
(265,53,o),
(193,81,q)
);
}
);
width = 1381;
}
);
unicode = 51;
},
{
glyphname = four;
layers = (
{
layerId = "099ACB0D-E961-4620-9891-F06BAF5780F3";
shapes = (
{
closed = 1;
nodes = (
(1105,446,l),
(1105,336,l),
(898,336,l),
(898,108,l),
(1105,108,l),
(1105,0,l),
(477,0,l),
(477,108,l),
(787,108,l),
(787,336,l),
(171,336,l),
(171,470,l),
(741,1430,l),
(898,1430,l),
(898,446,l)
);
},
{
closed = 1;
nodes = (
(787,1296,l),
(782,1296,l),
(283,446,l),
(787,446,l)
);
}
);
width = 1381;
}
);
unicode = 52;
},
{
glyphname = five;
layers = (
{
layerId = "099ACB0D-E961-4620-9891-F06BAF5780F3";
shapes = (
{
closed = 1;
nodes = (
(1059,1285,l),
(393,1285,l),
(393,819,l),
(446,843,o),
(580,883,o),
(672,883,q),
(776,883,o),
(944,813,o),
(1061,690,o),
(1125,525,o),
(1125,433,q),
(1125,364,o),
(1080,200,o),
(967,62,o),
(780,-33,o),
(642,-33,q),
(520,-33,o),
(325,26,o),
(209,71,q),
(251,175,l),
(279,163,o),
(359,132,o),
(459,103,o),
(573,83,o),
(633,83,q),
(727,83,o),
(865,136,o),
(958,230,o),
(1001,354,o),
(1001,428,q),
(1001,497,o),
(955,624,o),
(865,720,o),
(736,776,o),
(654,776,q),
(566,776,o),
(419,718,o),
(347,665,q),
(290,698,l),
(290,1395,l),
(1059,1395,l)
);
}
);
width = 1381;
}
);
unicode = 53;
},
{
glyphname = six;
layers = (
{
layerId = "099ACB0D-E961-4620-9891-F06BAF5780F3";
shapes = (
{
closed = 1;
nodes = (
(1118,1314,l),
(990,1322,o),
(741,1303,o),
(534,1184,o),
(389,921,o),
(364,683,q),
(369,679,l),
(382,695,o),
(435,755,o),
(518,810,o),
(628,852,o),
(703,852,q),
(792,852,o),
(942,778,o),
(1048,654,o),
(1105,492,o),
(1105,405,q),
(1105,318,o),
(1045,158,o),
(937,39,o),
(787,-33,o),
(698,-33,q),
(628,-33,o),
(465,28,o),
(327,173,o),
(235,415,o),
(235,598,q),
(235,654,o),
(257,870,o),
(343,1112,o),
(518,1331,o),
(670,1386,q),
(695,1395,o),
(767,1413,o),
(870,1427,o),
(1017,1434,o),
(1118,1430,q)
);
},
{
closed = 1;
nodes = (
(371,369,o),
(444,211,o),
(543,119,o),
(654,83,o),
(698,83,q),
(753,83,o),
(854,127,o),
(934,209,o),
(980,329,o),
(980,405,q),
(980,470,o),
(940,591,o),
(868,681,o),
(764,736,o),
(703,736,q),
(683,736,o),
(601,725,o),
(501,677,o),
(400,578,o),
(364,488,q)
);
}
);
width = 1381;
}
);
unicode = 54;
},
{
glyphname = seven;
layers = (
{
layerId = "099ACB0D-E961-4620-9891-F06BAF5780F3";
shapes = (
{
closed = 1;
nodes = (
(1123,1287,l),
(677,0,l),
(543,0,l),
(1008,1287,l),
(332,1287,l),
(332,1075,l),
(219,1075,l),
(219,1395,l),
(1123,1395,l)
);
}
);
width = 1381;
}
);
unicode = 55;
},
{
glyphname = eight;
layers = (
{
layerId = "099ACB0D-E961-4620-9891-F06BAF5780F3";
shapes = (
{
closed = 1;
nodes = (
(456,723,o),
(384,778,o),
(320,863,o),
(272,978,o),
(272,1052,q),
(272,1131,o),
(336,1266,o),
(448,1370,o),
(601,1430,o),
(690,1430,q),
(780,1430,o),
(932,1370,o),
(1045,1266,o),
(1109,1131,o),
(1109,1052,q),
(1109,960,o),
(1010,771,o),
(903,711,q),
(964,683,o),
(1052,601,o),
(1109,507,o),
(1135,407,o),
(1135,364,q),
(1135,299,o),
(1082,158,o),
(971,44,o),
(804,-33,o),
(690,-33,q),
(575,-33,o),
(410,44,o),
(299,158,o),
(246,299,o),
(246,364,q),
(246,472,o),
(375,665,o),
(479,711,q)
);
},
{
closed = 1;
nodes = (
(610,1322,o),
(497,1268,o),
(428,1186,o),
(396,1091,o),
(396,1050,q),
(396,997,o),
(437,896,o),
(514,815,o),
(624,764,o),
(690,764,q),
(746,764,o),
(852,804,o),
(934,879,o),
(986,982,o),
(986,1050,q),
(986,1118,o),
(932,1220,o),
(850,1287,o),
(744,1322,o),
(690,1322,q)
);
},
{
closed = 1;
nodes = (
(610,656,o),
(490,604,o),
(410,518,o),
(371,415,o),
(371,364,q),
(371,306,o),
(419,202,o),
(507,123,o),
(622,76,o),
(690,76,q),
(760,76,o),
(874,123,o),
(962,202,o),
(1010,306,o),
(1010,364,q),
(1010,415,o),
(969,520,o),
(889,604,o),
(769,656,o),
(690,656,q)
);
}
);
width = 1381;
}
);
unicode = 56;
},
{
glyphname = nine;
layers = (
{
layerId = "099ACB0D-E961-4620-9891-F06BAF5780F3";
shapes = (
{
closed = 1;
nodes = (
(187,83,l),
(318,76,o),
(564,94,o),
(769,214,o),
(914,477,o),
(942,714,q),
(937,718,l),
(923,700,o),
(870,642,o),
(787,587,o),
(674,545,o),
(604,545,q),
(514,545,o),
(364,619,o),
(257,744,o),
(200,905,o),
(200,992,q),
(200,1080,o),
(260,1239,o),
(369,1358,o),
(518,1430,o),
(608,1430,q),
(677,1430,o),
(841,1370,o),
(978,1225,o),
(1070,980,o),
(1070,799,q),
(1070,744,o),
(1048,527,o),
(962,285,o),
(787,66,o),
(635,11,q),
(610,2,o),
(538,-18,o),
(435,-33,o),
(288,-37,o),
(187,-33,q)
);
},
{
closed = 1;
nodes = (
(934,1028,o),
(861,1186,o),
(762,1278,o),
(652,1314,o),
(608,1314,q),
(553,1314,o),
(451,1270,o),
(371,1188,o),
(325,1068,o),
(325,992,q),
(325,925,o),
(366,806,o),
(437,716,o),
(541,661,o),
(604,661,q),
(619,661,o),
(703,670,o),
(804,718,o),
(905,819,o),
(942,909,q)
);
}
);
width = 1381;
}
);
unicode = 57;
},
{
glyphname = colon;
layers = (
{
layerId = "099ACB0D-E961-4620-9891-F06BAF5780F3";
shapes = (
{
closed = 1;
nodes = (
(720,898,o),
(785,877,o),
(835,835,o),
(868,778,o),
(868,741,q),
(868,705,o),
(835,646,o),
(785,606,o),
(720,584,o),
(690,584,q),
(661,584,o),
(598,606,o),
(545,644,o),
(514,703,o),
(514,741,q),
(514,778,o),
(545,835,o),
(596,877,o),
(659,898,o),
(690,898,q)
);
},
{
closed = 1;
nodes = (
(720,274,o),
(785,253,o),
(835,211,o),
(868,154,o),
(868,117,q),
(868,81,o),
(835,22,o),
(785,-18,o),
(720,-39,o),
(690,-39,q),
(661,-39,o),
(598,-18,o),
(545,20,o),
(514,79,o),
(514,117,q),
(514,154,o),
(545,211,o),
(596,253,o),
(659,274,o),
(690,274,q)
);
}
);
width = 1381;
}
);
unicode = 58;
},
{
glyphname = semicolon;
layers = (
{
layerId = "099ACB0D-E961-4620-9891-F06BAF5780F3";
shapes = (
{
closed = 1;
nodes = (
(580,-248,l),
(417,-248,l),
(593,308,l),
(831,308,l)
);
},
{
closed = 1;
nodes = (
(720,898,o),
(785,877,o),
(835,835,o),
(868,778,o),
(868,741,q),
(868,705,o),
(835,646,o),
(785,606,o),
(720,584,o),
(690,584,q),
(661,584,o),
(598,606,o),
(545,644,o),
(514,703,o),
(514,741,q),
(514,778,o),
(545,835,o),
(596,877,o),
(659,898,o),
(690,898,q)
);
}
);
width = 1381;
}
);
unicode = 59;
},
{
glyphname = less;
layers = (
{
layerId = "099ACB0D-E961-4620-9891-F06BAF5780F3";
shapes = (
{
closed = 1;
nodes = (
(1211,1225,l),
(1257,1121,l),
(380,709,l),
(1257,306,l),
(1211,205,l),
(125,709,l)
);
}
);
width = 1381;
}
);
unicode = 60;
},
{
glyphname = equal;
layers = (
{
layerId = "099ACB0D-E961-4620-9891-F06BAF5780F3";
shapes = (
{
closed = 1;
nodes = (
(1234,850,l),
(147,850,l),
(147,964,l),
(1234,964,l)
);
},
{
closed = 1;
nodes = (
(1234,433,l),
(147,433,l),
(147,547,l),
(1234,547,l)
);
}
);
width = 1381;
}
);
unicode = 61;
},
{
glyphname = greater;
layers = (
{
layerId = "099ACB0D-E961-4620-9891-F06BAF5780F3";
shapes = (
{
closed = 1;
nodes = (
(171,193,l),
(125,297,l),
(1001,709,l),
(125,1112,l),
(171,1213,l),
(1257,709,l)
);
}
);
width = 1381;
}
);
unicode = 62;
},
{
glyphname = question;
layers = (
{
layerId = "099ACB0D-E961-4620-9891-F06BAF5780F3";
shapes = (
{
closed = 1;
nodes = (
(277,1236,l),
(336,1257,o),
(430,1287,o),
(516,1307,o),
(601,1316,o),
(650,1316,q),
(760,1316,o),
(925,1252,o),
(1036,1149,o),
(1091,1010,o),
(1091,940,q),
(1091,837,o),
(1004,703,o),
(877,615,o),
(732,564,o),
(674,547,q),
(674,410,l),
(562,410,l),
(562,633,l),
(566,635,o),
(596,642,o),
(608,644,q),
(665,659,o),
(795,698,o),
(900,764,o),
(971,868,o),
(971,946,q),
(971,980,o),
(944,1070,o),
(872,1151,o),
(749,1204,o),
(652,1204,q),
(566,1204,o),
(448,1171,o),
(391,1149,q),
(391,1001,l),
(277,1001,l)
);
},
{
closed = 1;
nodes = (
(679,244,o),
(771,163,o),
(771,103,q),
(771,42,o),
(677,-39,o),
(613,-39,q),
(547,-39,o),
(453,42,o),
(453,103,q),
(453,163,o),
(545,244,o),
(613,244,q)
);
}
);
width = 1381;
}
);
unicode = 63;
},
{
glyphname = at;
layers = (
{
layerId = "099ACB0D-E961-4620-9891-F06BAF5780F3";
shapes = (
{
closed = 1;
nodes = (
(1227,132,l),
(1225,132,o),
(1215,125,o),
(1213,125,q),
(1096,57,o),
(815,-33,o),
(663,-33,q),
(511,-33,o),
(290,74,o),
(145,248,o),
(74,477,o),
(74,598,q),
(74,736,o),
(158,976,o),
(320,1153,o),
(560,1257,o),
(711,1257,q),
(837,1257,o),
(1054,1181,o),
(1213,1034,o),
(1305,819,o),
(1305,683,q),
(1305,587,o),
(1257,424,o),
(1167,308,o),
(1045,244,o),
(971,244,q),
(946,244,o),
(916,248,o),
(886,265,o),
(847,292,o),
(815,316,q),
(797,329,o),
(789,350,o),
(789,362,q),
(776,345,o),
(736,303,o),
(681,265,o),
(613,239,o),
(571,239,q),
(550,239,o),
(488,260,o),
(430,310,o),
(391,402,o),
(391,472,q),
(391,547,o),
(444,711,o),
(536,845,o),
(659,930,o),
(729,930,q),
(787,930,o),
(845,863,o),
(861,837,q),
(881,918,l),
(1001,918,l),
(903,560,l),
(903,550,o),
(879,472,o),
(879,444,q),
(879,419,o),
(932,352,o),
(986,352,q),
(1028,352,o),
(1105,407,o),
(1162,501,o),
(1195,626,o),
(1195,698,q),
(1195,810,o),
(1118,980,o),
(986,1094,o),
(808,1149,o),
(707,1149,q),
(569,1149,o),
(375,1052,o),
(251,898,o),
(193,700,o),
(193,596,q),
(193,505,o),
(244,320,o),
(356,171,o),
(538,76,o),
(670,76,q),
(815,76,o),
(1048,158,o),
(1128,202,q),
(1162,221,l),
(1164,221,o),
(1177,228,o),
(1179,228,q)
);
},
{
closed = 1;
nodes = (
(626,352,o),
(705,424,o),
(764,527,o),
(799,650,o),
(799,700,q),
(799,753,o),
(749,815,o),
(716,815,q),
(677,815,o),
(601,744,o),
(543,637,o),
(509,514,o),
(509,463,q),
(509,446,o),
(516,410,o),
(534,375,o),
(562,352,o),
(582,352,q)
);
}
);
width = 1381;
}
);
unicode = 64;
},
{
glyphname = A;
layers = (
{
layerId = "099ACB0D-E961-4620-9891-F06BAF5780F3";
shapes = (
{
closed = 1;
nodes = (
(1241,108,l),
(1358,108,l),
(1358,0,l),
(886,0,l),
(886,108,l),
(1121,108,l),
(990,428,l),
(389,428,l),
(260,108,l),
(495,108,l),
(495,0,l),
(22,0,l),
(22,108,l),
(145,108,l),
(589,1188,l),
(260,1188,l),
(260,1296,l),
(755,1296,l)
);
},
{
closed = 1;
nodes = (
(430,529,l),
(951,529,l),
(690,1160,l)
);
}
);
width = 1381;
}
);
unicode = 65;
},
{
glyphname = B;
layers = (
{
layerId = "099ACB0D-E961-4620-9891-F06BAF5780F3";
shapes = (
{
closed = 1;
nodes = (
(732,1296,l),
(868,1296,o),
(1015,1243,o),
(1112,1155,o),
(1171,1036,o),
(1171,962,q),
(1171,900,o),
(1133,804,o),
(1075,734,o),
(1013,688,o),
(990,677,q),
(1114,640,o),
(1252,479,o),
(1252,354,q),
(1252,257,o),
(1162,103,o),
(1089,64,q),
(1052,44,o),
(982,18,o),
(898,4,o),
(789,0,o),
(711,0,q),
(103,0,l),
(103,108,l),
(294,108,l),
(294,1188,l),
(103,1188,l),
(103,1296,l)
);
},
{
closed = 1;
nodes = (
(410,727,l),
(716,727,l),
(828,727,o),
(962,782,o),
(1032,859,o),
(1052,940,o),
(1052,967,q),
(1052,1050,o),
(964,1140,o),
(852,1181,o),
(746,1188,o),
(727,1188,q),
(410,1188,l)
);
},
{
closed = 1;
nodes = (
(410,108,l),
(707,108,l),
(769,108,o),
(916,115,o),
(1045,161,o),
(1133,260,o),
(1133,354,q),
(1133,426,o),
(1066,527,o),
(951,589,o),
(789,619,o),
(698,619,q),
(410,619,l)
);
}
);
width = 1381;
}
);
unicode = 66;
},
{
glyphname = C;
layers = (
{
layerId = "099ACB0D-E961-4620-9891-F06BAF5780F3";
shapes = (
{
closed = 1;
nodes = (
(1368,228,l),
(1270,136,o),
(1087,30,o),
(927,-26,o),
(804,-39,o),
(769,-39,q),
(617,-39,o),
(384,74,o),
(228,268,o),
(147,520,o),
(147,663,q),
(147,813,o),
(242,1061,o),
(407,1239,o),
(633,1335,o),
(764,1335,q),
(833,1335,o),
(937,1309,o),
(1010,1276,o),
(1052,1243,o),
(1059,1236,q),
(1082,1217,o),
(1094,1211,o),
(1098,1211,q),
(1105,1211,o),
(1116,1234,o),
(1123,1268,o),
(1131,1305,o),
(1133,1322,q),
(1217,1322,l),
(1213,1177,o),
(1230,973,o),
(1241,881,q),
(1133,863,l),
(1125,903,o),
(1096,1024,o),
(1057,1085,q),
(1024,1133,o),
(886,1220,o),
(760,1220,q),
(644,1220,o),
(465,1133,o),
(338,980,o),
(272,778,o),
(272,665,q),
(272,578,o),
(316,373,o),
(428,196,o),
(619,76,o),
(769,76,q),
(925,76,o),
(1179,211,o),
(1291,310,q)
);
}
);
width = 1381;
}
);
unicode = 67;
},
{
glyphname = D;
layers = (
{
layerId = "099ACB0D-E961-4620-9891-F06BAF5780F3";
shapes = (
{
closed = 1;
nodes = (
(654,1296,l),
(729,1296,o),
(861,1285,o),
(973,1250,o),
(1077,1181,o),
(1125,1123,q),
(1177,1061,o),
(1234,927,o),
(1261,804,o),
(1268,703,o),
(1268,672,q),
(1268,569,o),
(1236,400,o),
(1184,270,o),
(1114,169,o),
(1077,134,q),
(1024,83,o),
(900,30,o),
(780,4,o),
(677,0,o),
(644,0,q),
(79,0,l),
(79,108,l),
(260,108,l),
(260,1188,l),
(79,1188,l),
(79,1296,l)
);
},
{
closed = 1;
nodes = (
(375,108,l),
(644,108,l),
(674,108,o),
(758,110,o),
(852,132,o),
(949,175,o),
(990,217,q),
(1052,279,o),
(1144,507,o),
(1144,665,q),
(1142,773,o),
(1103,925,o),
(1048,1032,o),
(986,1096,o),
(960,1116,q),
(900,1162,o),
(755,1188,o),
(656,1188,q),
(375,1188,l)
);
}
);
width = 1381;
}
);
unicode = 68;
},
{
glyphname = E;
layers = (
{
layerId = "099ACB0D-E961-4620-9891-F06BAF5780F3";
shapes = (
{
closed = 1;
nodes = (
(1234,872,l),
(1128,872,l),
(1105,1188,l),
(442,1188,l),
(442,738,l),
(815,738,l),
(815,907,l),
(921,907,l),
(921,465,l),
(815,465,l),
(815,631,l),
(442,631,l),
(442,108,l),
(1128,108,l),
(1140,424,l),
(1245,424,l),
(1245,0,l),
(132,0,l),
(132,108,l),
(327,108,l),
(327,1188,l),
(132,1188,l),
(132,1296,l),
(1225,1296,l)
);
}
);
width = 1381;
}
);
unicode = 69;
},
{
glyphname = F;
layers = (
{
layerId = "099ACB0D-E961-4620-9891-F06BAF5780F3";
shapes = (
{
closed = 1;
nodes = (
(1257,881,l),
(1153,881,l),
(1125,1188,l),
(468,1188,l),
(468,738,l),
(841,738,l),
(841,907,l),
(946,907,l),
(946,465,l),
(841,465,l),
(841,631,l),
(468,631,l),
(468,108,l),
(767,108,l),
(767,0,l),
(165,0,l),
(165,108,l),
(352,108,l),
(352,1188,l),
(165,1188,l),
(165,1296,l),
(1245,1296,l)
);
}
);
width = 1381;
}
);
unicode = 70;
},
{
glyphname = G;
layers = (
{
layerId = "099ACB0D-E961-4620-9891-F06BAF5780F3";
shapes = (
{
closed = 1;
nodes = (
(1202,1322,l),
(1199,1314,o),
(1197,1282,o),
(1197,1278,q),
(1197,1268,o),
(1195,1225,o),
(1190,1169,o),
(1188,1114,o),
(1188,1091,q),
(1188,1034,o),
(1197,923,o),
(1202,881,q),
(1103,863,l),
(1096,903,o),
(1066,1024,o),
(986,1137,o),
(841,1220,o),
(718,1220,q),
(617,1220,o),
(442,1135,o),
(310,982,o),
(235,771,o),
(235,644,q),
(235,527,o),
(297,320,o),
(426,165,o),
(619,76,o),
(751,76,q),
(808,76,o),
(967,103,o),
(1103,149,q),
(1103,461,l),
(762,461,l),
(762,569,l),
(1331,569,l),
(1331,461,l),
(1220,461,l),
(1220,74,l),
(960,-39,o),
(749,-39,q),
(571,-39,o),
(327,88,o),
(178,288,o),
(110,527,o),
(110,642,q),
(110,776,o),
(191,1024,o),
(347,1217,o),
(575,1335,o),
(723,1335,q),
(806,1335,o),
(944,1289,o),
(1010,1236,q),
(1028,1217,o),
(1048,1208,o),
(1057,1208,q),
(1075,1208,o),
(1082,1245,o),
(1091,1322,q)
);
}
);
width = 1381;
}
);
unicode = 71;
},
{
glyphname = H;
layers = (
{
layerId = "099ACB0D-E961-4620-9891-F06BAF5780F3";
shapes = (
{
closed = 1;
nodes = (
(550,1188,l),
(378,1188,l),
(378,723,l),
(1004,723,l),
(1004,1188,l),
(831,1188,l),
(831,1296,l),
(1294,1296,l),
(1294,1188,l),
(1118,1188,l),
(1118,108,l),
(1294,108,l),
(1294,0,l),
(831,0,l),
(831,108,l),
(1004,108,l),
(1004,615,l),
(378,615,l),
(378,108,l),
(550,108,l),
(550,0,l),
(90,0,l),
(90,108,l),
(262,108,l),
(262,1188,l),
(90,1188,l),
(90,1296,l),
(550,1296,l)
);
}
);
width = 1381;
}
);
unicode = 72;
},
{
glyphname = I;
layers = (
{
layerId = "099ACB0D-E961-4620-9891-F06BAF5780F3";
shapes = (
{
closed = 1;
nodes = (
(1151,1188,l),
(749,1188,l),
(749,108,l),
(1151,108,l),
(1151,0,l),
(230,0,l),
(230,108,l),
(633,108,l),
(633,1188,l),
(230,1188,l),
(230,1296,l),
(1151,1296,l)
);
}
);
width = 1381;
}
);
unicode = 73;
},
{
glyphname = J;
layers = (
{
layerId = "099ACB0D-E961-4620-9891-F06BAF5780F3";
shapes = (
{
closed = 1;
nodes = (
(1333,1188,l),
(1041,1188,l),
(1041,470,l),
(1041,373,o),
(1019,180,o),
(973,108,q),
(946,69,o),
(868,11,o),
(785,-22,o),
(700,-39,o),
(663,-39,q),
(525,-39,o),
(297,46,o),
(200,90,q),
(156,108,l),
(136,606,l),
(248,606,l),
(257,382,l),
(260,294,o),
(297,189,o),
(366,147,q),
(433,106,o),
(578,76,o),
(637,76,q),
(744,76,o),
(861,147,o),
(916,260,o),
(925,400,o),
(925,470,q),
(925,1188,l),
(472,1188,l),
(472,1296,l),
(1333,1296,l)
);
}
);
width = 1381;
}
);
unicode = 74;
},
{
glyphname = K;
layers = (
{
layerId = "099ACB0D-E961-4620-9891-F06BAF5780F3";
shapes = (
{
closed = 1;
nodes = (
(642,1188,l),
(446,1188,l),
(446,624,l),
(1026,1188,l),
(837,1188,l),
(837,1296,l),
(1287,1296,l),
(1287,1188,l),
(1184,1188,l),
(683,703,l),
(727,679,o),
(831,606,o),
(946,472,o),
(1072,265,o),
(1142,108,q),
(1353,108,l),
(1353,0,l),
(1059,0,l),
(1022,97,o),
(934,270,o),
(909,310,q),
(843,426,o),
(707,573,o),
(606,624,q),
(446,472,l),
(446,108,l),
(642,108,l),
(642,0,l),
(138,0,l),
(138,108,l),
(332,108,l),
(332,1188,l),
(138,1188,l),
(138,1296,l),
(642,1296,l)
);
}
);
width = 1381;
}
);
unicode = 75;
},
{
glyphname = L;
layers = (
{
layerId = "099ACB0D-E961-4620-9891-F06BAF5780F3";
shapes = (
{
closed = 1;
nodes = (
(764,1188,l),
(481,1188,l),
(481,108,l),
(1133,108,l),
(1164,573,l),
(1273,573,l),
(1248,0,l),
(136,0,l),
(136,108,l),
(366,108,l),
(366,1188,l),
(136,1188,l),
(136,1296,l),
(764,1296,l)
);
}
);
width = 1381;
}
);
unicode = 76;
},
{
glyphname = M;
layers = (
{
layerId = "099ACB0D-E961-4620-9891-F06BAF5780F3";
shapes = (
{
closed = 1;
nodes = (
(665,516,l),
(707,516,l),
(992,1296,l),
(1362,1296,l),
(1362,1188,l),
(1199,1188,l),
(1239,108,l),
(1379,108,l),
(1379,0,l),
(891,0,l),
(891,108,l),
(1137,108,l),
(1103,1188,l),
(1061,1188,l),
(738,332,l),
(619,332,l),
(320,1188,l),
(279,1188,l),
(244,108,l),
(490,108,l),
(490,0,l),
(2,0,l),
(2,108,l),
(143,108,l),
(182,1188,l),
(18,1188,l),
(18,1296,l),
(402,1296,l)
);
}
);
width = 1381;
}
);
unicode = 77;
},
{
glyphname = N;
layers = (
{
layerId = "099ACB0D-E961-4620-9891-F06BAF5780F3";
shapes = (
{
closed = 1;
nodes = (
(1063,97,l),
(1105,97,l),
(1105,1188,l),
(847,1188,l),
(847,1296,l),
(1360,1296,l),
(1360,1188,l),
(1211,1188,l),
(1211,-30,l),
(1006,-30,l),
(389,1188,l),
(350,1188,l),
(350,108,l),
(610,108,l),
(610,0,l),
(64,0,l),
(64,108,l),
(244,108,l),
(244,1188,l),
(64,1188,l),
(64,1296,l),
(459,1296,l)
);
}
);
width = 1381;
}
);
unicode = 78;
},
{
glyphname = O;
layers = (
{
layerId = "099ACB0D-E961-4620-9891-F06BAF5780F3";
shapes = (
{
closed = 1;
nodes = (
(99,789,o),
(182,1041,o),
(336,1227,o),
(555,1335,o),
(690,1335,q),
(828,1335,o),
(1048,1225,o),
(1202,1036,o),
(1282,787,o),
(1282,646,q),
(1282,509,o),
(1199,257,o),
(1048,71,o),
(828,-39,o),
(690,-39,q),
(555,-39,o),
(336,69,o),
(182,255,o),
(99,505,o),
(99,646,q)
);
},
{
closed = 1;
nodes = (
(224,545,o),
(283,341,o),
(400,178,o),
(575,76,o),
(690,76,q),
(804,76,o),
(978,175,o),
(1098,336,o),
(1158,541,o),
(1158,650,q),
(1158,758,o),
(1096,964,o),
(976,1123,o),
(804,1220,o),
(690,1220,q),
(571,1220,o),
(396,1116,o),
(281,953,o),
(224,749,o),
(224,650,q)
);
}
);
width = 1381;
}
);
unicode = 79;
},
{
glyphname = P;
layers = (
{
layerId = "099ACB0D-E961-4620-9891-F06BAF5780F3";
shapes = (
{
closed = 1;
nodes = (
(690,1296,l),
(815,1296,o),
(969,1270,o),
(1032,1236,q),
(1118,1188,o),
(1230,999,o),
(1230,894,q),
(1230,845,o),
(1204,751,o),
(1160,668,o),
(1098,598,o),
(1061,578,q),
(1019,553,o),
(940,525,o),
(837,511,o),
(698,509,o),
(593,509,q),
(465,509,l),
(465,108,l),
(804,108,l),
(804,0,l),
(163,0,l),
(163,108,l),
(350,108,l),
(350,1188,l),
(163,1188,l),
(163,1296,l)
);
},
{
closed = 1;
nodes = (
(465,617,l),
(596,617,l),
(736,617,o),
(949,631,o),
(1008,679,q),
(1041,705,o),
(1105,815,o),
(1105,898,q),
(1105,992,o),
(1013,1118,o),
(967,1142,q),
(946,1153,o),
(900,1169,o),
(837,1181,o),
(753,1188,o),
(690,1188,q),
(465,1188,l)
);
}
);
width = 1381;
}
);
unicode = 80;
},
{
glyphname = Q;
layers = (
{
layerId = "099ACB0D-E961-4620-9891-F06BAF5780F3";
shapes = (
{
closed = 1;
nodes = (
(1259,-202,l),
(1220,-230,o),
(1107,-294,o),
(1026,-294,q),
(973,-294,o),
(891,-265,o),
(771,-214,o),
(695,-193,o),
(652,-193,q),
(575,-193,o),
(461,-242,o),
(380,-288,q),
(327,-202,l),
(369,-175,o),
(437,-112,o),
(488,-60,o),
(518,-20,o),
(523,-16,q),
(426,13,o),
(270,141,o),
(158,314,o),
(99,527,o),
(99,646,q),
(99,810,o),
(196,1066,o),
(359,1243,o),
(573,1335,o),
(688,1335,q),
(813,1335,o),
(1028,1236,o),
(1190,1054,o),
(1282,797,o),
(1282,637,q),
(1282,520,o),
(1220,279,o),
(1072,81,o),
(831,-42,o),
(652,-39,q),
(642,-51,o),
(633,-60,o),
(615,-79,q),
(613,-83,o),
(608,-88,o),
(610,-83,q),
(606,-83,l),
(606,-88,l),
(617,-88,o),
(637,-85,o),
(656,-85,q),
(698,-85,o),
(799,-106,o),
(859,-132,q),
(900,-147,o),
(949,-165,o),
(980,-178,o),
(1004,-180,o),
(1017,-180,q),
(1075,-180,o),
(1155,-141,o),
(1188,-119,q)
);
},
{
closed = 1;
nodes = (
(224,545,o),
(283,341,o),
(400,178,o),
(575,76,o),
(690,76,q),
(804,76,o),
(978,175,o),
(1098,336,o),
(1158,541,o),
(1158,650,q),
(1158,758,o),
(1096,964,o),
(976,1123,o),
(804,1220,o),
(690,1220,q),
(571,1220,o),
(396,1116,o),
(281,953,o),
(224,749,o),
(224,650,q)
);
}
);
width = 1381;
}
);
unicode = 81;
},
{
glyphname = R;
layers = (
{
layerId = "099ACB0D-E961-4620-9891-F06BAF5780F3";
shapes = (
{
closed = 1;
nodes = (
(695,1296,l),
(806,1296,o),
(949,1276,o),
(1068,1193,o),
(1149,1034,o),
(1149,949,q),
(1149,898,o),
(1114,782,o),
(1032,681,o),
(896,606,o),
(797,596,q),
(826,564,o),
(912,444,o),
(1001,306,o),
(1091,165,o),
(1125,108,q),
(1329,108,l),
(1329,0,l),
(1041,0,l),
(1013,57,o),
(946,182,o),
(883,290,o),
(831,375,o),
(819,393,q),
(785,446,o),
(734,523,o),
(681,571,o),
(619,593,o),
(573,593,q),
(407,593,l),
(407,108,l),
(613,108,l),
(613,0,l),
(103,0,l),
(103,108,l),
(292,108,l),
(292,1188,l),
(103,1188,l),
(103,1296,l)
);
},
{
closed = 1;
nodes = (
(407,703,l),
(622,703,l),
(668,703,o),
(806,709,o),
(932,755,o),
(1024,859,o),
(1024,955,q),
(1024,1013,o),
(973,1116,o),
(927,1149,q),
(914,1158,o),
(883,1171,o),
(833,1181,o),
(753,1188,o),
(690,1188,q),
(407,1188,l)
);
}
);
width = 1381;
}
);
unicode = 82;
},
{
glyphname = S;
layers = (
{
layerId = "099ACB0D-E961-4620-9891-F06BAF5780F3";
shapes = (
{
closed = 1;
nodes = (
(1167,1322,l),
(1155,1268,o),
(1146,1199,o),
(1146,1155,q),
(1146,1116,o),
(1155,980,o),
(1167,881,q),
(1063,863,l),
(1059,900,o),
(1032,1019,o),
(992,1080,q),
(978,1100,o),
(934,1149,o),
(865,1190,o),
(769,1220,o),
(700,1220,q),
(610,1220,o),
(479,1167,o),
(393,1087,o),
(352,992,o),
(352,949,q),
(352,868,o),
(430,776,o),
(541,725,o),
(661,707,o),
(703,703,q),
(831,688,o),
(978,659,o),
(1098,580,o),
(1181,451,o),
(1181,352,q),
(1181,251,o),
(1096,103,o),
(962,7,o),
(795,-39,o),
(709,-39,q),
(640,-39,o),
(536,-16,o),
(461,18,o),
(410,53,o),
(393,66,q),
(391,69,o),
(380,76,o),
(375,76,q),
(369,76,o),
(356,62,o),
(352,57,q),
(347,42,o),
(341,11,o),
(332,-46,q),
(228,-46,l),
(239,9,o),
(248,110,o),
(248,136,q),
(248,158,l),
(248,178,o),
(244,239,o),
(237,310,o),
(230,378,o),
(228,402,q),
(332,402,l),
(341,359,o),
(371,248,o),
(410,198,q),
(442,156,o),
(569,76,o),
(692,76,q),
(799,76,o),
(940,127,o),
(1022,205,o),
(1057,299,o),
(1057,343,q),
(1057,419,o),
(990,509,o),
(894,558,o),
(780,575,o),
(736,580,q),
(670,587,o),
(492,615,o),
(336,688,o),
(228,824,o),
(228,940,q),
(228,1017,o),
(297,1160,o),
(419,1270,o),
(587,1335,o),
(686,1335,q),
(749,1335,o),
(845,1312,o),
(914,1282,o),
(960,1250,o),
(971,1241,q),
(999,1220,o),
(1017,1208,o),
(1024,1208,q),
(1041,1208,o),
(1048,1236,o),
(1059,1291,q),
(1061,1303,o),
(1063,1316,o),
(1063,1322,q)
);
}
);
width = 1381;
}
);
unicode = 83;
},
{
glyphname = T;
layers = (
{
layerId = "099ACB0D-E961-4620-9891-F06BAF5780F3";
shapes = (
{
closed = 1;
nodes = (
(1282,753,l),
(1171,738,l),
(1140,1188,l),
(749,1188,l),
(749,108,l),
(1026,108,l),
(1026,0,l),
(354,0,l),
(354,108,l),
(633,108,l),
(633,1188,l),
(242,1188,l),
(209,738,l),
(99,753,l),
(138,1296,l),
(1243,1296,l)
);
}
);
width = 1381;
}
);
unicode = 84;
},
{
glyphname = U;
layers = (
{
layerId = "099ACB0D-E961-4620-9891-F06BAF5780F3";
shapes = (
{
closed = 1;
nodes = (
(571,1188,l),
(336,1188,l),
(336,538,l),
(336,468,o),
(347,306,o),
(380,239,q),
(413,171,o),
(555,76,o),
(688,76,q),
(824,76,o),
(969,156,o),
(1001,221,q),
(1036,283,o),
(1048,437,o),
(1048,516,q),
(1048,1188,l),
(813,1188,l),
(813,1296,l),
(1329,1296,l),
(1329,1188,l),
(1162,1188,l),
(1162,516,l),
(1162,428,o),
(1151,306,o),
(1128,217,o),
(1098,154,o),
(1080,129,q),
(1061,101,o),
(992,44,o),
(894,-7,o),
(767,-39,o),
(690,-39,q),
(650,-39,o),
(545,-26,o),
(439,16,o),
(338,85,o),
(299,141,q),
(270,182,o),
(237,288,o),
(224,396,o),
(221,499,o),
(221,538,q),
(221,1188,l),
(55,1188,l),
(55,1296,l),
(571,1296,l)
);
}
);
width = 1381;
}
);
unicode = 85;
},
{
glyphname = V;
layers = (
{
layerId = "099ACB0D-E961-4620-9891-F06BAF5780F3";
shapes = (
{
closed = 1;
nodes = (
(507,1188,l),
(290,1188,l),
(698,129,l),
(1112,1188,l),
(877,1188,l),
(877,1296,l),
(1368,1296,l),
(1368,1188,l),
(1222,1188,l),
(767,0,l),
(624,0,l),
(173,1188,l),
(13,1188,l),
(13,1296,l),
(507,1296,l)
);
}
);
width = 1381;
}
);
unicode = 86;
},
{
glyphname = W;
layers = (
{
layerId = "099ACB0D-E961-4620-9891-F06BAF5780F3";
shapes = (
{
closed = 1;
nodes = (
(459,1188,l),
(226,1188,l),
(354,221,l),
(359,221,l),
(656,1059,l),
(734,1059,l),
(1024,221,l),
(1028,221,l),
(1162,1188,l),
(927,1188,l),
(927,1296,l),
(1377,1296,l),
(1377,1188,l),
(1270,1188,l),
(1098,0,l),
(982,0,l),
(690,837,l),
(686,837,l),
(389,0,l),
(274,0,l),
(112,1188,l),
(4,1188,l),
(4,1296,l),
(459,1296,l)
);
}
);
width = 1381;
}
);
unicode = 87;
},
{
glyphname = X;
layers = (
{
layerId = "099ACB0D-E961-4620-9891-F06BAF5780F3";
shapes = (
{
closed = 1;
nodes = (
(566,1188,l),
(378,1188,l),
(692,767,l),
(1015,1188,l),
(841,1188,l),
(841,1296,l),
(1261,1296,l),
(1261,1188,l),
(1144,1188,l),
(758,681,l),
(1186,108,l),
(1305,108,l),
(1305,0,l),
(841,0,l),
(841,108,l),
(1048,108,l),
(692,596,l),
(323,108,l),
(566,108,l),
(566,0,l),
(76,0,l),
(76,108,l),
(193,108,l),
(628,681,l),
(242,1188,l),
(119,1188,l),
(119,1296,l),
(566,1296,l)
);
}
);
width = 1381;
}
);
unicode = 88;
},
{
glyphname = Y;
layers = (
{
layerId = "099ACB0D-E961-4620-9891-F06BAF5780F3";
shapes = (
{
closed = 1;
nodes = (
(525,1188,l),
(350,1188,l),
(698,617,l),
(1041,1188,l),
(861,1188,l),
(861,1296,l),
(1307,1296,l),
(1307,1188,l),
(1162,1188,l),
(751,501,l),
(751,108,l),
(1022,108,l),
(1022,0,l),
(362,0,l),
(362,108,l),
(635,108,l),
(635,501,l),
(219,1188,l),
(74,1188,l),
(74,1296,l),
(525,1296,l)
);
}
);
width = 1381;
}
);
unicode = 89;
},
{
glyphname = Z;
layers = (
{
layerId = "099ACB0D-E961-4620-9891-F06BAF5780F3";
shapes = (
{
closed = 1;
nodes = (
(1135,1202,l),
(332,108,l),
(1080,108,l),
(1080,481,l),
(1188,481,l),
(1188,0,l),
(193,0,l),
(193,108,l),
(988,1188,l),
(318,1188,l),
(318,852,l),
(209,852,l),
(209,1296,l),
(1135,1296,l)
);
}
);
width = 1381;
}
);
unicode = 90;
},
{
glyphname = bracketleft;
layers = (
{
layerId = "099ACB0D-E961-4620-9891-F06BAF5780F3";
shapes = (
{
closed = 1;
nodes = (
(1116,1390,l),
(826,1390,l),
(826,-101,l),
(1116,-101,l),
(1116,-217,l),
(711,-217,l),
(711,1505,l),
(1116,1505,l)
);
}
);
width = 1381;
}
);
unicode = 91;
},
{
glyphname = backslash;
layers = (
{
layerId = "099ACB0D-E961-4620-9891-F06BAF5780F3";
shapes = (
{
closed = 1;
nodes = (
(1077,-320,l),
(214,1579,l),
(314,1623,l),
(1177,-274,l)
);
}
);
width = 1381;
}
);
unicode = 92;
},
{
glyphname = bracketright;
layers = (
{
layerId = "099ACB0D-E961-4620-9891-F06BAF5780F3";
shapes = (
{
closed = 1;
nodes = (
(265,-101,l),
(555,-101,l),
(555,1390,l),
(265,1390,l),
(265,1505,l),
(670,1505,l),
(670,-217,l),
(265,-217,l)
);
}
);
width = 1381;
}
);
unicode = 93;
},
{
glyphname = asciicircum;
layers = (
{
layerId = "099ACB0D-E961-4620-9891-F06BAF5780F3";
shapes = (
{
closed = 1;
nodes = (
(169,354,l),
(606,1296,l),
(776,1296,l),
(1213,354,l),
(1066,354,l),
(690,1158,l),
(316,354,l)
);
}
);
width = 1381;
}
);
unicode = 94;
},
{
glyphname = underscore;
layers = (
{
layerId = "099ACB0D-E961-4620-9891-F06BAF5780F3";
shapes = (
{
closed = 1;
nodes = (
(1492,-288,l),
(-110,-288,l),
(-110,-173,l),
(1492,-173,l)
);
}
);
width = 1381;
}
);
unicode = 95;
},
{
glyphname = grave;
layers = (
{
layerId = "099ACB0D-E961-4620-9891-F06BAF5780F3";
shapes = (
{
closed = 1;
nodes = (
(861,1158,l),
(741,1158,l),
(437,1423,l),
(683,1423,l)
);
}
);
width = 1381;
}
);
unicode = 96;
},
{
glyphname = a;
layers = (
{
layerId = "099ACB0D-E961-4620-9891-F06BAF5780F3";
shapes = (
{
closed = 1;
nodes = (
(1266,108,l),
(1266,0,l),
(946,0,l),
(946,165,l),
(912,134,o),
(817,62,o),
(707,4,o),
(578,-33,o),
(507,-33,q),
(419,-33,o),
(283,26,o),
(187,117,o),
(136,233,o),
(136,292,q),
(136,338,o),
(182,459,o),
(292,566,o),
(481,640,o),
(624,640,q),
(631,640,o),
(695,637,o),
(785,631,o),
(894,619,o),
(946,610,q),
(946,681,l),
(946,709,o),
(937,792,o),
(886,870,o),
(771,925,o),
(668,925,q),
(606,925,o),
(413,889,o),
(274,828,q),
(230,932,l),
(303,964,o),
(532,1036,o),
(670,1036,q),
(817,1036,o),
(976,951,o),
(1050,833,o),
(1061,716,o),
(1061,681,q),
(1061,108,l)
);
},
{
closed = 1;
nodes = (
(946,505,l),
(907,511,o),
(744,529,o),
(646,529,q),
(505,529,o),
(347,463,o),
(274,378,o),
(260,299,o),
(260,290,q),
(260,246,o),
(299,171,o),
(369,112,o),
(456,79,o),
(505,79,q),
(532,79,o),
(622,92,o),
(736,141,o),
(872,237,o),
(946,320,q)
);
}
);
width = 1381;
}
);
unicode = 97;
},
{
glyphname = b;
layers = (
{
layerId = "099ACB0D-E961-4620-9891-F06BAF5780F3";
shapes = (
{
closed = 1;
nodes = (
(338,797,l),
(343,797,l),
(415,894,o),
(610,999,o),
(736,999,q),
(843,999,o),
(1032,918,o),
(1171,780,o),
(1252,591,o),
(1252,486,q),
(1252,389,o),
(1179,207,o),
(1045,64,o),
(859,-22,o),
(746,-22,q),
(652,-22,o),
(518,22,o),
(422,85,o),
(359,154,o),
(338,178,q),
(338,0,l),
(39,0,l),
(39,108,l),
(224,108,l),
(224,1331,l),
(11,1320,l),
(11,1427,l),
(338,1448,l)
);
},
{
closed = 1;
nodes = (
(341,410,o),
(402,265,o),
(509,156,o),
(656,92,o),
(744,92,q),
(828,92,o),
(971,156,o),
(1072,268,o),
(1128,410,o),
(1128,488,q),
(1128,566,o),
(1070,711,o),
(967,819,o),
(824,883,o),
(741,883,q),
(656,883,o),
(511,819,o),
(402,711,o),
(341,569,o),
(341,490,q)
);
}
);
width = 1381;
}
);
unicode = 98;
},
{
glyphname = c;
layers = (
{
layerId = "099ACB0D-E961-4620-9891-F06BAF5780F3";
shapes = (
{
closed = 1;
nodes = (
(1204,1008,l),
(1199,973,o),
(1184,856,o),
(1184,797,q),
(1184,734,o),
(1190,644,q),
(1085,628,l),
(1075,668,l),
(1068,690,o),
(1041,773,o),
(969,852,o),
(835,909,o),
(725,909,q),
(615,909,o),
(448,837,o),
(341,720,o),
(288,573,o),
(288,499,q),
(288,428,o),
(336,281,o),
(439,158,o),
(601,83,o),
(716,83,q),
(841,83,o),
(1077,191,o),
(1204,279,q),
(1263,191,l),
(1227,163,o),
(1114,88,o),
(971,16,o),
(801,-33,o),
(705,-33,q),
(582,-33,o),
(384,51,o),
(242,196,o),
(163,387,o),
(163,497,q),
(163,589,o),
(230,778,o),
(366,930,o),
(573,1024,o),
(714,1024,q),
(780,1024,o),
(949,986,o),
(1052,903,q),
(1059,896,o),
(1061,896,q),
(1070,896,o),
(1082,934,o),
(1085,946,q),
(1089,976,o),
(1098,1019,q)
);
}
);
width = 1381;
}
);
unicode = 99;
},
{
glyphname = d;
layers = (
{
layerId = "099ACB0D-E961-4620-9891-F06BAF5780F3";
shapes = (
{
closed = 1;
nodes = (
(1142,108,l),
(1338,108,l),
(1338,0,l),
(1026,0,l),
(1026,171,l),
(1022,171,l),
(969,97,o),
(847,18,o),
(734,-18,o),
(650,-22,o),
(633,-22,q),
(525,-22,o),
(338,60,o),
(200,198,o),
(123,384,o),
(123,488,q),
(123,606,o),
(209,795,o),
(354,927,o),
(534,999,o),
(628,999,q),
(738,999,o),
(958,898,o),
(1022,801,q),
(1026,801,l),
(1026,1320,l),
(656,1296,l),
(650,1399,l),
(1142,1443,l)
);
},
{
closed = 1;
nodes = (
(1022,553,o),
(971,692,o),
(874,810,o),
(729,883,o),
(633,883,q),
(558,883,o),
(417,828,o),
(310,725,o),
(246,580,o),
(246,490,q),
(246,402,o),
(308,255,o),
(415,149,o),
(555,92,o),
(633,92,q),
(711,92,o),
(852,152,o),
(960,255,o),
(1022,398,o),
(1022,483,q)
);
}
);
width = 1381;
}
);
unicode = 100;
},
{
glyphname = e;
layers = (
{
layerId = "099ACB0D-E961-4620-9891-F06BAF5780F3";
shapes = (
{
closed = 1;
nodes = (
(1287,132,l),
(1241,106,o),
(1116,48,o),
(971,0,o),
(810,-33,o),
(729,-33,q),
(589,-33,o),
(380,55,o),
(239,200,o),
(171,391,o),
(171,492,q),
(171,598,o),
(246,792,o),
(387,940,o),
(589,1024,o),
(716,1024,q),
(847,1024,o),
(1043,942,o),
(1173,808,o),
(1239,644,o),
(1239,566,q),
(1239,538,o),
(1234,474,o),
(1234,463,q),
(294,463,l),
(297,417,o),
(334,285,o),
(430,165,o),
(598,79,o),
(732,79,q),
(804,79,o),
(953,112,o),
(1087,161,o),
(1197,214,o),
(1234,233,q)
);
},
{
closed = 1;
nodes = (
(1114,571,l),
(1114,626,o),
(1066,749,o),
(969,850,o),
(819,914,o),
(716,914,q),
(601,914,o),
(446,835,o),
(350,727,o),
(301,610,o),
(294,571,q)
);
}
);
width = 1381;
}
);
unicode = 101;
},
{
glyphname = f;
layers = (
{
layerId = "099ACB0D-E961-4620-9891-F06BAF5780F3";
shapes = (
{
closed = 1;
nodes = (
(463,1091,l),
(463,1162,o),
(483,1289,o),
(555,1384,o),
(700,1439,o),
(824,1439,q),
(921,1439,o),
(1091,1416,o),
(1164,1402,q),
(1116,1287,l),
(1041,1305,o),
(868,1324,o),
(795,1324,q),
(714,1324,o),
(626,1285,o),
(584,1217,o),
(578,1131,o),
(578,1085,q),
(578,962,l),
(1068,962,l),
(1068,854,l),
(578,854,l),
(578,108,l),
(1068,108,l),
(1068,0,l),
(224,0,l),
(224,108,l),
(463,108,l),
(463,854,l),
(224,854,l),
(224,962,l),
(463,962,l)
);
}
);
width = 1381;
}
);
unicode = 102;
},
{
glyphname = g;
layers = (
{
layerId = "099ACB0D-E961-4620-9891-F06BAF5780F3";
shapes = (
{
closed = 1;
nodes = (
(1273,881,l),
(1087,881,l),
(1087,69,l),
(1087,-37,o),
(1039,-198,o),
(916,-306,o),
(714,-362,o),
(560,-362,q),
(415,-362,l),
(415,-253,l),
(560,-253,o),
(769,-242,o),
(905,-180,o),
(971,-48,o),
(971,69,q),
(971,202,l),
(967,202,l),
(955,184,o),
(896,125,o),
(804,64,o),
(677,22,o),
(601,22,q),
(495,22,o),
(316,101,o),
(184,237,o),
(108,415,o),
(108,511,q),
(108,617,o),
(191,797,o),
(327,925,o),
(505,999,o),
(601,999,q),
(610,999,o),
(690,995,o),
(799,960,o),
(918,889,o),
(967,822,q),
(971,822,l),
(971,990,l),
(1273,990,l)
);
},
{
closed = 1;
nodes = (
(971,591,o),
(912,732,o),
(810,831,o),
(677,883,o),
(606,883,q),
(532,883,o),
(398,828,o),
(294,732,o),
(233,596,o),
(233,514,q),
(233,433,o),
(292,297,o),
(393,196,o),
(529,138,o),
(606,138,q),
(686,138,o),
(822,200,o),
(918,301,o),
(971,435,o),
(971,507,q)
);
}
);
width = 1381;
}
);
unicode = 103;
},
{
glyphname = h;
layers = (
{
layerId = "099ACB0D-E961-4620-9891-F06BAF5780F3";
shapes = (
{
closed = 1;
nodes = (
(396,861,l),
(433,889,o),
(520,946,o),
(617,995,o),
(727,1024,o),
(789,1024,q),
(868,1024,o),
(995,969,o),
(1085,868,o),
(1131,727,o),
(1131,644,q),
(1131,108,l),
(1324,108,l),
(1324,0,l),
(819,0,l),
(819,108,l),
(1015,108,l),
(1015,635,l),
(1015,760,o),
(898,909,o),
(795,909,q),
(738,909,o),
(633,877,o),
(529,824,o),
(437,760,o),
(396,725,q),
(396,108,l),
(578,108,l),
(578,0,l),
(88,0,l),
(88,108,l),
(281,108,l),
(281,1331,l),
(66,1312,l),
(57,1421,l),
(396,1448,l)
);
}
);
width = 1381;
}
);
unicode = 104;
},
{
glyphname = i;
layers = (
{
layerId = "099ACB0D-E961-4620-9891-F06BAF5780F3";
shapes = (
{
closed = 1;
nodes = (
(753,108,l),
(1151,108,l),
(1151,0,l),
(233,0,l),
(233,108,l),
(637,108,l),
(637,881,l),
(299,881,l),
(299,990,l),
(753,990,l)
);
},
{
closed = 1;
nodes = (
(753,1510,l),
(753,1236,l),
(587,1236,l),
(587,1510,l)
);
}
);
width = 1381;
}
);
unicode = 105;
},
{
glyphname = j;
layers = (
{
layerId = "099ACB0D-E961-4620-9891-F06BAF5780F3";
shapes = (
{
closed = 1;
nodes = (
(898,92,l),
(898,46,o),
(883,-103,o),
(804,-244,o),
(628,-347,o),
(468,-347,q),
(375,-347,o),
(224,-323,o),
(156,-308,q),
(182,-198,l),
(228,-209,o),
(387,-233,o),
(474,-233,q),
(589,-233,o),
(716,-163,o),
(773,-60,o),
(782,60,o),
(782,108,q),
(782,881,l),
(196,881,l),
(196,990,l),
(898,990,l)
);
},
{
closed = 1;
nodes = (
(852,1510,l),
(852,1236,l),
(686,1236,l),
(686,1510,l)
);
}
);
width = 1381;
}
);
unicode = 106;
},
{
glyphname = k;
layers = (
{
layerId = "099ACB0D-E961-4620-9891-F06BAF5780F3";
shapes = (
{
closed = 1;
nodes = (
(426,550,l),
(856,877,l),
(856,881,l),
(727,881,l),
(727,990,l),
(1208,990,l),
(1208,881,l),
(1028,881,l),
(642,584,l),
(711,523,o),
(850,387,o),
(971,260,o),
(1070,147,o),
(1103,108,q),
(1296,108,l),
(1296,0,l),
(817,0,l),
(817,108,l),
(964,108,l),
(930,149,o),
(856,230,o),
(760,325,o),
(637,442,o),
(555,520,q),
(426,422,l),
(426,0,l),
(119,0,l),
(119,108,l),
(310,108,l),
(310,1329,l),
(92,1309,l),
(83,1418,l),
(426,1448,l)
);
}
);
width = 1381;
}
);
unicode = 107;
},
{
glyphname = l;
layers = (
{
layerId = "099ACB0D-E961-4620-9891-F06BAF5780F3";
shapes = (
{
closed = 1;
nodes = (
(749,108,l),
(1149,108,l),
(1149,0,l),
(233,0,l),
(233,108,l),
(633,108,l),
(633,1296,l),
(257,1268,l),
(246,1375,l),
(749,1406,l)
);
}
);
width = 1381;
}
);
unicode = 108;
},
{
glyphname = m;
layers = (
{
layerId = "099ACB0D-E961-4620-9891-F06BAF5780F3";
shapes = (
{
closed = 1;
nodes = (
(262,909,l),
(292,934,l),
(294,937,o),
(327,962,o),
(378,992,o),
(448,1015,o),
(490,1015,q),
(564,1015,o),
(688,940,o),
(720,870,q),
(771,930,o),
(903,1015,o),
(982,1015,q),
(1043,1015,o),
(1158,962,o),
(1188,916,q),
(1204,891,o),
(1227,843,o),
(1241,780,o),
(1248,690,o),
(1248,626,q),
(1248,108,l),
(1379,108,l),
(1379,0,l),
(1133,0,l),
(1133,626,l),
(1133,674,o),
(1128,771,o),
(1100,852,o),
(1041,900,o),
(986,900,q),
(937,900,o),
(824,837,o),
(760,749,q),
(760,108,l),
(903,108,l),
(903,0,l),
(644,0,l),
(644,635,l),
(644,672,o),
(640,767,o),
(613,845,o),
(550,900,o),
(492,900,q),
(451,900,o),
(382,872,o),
(327,833,o),
(285,789,o),
(272,771,q),
(272,108,l),
(428,108,l),
(428,0,l),
(0,0,l),
(0,108,l),
(156,108,l),
(156,881,l),
(0,881,l),
(0,990,l),
(262,990,l)
);
}
);
width = 1381;
}
);
unicode = 109;
},
{
glyphname = n;
layers = (
{
layerId = "099ACB0D-E961-4620-9891-F06BAF5780F3";
shapes = (
{
closed = 1;
nodes = (
(382,861,l),
(419,889,o),
(507,946,o),
(606,995,o),
(716,1024,o),
(778,1024,q),
(856,1024,o),
(982,969,o),
(1072,868,o),
(1121,727,o),
(1121,644,q),
(1121,108,l),
(1305,108,l),
(1305,0,l),
(808,0,l),
(808,108,l),
(1006,108,l),
(1006,635,l),
(1006,762,o),
(883,909,o),
(780,909,q),
(753,909,o),
(679,898,o),
(582,859,o),
(461,787,o),
(382,725,q),
(382,108,l),
(575,108,l),
(575,0,l),
(79,0,l),
(79,108,l),
(268,108,l),
(268,881,l),
(79,881,l),
(79,990,l),
(382,990,l)
);
}
);
width = 1381;
}
);
unicode = 110;
},
{
glyphname = o;
layers = (
{
layerId = "099ACB0D-E961-4620-9891-F06BAF5780F3";
shapes = (
{
closed = 1;
nodes = (
(119,606,o),
(193,799,o),
(336,946,o),
(550,1036,o),
(690,1036,q),
(835,1036,o),
(1050,944,o),
(1190,792,o),
(1261,601,o),
(1261,501,q),
(1261,402,o),
(1190,211,o),
(1050,60,o),
(835,-33,o),
(690,-33,q),
(550,-33,o),
(336,57,o),
(193,207,o),
(119,398,o),
(119,501,q)
);
},
{
closed = 1;
nodes = (
(244,422,o),
(301,270,o),
(415,152,o),
(582,83,o),
(690,83,q),
(801,83,o),
(969,154,o),
(1080,272,o),
(1137,422,o),
(1137,501,q),
(1137,580,o),
(1080,732,o),
(969,850,o),
(801,921,o),
(690,921,q),
(582,921,o),
(417,852,o),
(301,734,o),
(244,584,o),
(244,501,q)
);
}
);
width = 1381;
}
);
unicode = 111;
},
{
glyphname = p;
layers = (
{
layerId = "099ACB0D-E961-4620-9891-F06BAF5780F3";
shapes = (
{
closed = 1;
nodes = (
(347,826,l),
(352,826,l),
(366,847,o),
(424,912,o),
(520,973,o),
(656,1019,o),
(749,1019,q),
(865,1019,o),
(1054,932,o),
(1190,787,o),
(1261,604,o),
(1261,505,q),
(1261,389,o),
(1171,198,o),
(1028,60,o),
(845,-16,o),
(753,-16,q),
(738,-16,o),
(656,-9,o),
(541,28,o),
(413,108,o),
(352,182,q),
(347,182,l),
(347,-253,l),
(690,-253,l),
(690,-362,l),
(44,-362,l),
(44,-253,l),
(233,-253,l),
(233,881,l),
(44,881,l),
(44,990,l),
(347,990,l)
);
},
{
closed = 1;
nodes = (
(338,410,o),
(417,255,o),
(536,152,o),
(681,99,o),
(749,99,q),
(826,99,o),
(967,161,o),
(1072,270,o),
(1137,419,o),
(1137,507,q),
(1137,578,o),
(1089,720,o),
(992,833,o),
(847,905,o),
(751,905,q),
(661,905,o),
(509,841,o),
(400,734,o),
(338,589,o),
(338,511,q)
);
}
);
width = 1381;
}
);
unicode = 112;
},
{
glyphname = q;
layers = (
{
layerId = "099ACB0D-E961-4620-9891-F06BAF5780F3";
shapes = (
{
closed = 1;
nodes = (
(1149,881,l),
(1149,-253,l),
(1338,-253,l),
(1338,-362,l),
(690,-362,l),
(690,-253,l),
(1034,-253,l),
(1034,182,l),
(1028,182,l),
(969,108,o),
(841,28,o),
(725,-9,o),
(642,-16,o),
(628,-16,q),
(534,-16,o),
(352,60,o),
(209,198,o),
(119,389,o),
(119,505,q),
(119,604,o),
(191,787,o),
(327,932,o),
(516,1019,o),
(633,1019,q),
(725,1019,o),
(861,973,o),
(958,912,o),
(1015,847,o),
(1028,826,q),
(1034,826,l),
(1034,990,l),
(1338,990,l),
(1338,881,l)
);
},
{
closed = 1;
nodes = (
(1043,589,o),
(980,734,o),
(872,841,o),
(720,905,o),
(631,905,q),
(534,905,o),
(389,833,o),
(292,720,o),
(244,578,o),
(244,507,q),
(244,419,o),
(306,270,o),
(415,161,o),
(555,99,o),
(633,99,q),
(700,99,o),
(845,152,o),
(964,255,o),
(1043,410,o),
(1043,511,q)
);
}
);
width = 1381;
}
);
unicode = 113;
},
{
glyphname = r;
layers = (
{
layerId = "099ACB0D-E961-4620-9891-F06BAF5780F3";
shapes = (
{
closed = 1;
nodes = (
(573,760,l),
(613,799,o),
(709,891,o),
(826,969,o),
(967,1022,o),
(1050,1022,q),
(1103,1022,o),
(1184,999,o),
(1245,962,o),
(1289,918,o),
(1307,896,q),
(1186,806,l),
(1184,808,o),
(1177,817,o),
(1177,822,q),
(1167,835,o),
(1146,865,o),
(1114,891,o),
(1066,907,o),
(1032,907,q),
(955,907,o),
(815,841,o),
(698,746,o),
(604,644,o),
(573,613,q),
(573,108,l),
(1010,108,l),
(1010,0,l),
(173,0,l),
(173,108,l),
(459,108,l),
(459,881,l),
(191,881,l),
(191,990,l),
(573,990,l)
);
}
);
width = 1381;
}
);
unicode = 114;
},
{
glyphname = s;
layers = (
{
layerId = "099ACB0D-E961-4620-9891-F06BAF5780F3";
shapes = (
{
closed = 1;
nodes = (
(1109,1019,l),
(1103,982,o),
(1089,889,o),
(1089,822,q),
(1089,773,o),
(1096,707,o),
(1100,677,q),
(999,665,l),
(992,700,o),
(967,782,o),
(896,854,o),
(758,905,o),
(637,905,q),
(499,905,o),
(352,806,o),
(352,734,q),
(352,672,o),
(424,601,o),
(553,562,o),
(725,547,o),
(826,543,q),
(847,543,o),
(955,529,o),
(1070,479,o),
(1160,375,o),
(1160,285,q),
(1160,202,o),
(1080,81,o),
(951,2,o),
(797,-35,o),
(720,-35,q),
(659,-35,o),
(553,-13,o),
(465,18,o),
(402,51,o),
(382,62,q),
(382,62,o),
(378,64,q),
(375,66,o),
(371,66,q),
(354,66,o),
(336,9,o),
(325,-30,q),
(224,-30,l),
(228,0,o),
(237,57,o),
(237,115,q),
(237,189,o),
(228,303,o),
(224,343,q),
(325,354,l),
(329,325,o),
(356,233,o),
(433,145,o),
(575,81,o),
(695,81,q),
(729,81,o),
(845,94,o),
(955,136,o),
(1036,214,o),
(1036,281,q),
(1036,332,o),
(988,391,o),
(900,422,o),
(778,430,o),
(707,433,q),
(661,435,o),
(499,451,o),
(343,509,o),
(228,626,o),
(228,729,q),
(228,792,o),
(288,898,o),
(393,976,o),
(545,1019,o),
(635,1019,q),
(738,1019,o),
(868,971,o),
(900,953,q),
(905,949,o),
(937,932,o),
(951,932,q),
(969,932,o),
(988,976,o),
(992,988,q),
(997,1010,o),
(1001,1024,o),
(1006,1036,q)
);
}
);
width = 1381;
}
);
unicode = 115;
},
{
glyphname = t;
layers = (
{
layerId = "099ACB0D-E961-4620-9891-F06BAF5780F3";
shapes = (
{
closed = 1;
nodes = (
(514,958,l),
(1070,958,l),
(1070,850,l),
(514,850,l),
(514,415,l),
(514,350,o),
(520,230,o),
(564,138,o),
(663,83,o),
(753,83,q),
(780,83,o),
(852,90,o),
(953,112,o),
(1096,161,o),
(1197,202,q),
(1239,99,l),
(1128,48,o),
(877,-33,o),
(764,-33,q),
(654,-33,o),
(516,35,o),
(479,71,q),
(419,132,o),
(398,299,o),
(398,415,q),
(398,850,l),
(242,850,l),
(242,958,l),
(398,958,l),
(398,1296,l),
(514,1296,l)
);
}
);
width = 1381;
}
);
unicode = 116;
},
{
glyphname = u;
layers = (
{
layerId = "099ACB0D-E961-4620-9891-F06BAF5780F3";
shapes = (
{
closed = 1;
nodes = (
(378,380,l),
(378,356,o),
(384,257,o),
(428,158,o),
(520,83,o),
(608,83,q),
(705,83,o),
(881,180,o),
(978,283,q),
(978,881,l),
(780,881,l),
(780,990,l),
(1094,990,l),
(1094,108,l),
(1280,108,l),
(1280,0,l),
(978,0,l),
(978,127,l),
(953,106,o),
(883,51,o),
(795,2,o),
(683,-33,o),
(617,-33,q),
(509,-33,o),
(371,46,o),
(292,165,o),
(262,310,o),
(262,380,q),
(262,881,l),
(74,881,l),
(74,990,l),
(378,990,l)
);
}
);
width = 1381;
}
);
unicode = 117;
},
{
glyphname = v;
layers = (
{
layerId = "099ACB0D-E961-4620-9891-F06BAF5780F3";
shapes = (
{
closed = 1;
nodes = (
(538,881,l),
(352,881,l),
(698,134,l),
(1048,881,l),
(865,881,l),
(865,990,l),
(1333,990,l),
(1333,881,l),
(1162,881,l),
(746,0,l),
(637,0,l),
(219,881,l),
(48,881,l),
(48,990,l),
(538,990,l)
);
}
);
width = 1381;
}
);
unicode = 118;
},
{
glyphname = w;
layers = (
{
layerId = "099ACB0D-E961-4620-9891-F06BAF5780F3";
shapes = (
{
closed = 1;
nodes = (
(417,881,l),
(226,881,l),
(428,184,l),
(433,184,l),
(659,810,l),
(738,810,l),
(967,175,l),
(971,175,l),
(1179,881,l),
(986,881,l),
(986,990,l),
(1377,990,l),
(1377,881,l),
(1287,881,l),
(1028,0,l),
(909,0,l),
(690,593,l),
(477,0,l),
(364,0,l),
(103,881,l),
(4,881,l),
(4,990,l),
(417,990,l)
);
}
);
width = 1381;
}
);
unicode = 119;
},
{
glyphname = x;
layers = (
{
layerId = "099ACB0D-E961-4620-9891-F06BAF5780F3";
shapes = (
{
closed = 1;
nodes = (
(538,881,l),
(398,881,l),
(686,593,l),
(973,881,l),
(841,881,l),
(841,990,l),
(1263,990,l),
(1263,881,l),
(1123,881,l),
(762,518,l),
(1177,108,l),
(1322,108,l),
(1322,0,l),
(854,0,l),
(854,108,l),
(1017,108,l),
(686,444,l),
(352,108,l),
(514,108,l),
(514,0,l),
(60,0,l),
(60,108,l),
(202,108,l),
(608,518,l),
(242,881,l),
(94,881,l),
(94,990,l),
(538,990,l)
);
}
);
width = 1381;
}
);
unicode = 120;
},
{
glyphname = y;
layers = (
{
layerId = "099ACB0D-E961-4620-9891-F06BAF5780F3";
shapes = (
{
closed = 1;
nodes = (
(486,881,l),
(327,881,l),
(690,182,l),
(1091,881,l),
(934,881,l),
(934,990,l),
(1356,990,l),
(1356,881,l),
(1222,881,l),
(578,-244,l),
(782,-244,l),
(782,-352,l),
(92,-352,l),
(92,-244,l),
(446,-244,l),
(624,62,l),
(196,881,l),
(55,881,l),
(55,990,l),
(486,990,l)
);
}
);
width = 1381;
}
);
unicode = 121;
},
{
glyphname = z;
layers = (
{
layerId = "099ACB0D-E961-4620-9891-F06BAF5780F3";
shapes = (
{
closed = 1;
nodes = (
(1142,891,l),
(396,108,l),
(1034,108,l),
(1034,320,l),
(1142,320,l),
(1142,0,l),
(239,0,l),
(239,108,l),
(978,881,l),
(371,881,l),
(371,677,l),
(262,677,l),
(262,990,l),
(1142,990,l)
);
}
);
width = 1381;
}
);
unicode = 122;
},
{
glyphname = braceleft;
layers = (
{
layerId = "099ACB0D-E961-4620-9891-F06BAF5780F3";
shapes = (
{
closed = 1;
nodes = (
(1061,1390,l),
(1019,1390,o),
(927,1384,o),
(852,1349,o),
(801,1280,o),
(801,1217,q),
(801,1181,o),
(810,1105,o),
(828,1032,q),
(847,951,l),
(850,940,o),
(859,877,o),
(859,850,q),
(859,808,o),
(835,744,o),
(799,695,o),
(753,656,o),
(732,640,q),
(753,624,o),
(797,587,o),
(835,538,o),
(859,474,o),
(859,433,q),
(859,405,o),
(850,343,o),
(847,332,q),
(828,251,l),
(810,178,o),
(801,101,o),
(801,62,q),
(801,0,o),
(854,-69,o),
(934,-101,o),
(1024,-108,o),
(1061,-108,q),
(1061,-219,l),
(969,-219,l),
(932,-219,o),
(872,-200,q),
(780,-171,o),
(681,-26,o),
(681,66,q),
(681,83,o),
(686,143,o),
(695,182,q),
(695,196,o),
(711,262,o),
(716,277,q),
(723,314,o),
(736,398,o),
(736,437,q),
(736,483,o),
(688,538,o),
(624,569,o),
(558,580,o),
(541,582,q),
(541,700,l),
(628,709,o),
(736,778,o),
(736,850,q),
(736,870,o),
(732,916,o),
(725,962,o),
(718,997,o),
(716,1006,q),
(707,1054,o),
(692,1114,o),
(686,1155,o),
(681,1188,o),
(681,1208,q),
(681,1324,o),
(782,1443,o),
(914,1496,o),
(1039,1501,o),
(1061,1501,q)
);
}
);
width = 1381;
}
);
unicode = 123;
},
{
glyphname = bar;
layers = (
{
layerId = "099ACB0D-E961-4620-9891-F06BAF5780F3";
shapes = (
{
closed = 1;
nodes = (
(631,-426,l),
(631,1549,l),
(753,1549,l),
(753,-426,l)
);
}
);
width = 1381;
}
);
unicode = 124;
},
{
glyphname = braceright;
layers = (
{
layerId = "099ACB0D-E961-4620-9891-F06BAF5780F3";
shapes = (
{
closed = 1;
nodes = (
(320,-108,l),
(362,-108,o),
(453,-101,o),
(529,-66,o),
(580,2,o),
(580,64,q),
(580,101,o),
(571,178,o),
(553,251,q),
(534,332,l),
(532,343,o),
(523,405,o),
(523,433,q),
(523,474,o),
(545,538,o),
(582,587,o),
(628,626,o),
(650,642,q),
(608,672,o),
(523,767,o),
(523,850,q),
(523,877,o),
(532,940,o),
(534,951,q),
(553,1032,l),
(571,1105,o),
(580,1181,o),
(580,1220,q),
(580,1282,o),
(525,1351,o),
(446,1384,o),
(356,1390,o),
(320,1390,q),
(320,1501,l),
(410,1501,l),
(448,1501,o),
(509,1483,q),
(601,1452,o),
(700,1307,o),
(700,1215,q),
(700,1199,o),
(695,1140,o),
(686,1100,q),
(686,1087,o),
(670,1019,o),
(665,1006,q),
(659,969,o),
(644,883,o),
(644,845,q),
(644,799,o),
(692,744,o),
(758,714,o),
(822,703,o),
(841,700,q),
(841,582,l),
(753,573,o),
(644,505,o),
(644,433,q),
(644,413,o),
(650,366,o),
(656,320,o),
(663,285,o),
(665,277,q),
(674,228,o),
(688,169,o),
(695,127,o),
(700,94,o),
(700,74,q),
(700,-42,o),
(598,-163,o),
(468,-214,o),
(343,-219,o),
(320,-219,q)
);
}
);
width = 1381;
}
);
unicode = 125;
},
{
glyphname = asciitilde;
layers = (
{
layerId = "099ACB0D-E961-4620-9891-F06BAF5780F3";
shapes = (
{
closed = 1;
nodes = (
(1186,804,l),
(1171,778,o),
(1123,705,o),
(1052,635,o),
(960,584,o),
(903,584,q),
(894,584,o),
(868,587,o),
(822,598,o),
(746,624,o),
(686,650,q),
(631,672,o),
(566,700,o),
(525,714,o),
(495,718,o),
(479,718,q),
(410,718,o),
(323,610,o),
(274,527,q),
(198,617,l),
(221,656,o),
(274,738,o),
(341,806,o),
(424,850,o),
(479,850,q),
(529,850,o),
(631,815,o),
(720,776,q),
(767,758,o),
(826,734,o),
(863,720,o),
(889,716,o),
(900,716,q),
(914,716,o),
(955,725,o),
(1008,758,o),
(1066,817,o),
(1096,870,q),
(1096,874,o),
(1105,889,o),
(1107,891,q)
);
}
);
width = 1381;
}
);
unicode = 126;
},
{
glyphname = exclamdown;
layers = (
{
layerId = "099ACB0D-E961-4620-9891-F06BAF5780F3";
shapes = (
{
closed = 1;
nodes = (
(744,553,l),
(785,-318,l),
(593,-318,l),
(637,553,l)
);
},
{
closed = 1;
nodes = (
(622,753,o),
(532,835,o),
(532,896,q),
(532,955,o),
(624,1036,o),
(690,1036,q),
(758,1036,o),
(850,953,o),
(850,894,q),
(850,833,o),
(758,753,o),
(690,753,q)
);
}
);
width = 1381;
}
);
unicode = 161;
},
{
glyphname = cent;
layers = (
{
layerId = "099ACB0D-E961-4620-9891-F06BAF5780F3";
shapes = (
{
closed = 1;
nodes = (
(764,314,l),
(815,323,o),
(891,341,o),
(967,369,o),
(1054,415,o),
(1116,453,q),
(1171,359,l),
(1169,359,o),
(1160,352,o),
(1158,352,q),
(1103,316,o),
(1017,268,o),
(932,235,o),
(833,211,o),
(764,200,q),
(764,-132,l),
(652,-132,l),
(652,200,l),
(587,214,o),
(492,244,o),
(422,285,o),
(364,343,o),
(336,382,q),
(301,435,o),
(255,564,o),
(255,646,q),
(255,727,o),
(308,877,o),
(407,997,o),
(555,1080,o),
(652,1096,q),
(652,1408,l),
(764,1408,l),
(764,1096,l),
(819,1091,o),
(905,1063,o),
(962,1034,o),
(997,1004,o),
(1001,999,q),
(1006,997,o),
(1010,990,o),
(1015,990,q),
(1022,990,o),
(1028,1006,o),
(1036,1024,o),
(1036,1034,q),
(1039,1041,o),
(1039,1043,q),
(1041,1054,o),
(1043,1068,o),
(1043,1070,q),
(1151,1059,l),
(1144,1017,o),
(1131,918,o),
(1131,872,q),
(1131,850,o),
(1133,787,o),
(1137,734,q),
(1028,720,l),
(1028,741,o),
(1024,797,o),
(1006,854,o),
(971,912,o),
(942,932,q),
(896,964,o),
(795,990,o),
(764,990,q)
);
},
{
closed = 1;
nodes = (
(652,982,l),
(547,960,o),
(435,856,o),
(384,746,o),
(375,656,o),
(375,650,q),
(375,598,o),
(413,479,o),
(453,426,q),
(499,366,o),
(601,327,o),
(652,316,q)
);
}
);
width = 1381;
}
);
unicode = 162;
},
{
glyphname = sterling;
layers = (
{
layerId = "099ACB0D-E961-4620-9891-F06BAF5780F3";
shapes = (
{
closed = 1;
nodes = (
(430,780,l),
(396,872,o),
(371,978,o),
(371,1032,q),
(371,1112,o),
(437,1250,o),
(553,1351,o),
(700,1408,o),
(782,1408,q),
(870,1408,o),
(997,1372,o),
(1045,1353,q),
(1050,1351,o),
(1066,1347,o),
(1070,1347,q),
(1075,1347,o),
(1082,1353,o),
(1089,1370,q),
(1193,1370,l),
(1173,1305,o),
(1153,1195,o),
(1149,1112,q),
(1045,1100,l),
(1048,1128,o),
(1050,1167,o),
(1050,1177,q),
(1050,1190,o),
(1039,1230,o),
(1019,1241,q),
(995,1254,o),
(861,1296,o),
(787,1296,q),
(714,1296,o),
(598,1250,o),
(523,1173,o),
(483,1080,o),
(483,1034,q),
(483,1008,o),
(490,964,o),
(505,907,o),
(527,833,o),
(545,780,q),
(1105,780,l),
(1105,672,l),
(578,672,l),
(589,626,o),
(598,553,o),
(598,505,q),
(598,354,o),
(518,165,o),
(477,112,q),
(481,108,l),
(514,125,o),
(591,152,o),
(644,152,q),
(686,152,o),
(760,136,o),
(822,110,q),
(872,92,o),
(927,76,o),
(953,76,q),
(1008,76,o),
(1094,125,o),
(1149,171,q),
(1215,88,l),
(1199,71,o),
(1151,30,o),
(1089,-7,o),
(1008,-33,o),
(960,-33,q),
(927,-33,o),
(854,-18,o),
(799,2,q),
(734,26,o),
(670,44,o),
(633,44,q),
(587,44,o),
(470,9,o),
(373,-46,q),
(297,53,l),
(364,123,o),
(442,257,o),
(481,375,o),
(490,468,o),
(490,495,q),
(490,584,o),
(463,672,q),
(221,672,l),
(221,780,l)
);
}
);
width = 1381;
}
);
unicode = 163;
},
{
glyphname = currency;
layers = (
{
layerId = "099ACB0D-E961-4620-9891-F06BAF5780F3";
shapes = (
{
closed = 1;
nodes = (
(1128,141,l),
(942,325,l),
(870,268,o),
(727,239,o),
(690,239,q),
(677,239,o),
(624,244,o),
(558,260,o),
(479,294,o),
(439,325,q),
(253,141,l),
(173,219,l),
(362,402,l),
(301,490,o),
(281,615,o),
(281,633,q),
(281,744,o),
(336,863,o),
(362,898,q),
(173,1085,l),
(253,1160,l),
(439,976,l),
(511,1032,o),
(644,1061,o),
(690,1061,q),
(741,1061,o),
(822,1043,o),
(883,1015,o),
(927,986,o),
(942,976,q),
(1128,1160,l),
(1208,1085,l),
(1019,898,l),
(1077,817,o),
(1103,692,o),
(1103,668,q),
(1103,558,o),
(1043,435,o),
(1019,402,q),
(1208,219,l)
);
},
{
closed = 1;
nodes = (
(995,709,o),
(953,817,o),
(872,903,o),
(760,953,o),
(690,953,q),
(619,953,o),
(509,900,o),
(430,815,o),
(389,707,o),
(389,652,q),
(389,591,o),
(430,483,o),
(507,398,o),
(619,347,o),
(688,347,q),
(758,347,o),
(872,398,o),
(951,483,o),
(995,591,o),
(995,652,q)
);
}
);
width = 1381;
}
);
unicode = 164;
},
{
glyphname = yen;
layers = (
{
layerId = "099ACB0D-E961-4620-9891-F06BAF5780F3";
shapes = (
{
closed = 1;
nodes = (
(1026,108,l),
(1026,0,l),
(369,0,l),
(369,108,l),
(642,108,l),
(642,320,l),
(303,320,l),
(303,428,l),
(642,428,l),
(642,562,l),
(303,562,l),
(303,670,l),
(642,670,l),
(642,700,l),
(214,1257,l),
(74,1257,l),
(74,1365,l),
(527,1365,l),
(527,1257,l),
(352,1257,l),
(698,808,l),
(1036,1257,l),
(861,1257,l),
(861,1365,l),
(1307,1365,l),
(1307,1257,l),
(1169,1257,l),
(753,700,l),
(753,670,l),
(1085,670,l),
(1085,562,l),
(753,562,l),
(753,428,l),
(1085,428,l),
(1085,320,l),
(753,320,l),
(753,108,l)
);
}
);
width = 1381;
}
);
unicode = 165;
},
{
glyphname = brokenbar;
layers = (
{
layerId = "099ACB0D-E961-4620-9891-F06BAF5780F3";
shapes = (
{
closed = 1;
nodes = (
(631,690,l),
(631,1549,l),
(753,1549,l),
(753,690,l)
);
},
{
closed = 1;
nodes = (
(631,-426,l),
(631,433,l),
(753,433,l),
(753,-426,l)
);
}
);
width = 1381;
}
);
unicode = 166;
},
{
glyphname = section;
layers = (
{
layerId = "099ACB0D-E961-4620-9891-F06BAF5780F3";
shapes = (
{
closed = 1;
nodes = (
(971,990,l),
(971,1188,l),
(707,1188,l),
(688,1188,o),
(631,1184,o),
(575,1158,o),
(536,1105,o),
(536,1054,q),
(536,1008,o),
(587,942,o),
(619,916,q),
(937,672,l),
(978,640,o),
(1050,580,o),
(1100,518,o),
(1128,446,o),
(1128,402,q),
(1128,375,o),
(1109,306,o),
(1066,242,o),
(992,191,o),
(937,180,q),
(949,161,o),
(980,97,o),
(980,42,q),
(980,-76,o),
(810,-209,o),
(665,-209,q),
(301,-209,l),
(301,123,l),
(410,123,l),
(410,-101,l),
(679,-101,l),
(709,-101,o),
(776,-85,o),
(826,-53,o),
(861,0,o),
(861,39,q),
(861,71,o),
(828,134,o),
(767,180,q),
(459,417,l),
(384,474,o),
(285,582,o),
(285,663,q),
(285,703,o),
(316,780,o),
(366,845,o),
(433,891,o),
(472,898,q),
(433,942,o),
(417,1039,o),
(417,1052,q),
(417,1125,o),
(486,1225,o),
(523,1250,q),
(575,1282,o),
(700,1296,o),
(738,1296,q),
(1080,1296,l),
(1080,990,l)
);
},
{
closed = 1;
nodes = (
(571,810,l),
(509,804,o),
(442,760,o),
(410,711,o),
(405,670,o),
(405,665,q),
(405,635,o),
(446,571,o),
(520,516,q),
(833,274,l),
(889,277,o),
(955,306,o),
(995,345,o),
(1008,389,o),
(1008,402,q),
(1008,424,o),
(997,461,o),
(964,499,o),
(909,547,o),
(865,582,q)
);
}
);
width = 1381;
}
);
unicode = 167;
},
{
glyphname = dieresis;
layers = (
{
layerId = "099ACB0D-E961-4620-9891-F06BAF5780F3";
shapes = (
{
closed = 1;
nodes = (
(624,1430,l),
(624,1181,l),
(459,1181,l),
(459,1430,l)
);
},
{
closed = 1;
nodes = (
(923,1430,l),
(923,1181,l),
(758,1181,l),
(758,1430,l)
);
}
);
width = 1381;
}
);
unicode = 168;
},
{
glyphname = copyright;
layers = (
{
layerId = "099ACB0D-E961-4620-9891-F06BAF5780F3";
shapes = (
{
closed = 1;
nodes = (
(925,787,l),
(921,837,o),
(914,907,o),
(903,925,q),
(883,955,o),
(787,995,o),
(727,995,q),
(656,995,o),
(547,944,o),
(474,856,o),
(437,741,o),
(437,677,q),
(437,610,o),
(477,488,o),
(550,396,o),
(654,343,o),
(720,343,q),
(776,343,o),
(854,378,o),
(907,428,o),
(942,483,o),
(953,507,q),
(1008,483,l),
(967,373,o),
(789,272,o),
(688,272,q),
(604,272,o),
(468,336,o),
(371,444,o),
(320,587,o),
(320,668,q),
(320,744,o),
(371,886,o),
(470,995,o),
(619,1061,o),
(718,1061,q),
(776,1061,o),
(930,1032,o),
(990,1010,q),
(990,787,l)
);
},
{
closed = 1;
nodes = (
(828,1335,o),
(1072,1232,o),
(1252,1050,o),
(1358,806,o),
(1358,668,q),
(1358,529,o),
(1252,285,o),
(1072,103,o),
(828,-2,o),
(690,-2,q),
(553,-2,o),
(310,103,o),
(129,285,o),
(22,529,o),
(22,668,q),
(22,808,o),
(129,1052,o),
(310,1232,o),
(555,1335,o),
(690,1335,q)
);
},
{
closed = 1;
nodes = (
(571,1248,o),
(362,1158,o),
(202,999,o),
(110,787,o),
(110,665,q),
(110,545,o),
(202,334,o),
(362,178,o),
(571,85,o),
(690,85,q),
(810,85,o),
(1019,178,o),
(1179,334,o),
(1270,545,o),
(1270,665,q),
(1270,785,o),
(1179,999,o),
(1022,1155,o),
(810,1248,o),
(690,1248,q)
);
}
);
width = 1381;
}
);
unicode = 169;
},
{
glyphname = ordfeminine;
layers = (
{
layerId = "099ACB0D-E961-4620-9891-F06BAF5780F3";
shapes = (
{
closed = 1;
nodes = (
(439,1278,l),
(520,1309,o),
(622,1335,o),
(674,1335,q),
(883,1335,o),
(883,1151,q),
(883,879,l),
(982,879,l),
(982,797,l),
(797,797,l),
(797,861,l),
(736,815,o),
(646,780,o),
(593,780,q),
(514,780,o),
(398,879,o),
(398,953,q),
(398,1036,o),
(536,1140,o),
(654,1140,q),
(688,1140,o),
(746,1135,o),
(797,1128,q),
(797,1144,l),
(797,1202,o),
(738,1252,o),
(672,1252,q),
(628,1252,o),
(536,1227,o),
(472,1199,q)
);
},
{
closed = 1;
nodes = (
(797,1045,l),
(749,1052,o),
(692,1057,o),
(665,1057,q),
(584,1057,o),
(486,1001,o),
(486,953,q),
(486,916,o),
(550,863,o),
(593,863,q),
(700,863,o),
(797,973,q)
);
},
{
closed = 1;
nodes = (
(971,613,l),
(410,613,l),
(410,695,l),
(971,695,l)
);
}
);
width = 1381;
}
);
unicode = 170;
},
{
glyphname = guillemotleft;
layers = (
{
layerId = "099ACB0D-E961-4620-9891-F06BAF5780F3";
shapes = (
{
closed = 1;
nodes = (
(1039,281,l),
(1043,274,o),
(1052,255,o),
(1052,237,q),
(1052,205,o),
(997,163,o),
(955,163,q),
(923,163,o),
(883,173,o),
(859,193,o),
(837,226,o),
(822,248,q),
(511,711,l),
(822,1173,l),
(850,1213,o),
(898,1259,o),
(955,1259,q),
(997,1259,o),
(1052,1217,o),
(1052,1186,q),
(1052,1167,o),
(1043,1149,o),
(1039,1142,q),
(760,711,l)
);
},
{
closed = 1;
nodes = (
(617,281,l),
(622,274,o),
(631,255,o),
(631,237,q),
(631,205,o),
(575,163,o),
(534,163,q),
(501,163,o),
(463,173,o),
(437,193,o),
(417,226,o),
(400,248,q),
(90,711,l),
(400,1173,l),
(415,1197,o),
(439,1230,o),
(468,1250,o),
(505,1259,o),
(534,1259,q),
(575,1259,o),
(631,1217,o),
(631,1186,q),
(631,1167,o),
(622,1149,o),
(617,1142,q),
(338,711,l)
);
}
);
width = 1169;
}
);
unicode = 171;
},
{
glyphname = logicalnot;
layers = (
{
layerId = "099ACB0D-E961-4620-9891-F06BAF5780F3";
shapes = (
{
closed = 1;
nodes = (
(1195,389,l),
(1080,389,l),
(1080,894,l),
(207,894,l),
(207,1008,l),
(1195,1008,l)
);
}
);
width = 1381;
}
);
unicode = 172;
},
{
glyphname = uni00AD;
layers = (
{
layerId = "099ACB0D-E961-4620-9891-F06BAF5780F3";
shapes = (
{
closed = 1;
nodes = (
(446,729,l),
(934,729,l),
(934,604,l),
(446,604,l)
);
}
);
width = 1381;
}
);
unicode = 173;
},
{
glyphname = registered;
layers = (
{
layerId = "099ACB0D-E961-4620-9891-F06BAF5780F3";
shapes = (
{
closed = 1;
nodes = (
(686,1072,l),
(705,1072,o),
(792,1066,o),
(883,1028,o),
(953,949,o),
(953,877,q),
(953,865,o),
(946,815,o),
(914,753,o),
(843,695,o),
(778,679,q),
(815,654,o),
(865,558,o),
(903,474,q),
(921,433,o),
(946,389,o),
(973,369,o),
(1010,366,o),
(1041,366,q),
(1041,310,l),
(949,310,l),
(881,310,o),
(819,405,o),
(789,486,q),
(767,547,o),
(734,615,o),
(698,650,o),
(650,656,o),
(608,656,q),
(566,656,l),
(566,426,l),
(566,396,o),
(571,380,o),
(582,373,q),
(587,371,o),
(642,366,o),
(661,364,q),
(661,310,l),
(369,310,l),
(369,364,l),
(371,366,o),
(384,366,q),
(398,366,o),
(400,369,q),
(442,373,o),
(463,387,o),
(463,426,q),
(463,962,l),
(463,990,o),
(461,1004,o),
(448,1008,q),
(446,1010,o),
(433,1010,q),
(428,1010,o),
(393,1013,o),
(369,1015,q),
(369,1072,l)
);
},
{
closed = 1;
nodes = (
(619,711,l),
(723,711,o),
(850,780,o),
(850,870,q),
(850,923,o),
(808,982,o),
(749,1010,o),
(683,1017,o),
(661,1017,q),
(596,1017,o),
(566,1004,o),
(566,969,q),
(566,711,l)
);
},
{
closed = 1;
nodes = (
(828,1335,o),
(1070,1232,o),
(1252,1052,o),
(1358,808,o),
(1358,668,q),
(1358,529,o),
(1252,288,o),
(1072,106,o),
(828,0,o),
(690,0,q),
(553,0,o),
(308,106,o),
(129,288,o),
(22,529,o),
(22,668,q),
(22,808,o),
(129,1052,o),
(310,1232,o),
(555,1335,o),
(690,1335,q)
);
},
{
closed = 1;
nodes = (
(571,1248,o),
(362,1158,o),
(202,999,o),
(110,787,o),
(110,668,q),
(110,547,o),
(200,338,o),
(359,180,o),
(569,88,o),
(690,88,q),
(810,88,o),
(1022,180,o),
(1181,338,o),
(1270,547,o),
(1270,668,q),
(1270,789,o),
(1179,1001,o),
(1019,1158,o),
(808,1248,o),
(690,1248,q)
);
}
);
width = 1381;
}
);
unicode = 174;
},
{
glyphname = overscore;
layers = (
{
layerId = "099ACB0D-E961-4620-9891-F06BAF5780F3";
shapes = (
{
closed = 1;
nodes = (
(1082,1248,l),
(299,1248,l),
(299,1362,l),
(1082,1362,l)
);
}
);
width = 1381;
}
);
unicode = 175;
},
{
glyphname = degree;
layers = (
{
layerId = "099ACB0D-E961-4620-9891-F06BAF5780F3";
shapes = (
{
closed = 1;
nodes = (
(338,1149,o),
(393,1278,o),
(488,1375,o),
(617,1430,o),
(690,1430,q),
(767,1430,o),
(896,1372,o),
(990,1276,o),
(1043,1146,o),
(1043,1075,q),
(1043,1004,o),
(988,877,o),
(894,780,o),
(764,725,o),
(690,725,q),
(617,725,o),
(488,780,o),
(393,874,o),
(338,1001,o),
(338,1075,q)
);
},
{
closed = 1;
nodes = (
(465,980,o),
(593,852,o),
(690,852,q),
(738,852,o),
(822,886,o),
(881,949,o),
(916,1028,o),
(916,1077,q),
(916,1173,o),
(787,1303,o),
(690,1303,q),
(642,1303,o),
(562,1268,o),
(499,1208,o),
(465,1125,o),
(465,1077,q)
);
}
);
width = 1381;
}
);
unicode = 176;
},
{
glyphname = plusminus;
layers = (
{
layerId = "099ACB0D-E961-4620-9891-F06BAF5780F3";
shapes = (
{
closed = 1;
nodes = (
(749,874,l),
(1230,874,l),
(1230,760,l),
(749,760,l),
(749,308,l),
(633,308,l),
(633,760,l),
(152,760,l),
(152,874,l),
(633,874,l),
(633,1326,l),
(749,1326,l)
);
},
{
closed = 1;
nodes = (
(1230,71,l),
(152,71,l),
(152,187,l),
(1230,187,l)
);
}
);
width = 1381;
}
);
unicode = 177;
},
{
glyphname = twosuperior;
layers = (
{
layerId = "099ACB0D-E961-4620-9891-F06BAF5780F3";
shapes = (
{
closed = 1;
nodes = (
(934,571,l),
(384,571,l),
(384,661,l),
(405,679,l),
(428,700,o),
(497,762,o),
(571,828,o),
(640,891,o),
(663,912,q),
(720,964,o),
(792,1036,o),
(826,1091,o),
(837,1140,o),
(837,1171,q),
(837,1241,o),
(736,1338,o),
(665,1338,q),
(601,1338,o),
(509,1268,o),
(507,1222,q),
(509,1195,l),
(413,1195,l),
(413,1303,l),
(511,1430,o),
(668,1430,q),
(723,1430,o),
(822,1388,o),
(896,1320,o),
(937,1225,o),
(937,1169,q),
(937,1125,o),
(914,1054,o),
(859,973,o),
(760,877,o),
(683,808,q),
(525,663,l),
(845,663,l),
(845,795,l),
(934,795,l)
);
}
);
width = 1381;
}
);
unicode = 178;
},
{
glyphname = threesuperior;
layers = (
{
layerId = "099ACB0D-E961-4620-9891-F06BAF5780F3";
shapes = (
{
closed = 1;
nodes = (
(398,1333,l),
(483,1388,o),
(587,1430,o),
(644,1430,q),
(749,1430,o),
(886,1305,o),
(886,1208,q),
(886,1103,o),
(799,1028,q),
(927,949,o),
(927,813,q),
(927,695,o),
(769,550,o),
(644,550,q),
(593,550,o),
(505,573,o),
(426,606,q),
(382,624,l),
(419,709,l),
(492,674,o),
(601,642,o),
(650,642,q),
(729,642,o),
(831,738,o),
(831,813,q),
(831,889,o),
(734,969,o),
(644,969,q),
(589,969,l),
(589,1061,l),
(652,1063,o),
(707,1075,o),
(732,1094,q),
(789,1137,o),
(789,1206,q),
(789,1263,o),
(707,1338,o),
(644,1338,q),
(606,1338,o),
(534,1314,o),
(481,1278,q),
(446,1254,l)
);
}
);
width = 1381;
}
);
unicode = 179;
},
{
glyphname = acute;
layers = (
{
layerId = "099ACB0D-E961-4620-9891-F06BAF5780F3";
shapes = (
{
closed = 1;
nodes = (
(495,1158,l),
(700,1423,l),
(946,1423,l),
(617,1158,l)
);
}
);
width = 1381;
}
);
unicode = 180;
},
{
glyphname = mu;
layers = (
{
layerId = "099ACB0D-E961-4620-9891-F06BAF5780F3";
shapes = (
{
closed = 1;
nodes = (
(387,448,l),
(387,393,o),
(391,316,o),
(402,257,o),
(424,217,o),
(439,196,q),
(483,138,o),
(613,83,o),
(677,83,q),
(741,83,o),
(883,138,o),
(923,189,q),
(944,217,o),
(969,270,o),
(982,329,o),
(988,402,o),
(988,448,q),
(988,894,l),
(799,894,l),
(799,990,l),
(1103,990,l),
(1103,94,l),
(1294,94,l),
(1294,0,l),
(990,0,l),
(990,123,l),
(986,123,l),
(967,94,l),
(923,35,o),
(762,-33,o),
(681,-33,q),
(640,-33,o),
(562,-11,o),
(495,16,o),
(448,46,o),
(439,57,q),
(419,79,o),
(405,92,o),
(384,108,q),
(384,-343,l),
(272,-343,l),
(272,894,l),
(83,894,l),
(83,990,l),
(387,990,l)
);
}
);
width = 1381;
}
);
unicode = 181;
},
{
glyphname = paragraph;
layers = (
{
layerId = "099ACB0D-E961-4620-9891-F06BAF5780F3";
shapes = (
{
closed = 1;
nodes = (
(1142,-108,l),
(1142,-178,l),
(874,-178,l),
(874,-108,l),
(918,-108,l),
(918,1227,l),
(729,1227,l),
(729,-108,l),
(773,-108,l),
(773,-178,l),
(483,-178,l),
(483,-108,l),
(626,-108,l),
(626,601,l),
(560,596,o),
(422,624,o),
(306,703,o),
(233,843,o),
(233,953,q),
(233,1080,o),
(310,1220,o),
(433,1285,o),
(582,1296,o),
(656,1296,q),
(1133,1296,l),
(1133,1227,l),
(1022,1227,l),
(1022,-108,l)
);
},
{
closed = 1;
nodes = (
(626,1227,l),
(587,1227,o),
(514,1217,o),
(456,1179,o),
(419,1096,o),
(419,1019,q),
(419,881,l),
(419,868,o),
(428,795,o),
(470,718,o),
(553,663,o),
(626,670,q)
);
}
);
width = 1381;
}
);
unicode = 182;
},
{
glyphname = middot;
layers = (
{
layerId = "099ACB0D-E961-4620-9891-F06BAF5780F3";
shapes = (
{
closed = 1;
nodes = (
(725,854,o),
(787,831,o),
(837,789,o),
(868,732,o),
(868,698,q),
(868,661,o),
(835,604,o),
(785,562,o),
(720,541,o),
(690,541,q),
(661,541,o),
(598,562,o),
(545,601,o),
(514,659,o),
(514,698,q),
(514,734,o),
(545,792,o),
(596,833,o),
(659,854,o),
(690,854,q)
);
}
);
width = 1381;
}
);
unicode = 183;
},
{
glyphname = cedilla;
layers = (
{
layerId = "099ACB0D-E961-4620-9891-F06BAF5780F3";
shapes = (
{
closed = 1;
nodes = (
(741,-57,l),
(799,-66,o),
(863,-108,o),
(896,-154,o),
(903,-193,o),
(903,-200,q),
(903,-211,o),
(894,-255,o),
(859,-299,o),
(782,-334,o),
(718,-334,q),
(633,-334,o),
(497,-306,o),
(465,-299,q),
(481,-198,l),
(518,-207,o),
(642,-230,o),
(716,-230,q),
(736,-230,l),
(755,-230,o),
(795,-217,o),
(795,-200,q),
(795,-169,o),
(695,-147,o),
(628,-143,q),
(644,-4,l),
(749,-4,l)
);
}
);
width = 1381;
}
);
unicode = 184;
},
{
glyphname = onesuperior;
layers = (
{
layerId = "099ACB0D-E961-4620-9891-F06BAF5780F3";
shapes = (
{
closed = 1;
nodes = (
(751,1430,l),
(751,663,l),
(980,663,l),
(980,571,l),
(422,571,l),
(422,663,l),
(656,663,l),
(656,1314,l),
(446,1222,l),
(410,1305,l),
(690,1430,l)
);
}
);
width = 1381;
}
);
unicode = 185;
},
{
glyphname = ordmasculine;
layers = (
{
layerId = "099ACB0D-E961-4620-9891-F06BAF5780F3";
shapes = (
{
closed = 1;
nodes = (
(396,1181,o),
(560,1335,o),
(690,1335,q),
(822,1335,o),
(986,1181,o),
(986,1057,q),
(986,932,o),
(822,780,o),
(690,780,q),
(560,780,o),
(396,932,o),
(396,1057,q)
);
},
{
closed = 1;
nodes = (
(488,971,o),
(601,863,o),
(690,863,q),
(780,863,o),
(894,971,o),
(894,1059,q),
(894,1144,o),
(780,1252,o),
(690,1252,q),
(601,1252,o),
(488,1144,o),
(488,1059,q)
);
},
{
closed = 1;
nodes = (
(971,613,l),
(410,613,l),
(410,695,l),
(971,695,l)
);
}
);
width = 1381;
}
);
unicode = 186;
},
{
glyphname = guillemotright;
layers = (
{
layerId = "099ACB0D-E961-4620-9891-F06BAF5780F3";
shapes = (
{
closed = 1;
nodes = (
(123,292,l),
(117,285,o),
(108,268,o),
(108,248,q),
(108,217,o),
(163,175,o),
(205,175,q),
(237,175,o),
(277,184,o),
(301,205,o),
(323,237,o),
(338,260,q),
(650,723,l),
(338,1186,l),
(310,1225,o),
(262,1270,o),
(205,1270,q),
(163,1270,o),
(108,1230,o),
(108,1197,q),
(108,1179,o),
(117,1160,o),
(123,1153,q),
(400,723,l)
);
},
{
closed = 1;
nodes = (
(543,292,l),
(538,285,o),
(529,268,o),
(529,248,q),
(529,217,o),
(584,175,o),
(626,175,q),
(659,175,o),
(698,184,o),
(723,205,o),
(744,237,o),
(760,260,q),
(1070,723,l),
(760,1186,l),
(746,1208,o),
(720,1241,o),
(692,1261,o),
(656,1270,o),
(626,1270,q),
(584,1270,o),
(529,1230,o),
(529,1197,q),
(529,1179,o),
(538,1160,o),
(543,1153,q),
(822,723,l)
);
}
);
width = 1193;
}
);
unicode = 187;
},
{
glyphname = onequarter;
layers = (
{
layerId = "099ACB0D-E961-4620-9891-F06BAF5780F3";
shapes = (
{
closed = 1;
nodes = (
(1353,106,l),
(1353,20,l),
(1232,20,l),
(1232,-94,l),
(1353,-94,l),
(1353,-178,l),
(990,-178,l),
(990,-94,l),
(1144,-94,l),
(1144,20,l),
(778,20,l),
(778,112,l),
(1121,681,l),
(1232,681,l),
(1232,106,l)
);
},
{
closed = 1;
nodes = (
(1140,555,l),
(874,106,l),
(1144,106,l),
(1144,555,l)
);
},
{
closed = 1;
nodes = (
(352,1432,l),
(352,661,l),
(527,661,l),
(527,573,l),
(88,573,l),
(88,661,l),
(265,661,l),
(265,1324,l),
(97,1254,l),
(60,1333,l),
(297,1432,l)
);
},
{
closed = 1;
nodes = (
(202,-207,l),
(138,-156,l),
(1312,1457,l),
(1377,1411,l)
);
}
);
width = 1381;
}
);
unicode = 188;
},
{
glyphname = onehalf;
layers = (
{
layerId = "099ACB0D-E961-4620-9891-F06BAF5780F3";
shapes = (
{
closed = 1;
nodes = (
(336,1432,l),
(336,661,l),
(511,661,l),
(511,573,l),
(71,573,l),
(71,661,l),
(248,661,l),
(248,1324,l),
(81,1254,l),
(44,1333,l),
(283,1432,l)
);
},
{
closed = 1;
nodes = (
(173,-207,l),
(108,-156,l),
(1280,1457,l),
(1347,1411,l)
);
},
{
closed = 1;
nodes = (
(1358,-178,l),
(831,-178,l),
(831,-88,l),
(837,-81,o),
(841,-79,o),
(859,-64,o),
(907,-20,o),
(962,30,q),
(1019,85,o),
(1103,163,o),
(1160,219,o),
(1199,257,o),
(1217,279,q),
(1250,318,o),
(1270,382,o),
(1270,422,q),
(1270,495,o),
(1171,591,o),
(1096,591,q),
(1036,591,o),
(942,525,o),
(942,479,q),
(942,474,o),
(944,463,o),
(944,451,q),
(856,451,l),
(856,555,l),
(955,679,o),
(1100,679,q),
(1155,679,o),
(1252,640,o),
(1322,571,o),
(1360,477,o),
(1360,422,q),
(1360,341,o),
(1266,189,o),
(1142,79,q),
(999,-48,l),
(955,-90,l),
(1280,-90,l),
(1280,42,l),
(1358,42,l)
);
}
);
width = 1381;
}
);
unicode = 189;
},
{
glyphname = threequarters;
layers = (
{
layerId = "099ACB0D-E961-4620-9891-F06BAF5780F3";
shapes = (
{
closed = 1;
nodes = (
(1155,555,l),
(891,106,l),
(1160,106,l),
(1160,555,l)
);
},
{
closed = 1;
nodes = (
(1370,106,l),
(1370,20,l),
(1248,20,l),
(1248,-94,l),
(1370,-94,l),
(1370,-178,l),
(1006,-178,l),
(1006,-94,l),
(1160,-94,l),
(1160,20,l),
(795,20,l),
(795,112,l),
(1137,681,l),
(1248,681,l),
(1248,106,l)
);
},
{
closed = 1;
nodes = (
(66,1338,l),
(149,1390,o),
(255,1432,o),
(314,1432,q),
(364,1432,o),
(453,1397,o),
(520,1340,o),
(558,1259,o),
(558,1213,q),
(558,1155,o),
(514,1070,o),
(465,1032,q),
(598,955,o),
(598,815,q),
(598,698,o),
(437,555,o),
(314,555,q),
(288,555,o),
(244,560,o),
(193,573,o),
(134,593,o),
(92,610,q),
(51,626,l),
(85,707,l),
(163,670,o),
(268,642,o),
(318,642,q),
(400,642,o),
(507,736,o),
(507,815,q),
(507,894,o),
(410,982,o),
(314,978,q),
(262,976,l),
(262,1061,l),
(323,1063,o),
(380,1075,o),
(405,1094,q),
(465,1135,o),
(465,1211,q),
(465,1270,o),
(380,1344,o),
(314,1344,q),
(274,1344,o),
(200,1316,o),
(145,1285,q),
(110,1263,l)
);
},
{
closed = 1;
nodes = (
(219,-207,l),
(154,-156,l),
(1329,1457,l),
(1393,1411,l)
);
}
);
width = 1381;
}
);
unicode = 190;
},
{
glyphname = questiondown;
layers = (
{
layerId = "099ACB0D-E961-4620-9891-F06BAF5780F3";
shapes = (
{
closed = 1;
nodes = (
(1091,-242,l),
(1032,-262,o),
(937,-292,o),
(852,-314,o),
(767,-323,o),
(718,-323,q),
(608,-323,o),
(442,-257,o),
(332,-154,o),
(277,-18,o),
(277,55,q),
(277,156,o),
(364,292,o),
(490,380,o),
(635,430,o),
(692,446,q),
(692,584,l),
(806,584,l),
(806,362,l),
(801,359,o),
(771,352,o),
(760,350,q),
(703,336,o),
(573,297,o),
(468,230,o),
(396,127,o),
(396,48,q),
(396,13,o),
(424,-76,o),
(495,-156,o),
(619,-209,o),
(716,-209,q),
(801,-209,o),
(918,-178,o),
(976,-154,q),
(976,-7,l),
(1091,-7,l)
);
},
{
closed = 1;
nodes = (
(690,753,o),
(598,833,o),
(598,894,q),
(598,955,o),
(692,1036,o),
(758,1036,q),
(822,1036,o),
(916,955,o),
(916,894,q),
(916,833,o),
(824,753,o),
(758,753,q)
);
}
);
width = 1381;
}
);
unicode = 191;
},
{
glyphname = Agrave;
layers = (
{
layerId = "099ACB0D-E961-4620-9891-F06BAF5780F3";
shapes = (
{
closed = 1;
nodes = (
(1241,108,l),
(1358,108,l),
(1358,0,l),
(886,0,l),
(886,108,l),
(1121,108,l),
(990,428,l),
(389,428,l),
(260,108,l),
(495,108,l),
(495,0,l),
(22,0,l),
(22,108,l),
(145,108,l),
(589,1188,l),
(260,1188,l),
(260,1296,l),
(755,1296,l)
);
},
{
closed = 1;
nodes = (
(430,529,l),
(951,529,l),
(690,1160,l)
);
},
{
closed = 1;
nodes = (
(861,1465,l),
(741,1465,l),
(437,1729,l),
(683,1729,l)
);
}
);
width = 1381;
}
);
unicode = 192;
},
{
glyphname = Aacute;
layers = (
{
layerId = "099ACB0D-E961-4620-9891-F06BAF5780F3";
shapes = (
{
closed = 1;
nodes = (
(1241,108,l),
(1358,108,l),
(1358,0,l),
(886,0,l),
(886,108,l),
(1121,108,l),
(990,428,l),
(389,428,l),
(260,108,l),
(495,108,l),
(495,0,l),
(22,0,l),
(22,108,l),
(145,108,l),
(589,1188,l),
(260,1188,l),
(260,1296,l),
(755,1296,l)
);
},
{
closed = 1;
nodes = (
(430,529,l),
(951,529,l),
(690,1160,l)
);
},
{
closed = 1;
nodes = (
(495,1465,l),
(700,1729,l),
(946,1729,l),
(617,1465,l)
);
}
);
width = 1381;
}
);
unicode = 193;
},
{
glyphname = Acircumflex;
layers = (
{
layerId = "099ACB0D-E961-4620-9891-F06BAF5780F3";
shapes = (
{
closed = 1;
nodes = (
(1241,108,l),
(1358,108,l),
(1358,0,l),
(886,0,l),
(886,108,l),
(1121,108,l),
(990,428,l),
(389,428,l),
(260,108,l),
(495,108,l),
(495,0,l),
(22,0,l),
(22,108,l),
(145,108,l),
(589,1188,l),
(260,1188,l),
(260,1296,l),
(755,1296,l)
);
},
{
closed = 1;
nodes = (
(430,529,l),
(951,529,l),
(690,1160,l)
);
},
{
closed = 1;
nodes = (
(986,1520,l),
(912,1461,l),
(679,1614,l),
(470,1461,l),
(393,1517,l),
(596,1735,l),
(773,1735,l)
);
}
);
width = 1381;
}
);
unicode = 194;
},
{
glyphname = Atilde;
layers = (
{
layerId = "099ACB0D-E961-4620-9891-F06BAF5780F3";
shapes = (
{
closed = 1;
nodes = (
(1241,108,l),
(1358,108,l),
(1358,0,l),
(886,0,l),
(886,108,l),
(1121,108,l),
(990,428,l),
(389,428,l),
(260,108,l),
(495,108,l),
(495,0,l),
(22,0,l),
(22,108,l),
(145,108,l),
(589,1188,l),
(260,1188,l),
(260,1296,l),
(755,1296,l)
);
},
{
closed = 1;
nodes = (
(430,529,l),
(951,529,l),
(690,1160,l)
);
},
{
closed = 1;
nodes = (
(1059,1701,l),
(1054,1696,o),
(1054,1685,q),
(1026,1588,o),
(903,1489,o),
(828,1489,q),
(789,1489,o),
(718,1522,o),
(665,1563,q),
(610,1604,o),
(564,1630,o),
(538,1630,q),
(492,1630,o),
(437,1556,o),
(419,1510,q),
(419,1507,o),
(417,1501,q),
(415,1496,l),
(323,1529,l),
(354,1616,o),
(453,1733,o),
(538,1733,q),
(593,1733,o),
(672,1687,o),
(709,1656,q),
(753,1623,o),
(810,1593,o),
(835,1593,q),
(865,1593,o),
(909,1623,o),
(940,1667,o),
(960,1713,o),
(967,1731,q)
);
}
);
width = 1381;
}
);
unicode = 195;
},
{
glyphname = Adieresis;
layers = (
{
layerId = "099ACB0D-E961-4620-9891-F06BAF5780F3";
shapes = (
{
closed = 1;
nodes = (
(1241,108,l),
(1358,108,l),
(1358,0,l),
(886,0,l),
(886,108,l),
(1121,108,l),
(990,428,l),
(389,428,l),
(260,108,l),
(495,108,l),
(495,0,l),
(22,0,l),
(22,108,l),
(145,108,l),
(589,1188,l),
(260,1188,l),
(260,1296,l),
(755,1296,l)
);
},
{
closed = 1;
nodes = (
(430,529,l),
(951,529,l),
(690,1160,l)
);
},
{
closed = 1;
nodes = (
(624,1735,l),
(624,1487,l),
(459,1487,l),
(459,1735,l)
);
},
{
closed = 1;
nodes = (
(923,1735,l),
(923,1487,l),
(758,1487,l),
(758,1735,l)
);
}
);
width = 1381;
}
);
unicode = 196;
},
{
glyphname = Aring;
layers = (
{
layerId = "099ACB0D-E961-4620-9891-F06BAF5780F3";
shapes = (
{
closed = 1;
nodes = (
(1241,108,l),
(1358,108,l),
(1358,0,l),
(886,0,l),
(886,108,l),
(1121,108,l),
(990,428,l),
(389,428,l),
(260,108,l),
(495,108,l),
(495,0,l),
(22,0,l),
(22,108,l),
(145,108,l),
(589,1188,l),
(260,1188,l),
(260,1296,l),
(755,1296,l)
);
},
{
closed = 1;
nodes = (
(430,529,l),
(951,529,l),
(690,1160,l)
);
},
{
closed = 1;
nodes = (
(764,1784,o),
(865,1683,o),
(865,1610,q),
(865,1535,o),
(764,1434,o),
(690,1434,q),
(617,1434,o),
(516,1535,o),
(516,1610,q),
(516,1683,o),
(617,1784,o),
(690,1784,q)
);
},
{
closed = 1;
nodes = (
(656,1696,o),
(604,1650,o),
(604,1610,q),
(604,1572,o),
(656,1522,o),
(692,1522,q),
(729,1522,o),
(778,1572,o),
(778,1610,q),
(778,1646,o),
(729,1696,o),
(692,1696,q)
);
}
);
width = 1381;
}
);
unicode = 197;
},
{
glyphname = AE;
layers = (
{
layerId = "099ACB0D-E961-4620-9891-F06BAF5780F3";
shapes = (
{
closed = 1;
nodes = (
(1263,881,l),
(1160,881,l),
(1140,1188,l),
(810,1188,l),
(810,741,l),
(960,741,l),
(960,909,l),
(1066,909,l),
(1066,465,l),
(960,465,l),
(960,633,l),
(810,633,l),
(810,108,l),
(1160,108,l),
(1173,428,l),
(1280,428,l),
(1280,0,l),
(695,0,l),
(695,424,l),
(413,424,l),
(281,108,l),
(486,108,l),
(486,0,l),
(44,0,l),
(44,108,l),
(165,108,l),
(601,1188,l),
(364,1188,l),
(364,1296,l),
(1263,1296,l)
);
},
{
closed = 1;
nodes = (
(690,1160,l),
(451,532,l),
(695,532,l),
(695,1160,l)
);
}
);
width = 1381;
}
);
unicode = 198;
},
{
glyphname = Ccedilla;
layers = (
{
layerId = "099ACB0D-E961-4620-9891-F06BAF5780F3";
shapes = (
{
closed = 1;
nodes = (
(815,-57,l),
(837,-57,o),
(894,-76,o),
(942,-112,o),
(976,-165,o),
(976,-200,q),
(976,-209,o),
(967,-253,o),
(932,-299,o),
(856,-334,o),
(792,-334,q),
(707,-334,o),
(571,-306,o),
(538,-299,q),
(555,-198,l),
(601,-209,o),
(716,-230,o),
(795,-230,q),
(810,-230,l),
(828,-230,o),
(868,-217,o),
(868,-200,q),
(868,-169,o),
(769,-147,o),
(703,-143,q),
(716,-39,l),
(553,-22,o),
(334,125,o),
(202,329,o),
(147,562,o),
(147,663,q),
(147,813,o),
(242,1061,o),
(407,1239,o),
(633,1335,o),
(764,1335,q),
(801,1335,o),
(944,1314,o),
(1017,1268,q),
(1022,1263,o),
(1045,1245,o),
(1070,1225,o),
(1094,1211,o),
(1098,1211,q),
(1105,1211,o),
(1116,1234,o),
(1123,1268,o),
(1131,1305,o),
(1133,1322,q),
(1217,1322,l),
(1213,1177,o),
(1230,973,o),
(1241,881,q),
(1133,863,l),
(1125,903,o),
(1096,1024,o),
(1019,1137,o),
(879,1220,o),
(760,1220,q),
(672,1220,o),
(499,1153,o),
(359,1017,o),
(272,808,o),
(272,665,q),
(272,555,o),
(327,343,o),
(448,178,o),
(637,76,o),
(769,76,q),
(865,76,o),
(1032,129,o),
(1162,205,o),
(1259,285,o),
(1291,310,q),
(1368,228,l),
(1250,117,o),
(973,-26,o),
(815,-39,q)
);
}
);
width = 1381;
}
);
unicode = 199;
},
{
glyphname = Egrave;
layers = (
{
layerId = "099ACB0D-E961-4620-9891-F06BAF5780F3";
shapes = (
{
closed = 1;
nodes = (
(1234,872,l),
(1128,872,l),
(1105,1188,l),
(442,1188,l),
(442,738,l),
(815,738,l),
(815,907,l),
(921,907,l),
(921,465,l),
(815,465,l),
(815,631,l),
(442,631,l),
(442,108,l),
(1128,108,l),
(1140,424,l),
(1245,424,l),
(1245,0,l),
(132,0,l),
(132,108,l),
(327,108,l),
(327,1188,l),
(132,1188,l),
(132,1296,l),
(1225,1296,l)
);
},
{
closed = 1;
nodes = (
(861,1465,l),
(741,1465,l),
(437,1729,l),
(683,1729,l)
);
}
);
width = 1381;
}
);
unicode = 200;
},
{
glyphname = Eacute;
layers = (
{
layerId = "099ACB0D-E961-4620-9891-F06BAF5780F3";
shapes = (
{
closed = 1;
nodes = (
(1234,872,l),
(1128,872,l),
(1105,1188,l),
(442,1188,l),
(442,738,l),
(815,738,l),
(815,907,l),
(921,907,l),
(921,465,l),
(815,465,l),
(815,631,l),
(442,631,l),
(442,108,l),
(1128,108,l),
(1140,424,l),
(1245,424,l),
(1245,0,l),
(132,0,l),
(132,108,l),
(327,108,l),
(327,1188,l),
(132,1188,l),
(132,1296,l),
(1225,1296,l)
);
},
{
closed = 1;
nodes = (
(495,1465,l),
(700,1729,l),
(946,1729,l),
(617,1465,l)
);
}
);
width = 1381;
}
);
unicode = 201;
},
{
glyphname = Ecircumflex;
layers = (
{
layerId = "099ACB0D-E961-4620-9891-F06BAF5780F3";
shapes = (
{
closed = 1;
nodes = (
(1234,872,l),
(1128,872,l),
(1105,1188,l),
(442,1188,l),
(442,738,l),
(815,738,l),
(815,907,l),
(921,907,l),
(921,465,l),
(815,465,l),
(815,631,l),
(442,631,l),
(442,108,l),
(1128,108,l),
(1140,424,l),
(1245,424,l),
(1245,0,l),
(132,0,l),
(132,108,l),
(327,108,l),
(327,1188,l),
(132,1188,l),
(132,1296,l),
(1225,1296,l)
);
},
{
closed = 1;
nodes = (
(986,1520,l),
(912,1461,l),
(679,1614,l),
(470,1461,l),
(393,1517,l),
(596,1735,l),
(773,1735,l)
);
}
);
width = 1381;
}
);
unicode = 202;
},
{
glyphname = Edieresis;
layers = (
{
layerId = "099ACB0D-E961-4620-9891-F06BAF5780F3";
shapes = (
{
closed = 1;
nodes = (
(1234,872,l),
(1128,872,l),
(1105,1188,l),
(442,1188,l),
(442,738,l),
(815,738,l),
(815,907,l),
(921,907,l),
(921,465,l),
(815,465,l),
(815,631,l),
(442,631,l),
(442,108,l),
(1128,108,l),
(1140,424,l),
(1245,424,l),
(1245,0,l),
(132,0,l),
(132,108,l),
(327,108,l),
(327,1188,l),
(132,1188,l),
(132,1296,l),
(1225,1296,l)
);
},
{
closed = 1;
nodes = (
(624,1735,l),
(624,1487,l),
(459,1487,l),
(459,1735,l)
);
},
{
closed = 1;
nodes = (
(923,1735,l),
(923,1487,l),
(758,1487,l),
(758,1735,l)
);
}
);
width = 1381;
}
);
unicode = 203;
},
{
glyphname = Igrave;
layers = (
{
layerId = "099ACB0D-E961-4620-9891-F06BAF5780F3";
shapes = (
{
closed = 1;
nodes = (
(1151,1188,l),
(749,1188,l),
(749,108,l),
(1151,108,l),
(1151,0,l),
(230,0,l),
(230,108,l),
(633,108,l),
(633,1188,l),
(230,1188,l),
(230,1296,l),
(1151,1296,l)
);
},
{
closed = 1;
nodes = (
(861,1465,l),
(741,1465,l),
(437,1729,l),
(683,1729,l)
);
}
);
width = 1381;
}
);
unicode = 204;
},
{
glyphname = Iacute;
layers = (
{
layerId = "099ACB0D-E961-4620-9891-F06BAF5780F3";
shapes = (
{
closed = 1;
nodes = (
(1151,1188,l),
(749,1188,l),
(749,108,l),
(1151,108,l),
(1151,0,l),
(230,0,l),
(230,108,l),
(633,108,l),
(633,1188,l),
(230,1188,l),
(230,1296,l),
(1151,1296,l)
);
},
{
closed = 1;
nodes = (
(495,1465,l),
(700,1729,l),
(946,1729,l),
(617,1465,l)
);
}
);
width = 1381;
}
);
unicode = 205;
},
{
glyphname = Icircumflex;
layers = (
{
layerId = "099ACB0D-E961-4620-9891-F06BAF5780F3";
shapes = (
{
closed = 1;
nodes = (
(1151,1188,l),
(749,1188,l),
(749,108,l),
(1151,108,l),
(1151,0,l),
(230,0,l),
(230,108,l),
(633,108,l),
(633,1188,l),
(230,1188,l),
(230,1296,l),
(1151,1296,l)
);
},
{
closed = 1;
nodes = (
(986,1520,l),
(912,1461,l),
(679,1614,l),
(470,1461,l),
(393,1517,l),
(596,1735,l),
(773,1735,l)
);
}
);
width = 1381;
}
);
unicode = 206;
},
{
glyphname = Idieresis;
layers = (
{
layerId = "099ACB0D-E961-4620-9891-F06BAF5780F3";
shapes = (
{
closed = 1;
nodes = (
(1151,1188,l),
(749,1188,l),
(749,108,l),
(1151,108,l),
(1151,0,l),
(230,0,l),
(230,108,l),
(633,108,l),
(633,1188,l),
(230,1188,l),
(230,1296,l),
(1151,1296,l)
);
},
{
closed = 1;
nodes = (
(624,1735,l),
(624,1487,l),
(459,1487,l),
(459,1735,l)
);
},
{
closed = 1;
nodes = (
(923,1735,l),
(923,1487,l),
(758,1487,l),
(758,1735,l)
);
}
);
width = 1381;
}
);
unicode = 207;
},
{
glyphname = Eth;
layers = (
{
layerId = "099ACB0D-E961-4620-9891-F06BAF5780F3";
shapes = (
{
closed = 1;
nodes = (
(79,738,l),
(260,738,l),
(260,1188,l),
(79,1188,l),
(79,1296,l),
(654,1296,l),
(729,1296,o),
(861,1285,o),
(973,1250,o),
(1077,1181,o),
(1125,1123,q),
(1177,1061,o),
(1234,927,o),
(1261,804,o),
(1268,703,o),
(1268,672,q),
(1268,569,o),
(1236,400,o),
(1184,270,o),
(1114,169,o),
(1077,134,q),
(1024,83,o),
(900,30,o),
(780,4,o),
(677,0,o),
(644,0,q),
(79,0,l),
(79,108,l),
(260,108,l),
(260,631,l),
(79,631,l)
);
},
{
closed = 1;
nodes = (
(375,108,l),
(644,108,l),
(674,108,o),
(758,110,o),
(852,132,o),
(949,175,o),
(990,217,q),
(1052,279,o),
(1144,507,o),
(1144,665,q),
(1142,773,o),
(1103,925,o),
(1048,1032,o),
(986,1096,o),
(960,1116,q),
(900,1162,o),
(755,1188,o),
(656,1188,q),
(375,1188,l),
(375,738,l),
(758,738,l),
(758,631,l),
(375,631,l)
);
}
);
width = 1381;
}
);
unicode = 208;
},
{
glyphname = Ntilde;
layers = (
{
layerId = "099ACB0D-E961-4620-9891-F06BAF5780F3";
shapes = (
{
closed = 1;
nodes = (
(1063,97,l),
(1105,97,l),
(1105,1188,l),
(847,1188,l),
(847,1296,l),
(1360,1296,l),
(1360,1188,l),
(1211,1188,l),
(1211,-30,l),
(1006,-30,l),
(389,1188,l),
(350,1188,l),
(350,108,l),
(610,108,l),
(610,0,l),
(64,0,l),
(64,108,l),
(244,108,l),
(244,1188,l),
(64,1188,l),
(64,1296,l),
(459,1296,l)
);
},
{
closed = 1;
nodes = (
(1059,1701,l),
(1054,1696,o),
(1054,1685,q),
(1026,1588,o),
(903,1489,o),
(828,1489,q),
(789,1489,o),
(718,1522,o),
(665,1563,q),
(610,1604,o),
(564,1630,o),
(538,1630,q),
(492,1630,o),
(437,1556,o),
(419,1510,q),
(419,1507,o),
(417,1501,q),
(415,1496,l),
(323,1529,l),
(354,1616,o),
(453,1733,o),
(538,1733,q),
(593,1733,o),
(672,1687,o),
(709,1656,q),
(753,1623,o),
(810,1593,o),
(835,1593,q),
(865,1593,o),
(909,1623,o),
(940,1667,o),
(960,1713,o),
(967,1731,q)
);
}
);
width = 1381;
}
);
unicode = 209;
},
{
glyphname = Ograve;
layers = (
{
layerId = "099ACB0D-E961-4620-9891-F06BAF5780F3";
shapes = (
{
closed = 1;
nodes = (
(99,789,o),
(182,1041,o),
(336,1227,o),
(555,1335,o),
(690,1335,q),
(828,1335,o),
(1048,1225,o),
(1202,1036,o),
(1282,787,o),
(1282,646,q),
(1282,509,o),
(1199,257,o),
(1048,71,o),
(828,-39,o),
(690,-39,q),
(555,-39,o),
(336,69,o),
(182,255,o),
(99,505,o),
(99,646,q)
);
},
{
closed = 1;
nodes = (
(224,545,o),
(283,341,o),
(400,178,o),
(575,76,o),
(690,76,q),
(804,76,o),
(978,175,o),
(1098,336,o),
(1158,541,o),
(1158,650,q),
(1158,758,o),
(1096,964,o),
(976,1123,o),
(804,1220,o),
(690,1220,q),
(571,1220,o),
(396,1116,o),
(281,953,o),
(224,749,o),
(224,650,q)
);
},
{
closed = 1;
nodes = (
(861,1465,l),
(741,1465,l),
(437,1729,l),
(683,1729,l)
);
}
);
width = 1381;
}
);
unicode = 210;
},
{
glyphname = Oacute;
layers = (
{
layerId = "099ACB0D-E961-4620-9891-F06BAF5780F3";
shapes = (
{
closed = 1;
nodes = (
(99,789,o),
(182,1041,o),
(336,1227,o),
(555,1335,o),
(690,1335,q),
(828,1335,o),
(1048,1225,o),
(1202,1036,o),
(1282,787,o),
(1282,646,q),
(1282,509,o),
(1199,257,o),
(1048,71,o),
(828,-39,o),
(690,-39,q),
(555,-39,o),
(336,69,o),
(182,255,o),
(99,505,o),
(99,646,q)
);
},
{
closed = 1;
nodes = (
(224,545,o),
(283,341,o),
(400,178,o),
(575,76,o),
(690,76,q),
(804,76,o),
(978,175,o),
(1098,336,o),
(1158,541,o),
(1158,650,q),
(1158,758,o),
(1096,964,o),
(976,1123,o),
(804,1220,o),
(690,1220,q),
(571,1220,o),
(396,1116,o),
(281,953,o),
(224,749,o),
(224,650,q)
);
},
{
closed = 1;
nodes = (
(495,1465,l),
(700,1729,l),
(946,1729,l),
(617,1465,l)
);
}
);
width = 1381;
}
);
unicode = 211;
},
{
glyphname = Ocircumflex;
layers = (
{
layerId = "099ACB0D-E961-4620-9891-F06BAF5780F3";
shapes = (
{
closed = 1;
nodes = (
(99,789,o),
(182,1041,o),
(336,1227,o),
(555,1335,o),
(690,1335,q),
(828,1335,o),
(1048,1225,o),
(1202,1036,o),
(1282,787,o),
(1282,646,q),
(1282,509,o),
(1199,257,o),
(1048,71,o),
(828,-39,o),
(690,-39,q),
(555,-39,o),
(336,69,o),
(182,255,o),
(99,505,o),
(99,646,q)
);
},
{
closed = 1;
nodes = (
(224,545,o),
(283,341,o),
(400,178,o),
(575,76,o),
(690,76,q),
(804,76,o),
(978,175,o),
(1098,336,o),
(1158,541,o),
(1158,650,q),
(1158,758,o),
(1096,964,o),
(976,1123,o),
(804,1220,o),
(690,1220,q),
(571,1220,o),
(396,1116,o),
(281,953,o),
(224,749,o),
(224,650,q)
);
},
{
closed = 1;
nodes = (
(986,1520,l),
(912,1461,l),
(679,1614,l),
(470,1461,l),
(393,1517,l),
(596,1735,l),
(773,1735,l)
);
}
);
width = 1381;
}
);
unicode = 212;
},
{
glyphname = Otilde;
layers = (
{
layerId = "099ACB0D-E961-4620-9891-F06BAF5780F3";
shapes = (
{
closed = 1;
nodes = (
(99,789,o),
(182,1041,o),
(336,1227,o),
(555,1335,o),
(690,1335,q),
(828,1335,o),
(1048,1225,o),
(1202,1036,o),
(1282,787,o),
(1282,646,q),
(1282,509,o),
(1199,257,o),
(1048,71,o),
(828,-39,o),
(690,-39,q),
(555,-39,o),
(336,69,o),
(182,255,o),
(99,505,o),
(99,646,q)
);
},
{
closed = 1;
nodes = (
(224,545,o),
(283,341,o),
(400,178,o),
(575,76,o),
(690,76,q),
(804,76,o),
(978,175,o),
(1098,336,o),
(1158,541,o),
(1158,650,q),
(1158,758,o),
(1096,964,o),
(976,1123,o),
(804,1220,o),
(690,1220,q),
(571,1220,o),
(396,1116,o),
(281,953,o),
(224,749,o),
(224,650,q)
);
},
{
closed = 1;
nodes = (
(1059,1701,l),
(1054,1696,o),
(1054,1685,q),
(1026,1588,o),
(903,1489,o),
(828,1489,q),
(789,1489,o),
(718,1522,o),
(665,1563,q),
(610,1604,o),
(564,1630,o),
(538,1630,q),
(492,1630,o),
(437,1556,o),
(419,1510,q),
(419,1507,o),
(417,1501,q),
(415,1496,l),
(323,1529,l),
(354,1616,o),
(453,1733,o),
(538,1733,q),
(593,1733,o),
(672,1687,o),
(709,1656,q),
(753,1623,o),
(810,1593,o),
(835,1593,q),
(865,1593,o),
(909,1623,o),
(940,1667,o),
(960,1713,o),
(967,1731,q)
);
}
);
width = 1381;
}
);
unicode = 213;
},
{
glyphname = Odieresis;
layers = (
{
layerId = "099ACB0D-E961-4620-9891-F06BAF5780F3";
shapes = (
{
closed = 1;
nodes = (
(99,789,o),
(182,1041,o),
(336,1227,o),
(555,1335,o),
(690,1335,q),
(828,1335,o),
(1048,1225,o),
(1202,1036,o),
(1282,787,o),
(1282,646,q),
(1282,509,o),
(1199,257,o),
(1048,71,o),
(828,-39,o),
(690,-39,q),
(555,-39,o),
(336,69,o),
(182,255,o),
(99,505,o),
(99,646,q)
);
},
{
closed = 1;
nodes = (
(224,545,o),
(283,341,o),
(400,178,o),
(575,76,o),
(690,76,q),
(804,76,o),
(978,175,o),
(1098,336,o),
(1158,541,o),
(1158,650,q),
(1158,758,o),
(1096,964,o),
(976,1123,o),
(804,1220,o),
(690,1220,q),
(571,1220,o),
(396,1116,o),
(281,953,o),
(224,749,o),
(224,650,q)
);
},
{
closed = 1;
nodes = (
(624,1735,l),
(624,1487,l),
(459,1487,l),
(459,1735,l)
);
},
{
closed = 1;
nodes = (
(923,1735,l),
(923,1487,l),
(758,1487,l),
(758,1735,l)
);
}
);
width = 1381;
}
);
unicode = 214;
},
{
glyphname = multiply;
layers = (
{
layerId = "099ACB0D-E961-4620-9891-F06BAF5780F3";
shapes = (
{
closed = 1;
nodes = (
(354,1123,l),
(690,787,l),
(1026,1123,l),
(1109,1043,l),
(771,705,l),
(1109,369,l),
(1026,285,l),
(690,624,l),
(354,285,l),
(272,369,l),
(610,705,l),
(272,1043,l)
);
}
);
width = 1381;
}
);
unicode = 215;
},
{
glyphname = Oslash;
layers = (
{
layerId = "099ACB0D-E961-4620-9891-F06BAF5780F3";
shapes = (
{
closed = 1;
nodes = (
(147,9,l),
(262,158,l),
(233,198,o),
(173,292,o),
(127,410,o),
(99,555,o),
(99,644,q),
(99,787,o),
(182,1039,o),
(336,1227,o),
(555,1335,o),
(692,1335,q),
(771,1335,o),
(889,1305,o),
(976,1261,o),
(1041,1211,o),
(1066,1193,q),
(1155,1305,l),
(1236,1245,l),
(1135,1116,l),
(1190,1050,o),
(1250,898,o),
(1278,760,o),
(1282,659,o),
(1282,642,q),
(1282,507,o),
(1202,257,o),
(1050,71,o),
(833,-39,o),
(700,-39,q),
(631,-39,o),
(444,2,o),
(341,85,q),
(226,-53,l)
);
},
{
closed = 1;
nodes = (
(407,180,l),
(424,165,o),
(472,132,o),
(541,99,o),
(631,76,o),
(690,76,q),
(797,76,o),
(969,165,o),
(1091,320,o),
(1158,527,o),
(1158,644,q),
(1158,845,o),
(1057,1015,q)
);
},
{
closed = 1;
nodes = (
(992,1098,l),
(958,1137,o),
(877,1186,o),
(797,1211,o),
(718,1220,o),
(688,1220,q),
(578,1220,o),
(405,1123,o),
(285,964,o),
(224,760,o),
(224,652,q),
(224,619,o),
(233,520,o),
(260,410,o),
(306,299,o),
(341,257,q)
);
}
);
width = 1381;
}
);
unicode = 216;
},
{
glyphname = Ugrave;
layers = (
{
layerId = "099ACB0D-E961-4620-9891-F06BAF5780F3";
shapes = (
{
closed = 1;
nodes = (
(571,1188,l),
(336,1188,l),
(336,538,l),
(336,468,o),
(347,306,o),
(380,239,q),
(413,171,o),
(555,76,o),
(688,76,q),
(824,76,o),
(969,156,o),
(1001,221,q),
(1036,283,o),
(1048,437,o),
(1048,516,q),
(1048,1188,l),
(813,1188,l),
(813,1296,l),
(1329,1296,l),
(1329,1188,l),
(1162,1188,l),
(1162,516,l),
(1162,428,o),
(1151,306,o),
(1128,217,o),
(1098,154,o),
(1080,129,q),
(1061,101,o),
(992,44,o),
(894,-7,o),
(767,-39,o),
(690,-39,q),
(650,-39,o),
(545,-26,o),
(439,16,o),
(338,85,o),
(299,141,q),
(270,182,o),
(237,288,o),
(224,396,o),
(221,499,o),
(221,538,q),
(221,1188,l),
(55,1188,l),
(55,1296,l),
(571,1296,l)
);
},
{
closed = 1;
nodes = (
(861,1465,l),
(741,1465,l),
(437,1729,l),
(683,1729,l)
);
}
);
width = 1381;
}
);
unicode = 217;
},
{
glyphname = Uacute;
layers = (
{
layerId = "099ACB0D-E961-4620-9891-F06BAF5780F3";
shapes = (
{
closed = 1;
nodes = (
(571,1188,l),
(336,1188,l),
(336,538,l),
(336,468,o),
(347,306,o),
(380,239,q),
(413,171,o),
(555,76,o),
(688,76,q),
(824,76,o),
(969,156,o),
(1001,221,q),
(1036,283,o),
(1048,437,o),
(1048,516,q),
(1048,1188,l),
(813,1188,l),
(813,1296,l),
(1329,1296,l),
(1329,1188,l),
(1162,1188,l),
(1162,516,l),
(1162,428,o),
(1151,306,o),
(1128,217,o),
(1098,154,o),
(1080,129,q),
(1061,101,o),
(992,44,o),
(894,-7,o),
(767,-39,o),
(690,-39,q),
(650,-39,o),
(545,-26,o),
(439,16,o),
(338,85,o),
(299,141,q),
(270,182,o),
(237,288,o),
(224,396,o),
(221,499,o),
(221,538,q),
(221,1188,l),
(55,1188,l),
(55,1296,l),
(571,1296,l)
);
},
{
closed = 1;
nodes = (
(495,1465,l),
(700,1729,l),
(946,1729,l),
(617,1465,l)
);
}
);
width = 1381;
}
);
unicode = 218;
},
{
glyphname = Ucircumflex;
layers = (
{
layerId = "099ACB0D-E961-4620-9891-F06BAF5780F3";
shapes = (
{
closed = 1;
nodes = (
(571,1188,l),
(336,1188,l),
(336,538,l),
(336,468,o),
(347,306,o),
(380,239,q),
(413,171,o),
(555,76,o),
(688,76,q),
(824,76,o),
(969,156,o),
(1001,221,q),
(1036,283,o),
(1048,437,o),
(1048,516,q),
(1048,1188,l),
(813,1188,l),
(813,1296,l),
(1329,1296,l),
(1329,1188,l),
(1162,1188,l),
(1162,516,l),
(1162,428,o),
(1151,306,o),
(1128,217,o),
(1098,154,o),
(1080,129,q),
(1061,101,o),
(992,44,o),
(894,-7,o),
(767,-39,o),
(690,-39,q),
(650,-39,o),
(545,-26,o),
(439,16,o),
(338,85,o),
(299,141,q),
(270,182,o),
(237,288,o),
(224,396,o),
(221,499,o),
(221,538,q),
(221,1188,l),
(55,1188,l),
(55,1296,l),
(571,1296,l)
);
},
{
closed = 1;
nodes = (
(986,1520,l),
(912,1461,l),
(679,1614,l),
(470,1461,l),
(393,1517,l),
(596,1735,l),
(773,1735,l)
);
}
);
width = 1381;
}
);
unicode = 219;
},
{
glyphname = Udieresis;
layers = (
{
layerId = "099ACB0D-E961-4620-9891-F06BAF5780F3";
shapes = (
{
closed = 1;
nodes = (
(571,1188,l),
(336,1188,l),
(336,538,l),
(336,468,o),
(347,306,o),
(380,239,q),
(413,171,o),
(555,76,o),
(688,76,q),
(824,76,o),
(969,156,o),
(1001,221,q),
(1036,283,o),
(1048,437,o),
(1048,516,q),
(1048,1188,l),
(813,1188,l),
(813,1296,l),
(1329,1296,l),
(1329,1188,l),
(1162,1188,l),
(1162,516,l),
(1162,428,o),
(1151,306,o),
(1128,217,o),
(1098,154,o),
(1080,129,q),
(1061,101,o),
(992,44,o),
(894,-7,o),
(767,-39,o),
(690,-39,q),
(650,-39,o),
(545,-26,o),
(439,16,o),
(338,85,o),
(299,141,q),
(270,182,o),
(237,288,o),
(224,396,o),
(221,499,o),
(221,538,q),
(221,1188,l),
(55,1188,l),
(55,1296,l),
(571,1296,l)
);
},
{
closed = 1;
nodes = (
(624,1735,l),
(624,1487,l),
(459,1487,l),
(459,1735,l)
);
},
{
closed = 1;
nodes = (
(923,1735,l),
(923,1487,l),
(758,1487,l),
(758,1735,l)
);
}
);
width = 1381;
}
);
unicode = 220;
},
{
glyphname = Yacute;
layers = (
{
layerId = "099ACB0D-E961-4620-9891-F06BAF5780F3";
shapes = (
{
closed = 1;
nodes = (
(525,1188,l),
(350,1188,l),
(698,617,l),
(1041,1188,l),
(861,1188,l),
(861,1296,l),
(1307,1296,l),
(1307,1188,l),
(1162,1188,l),
(751,501,l),
(751,108,l),
(1022,108,l),
(1022,0,l),
(362,0,l),
(362,108,l),
(635,108,l),
(635,501,l),
(219,1188,l),
(74,1188,l),
(74,1296,l),
(525,1296,l)
);
},
{
closed = 1;
nodes = (
(495,1465,l),
(700,1729,l),
(946,1729,l),
(617,1465,l)
);
}
);
width = 1381;
}
);
unicode = 221;
},
{
glyphname = Thorn;
layers = (
{
layerId = "099ACB0D-E961-4620-9891-F06BAF5780F3";
shapes = (
{
closed = 1;
nodes = (
(725,0,l),
(163,0,l),
(163,108,l),
(350,108,l),
(350,1188,l),
(163,1188,l),
(163,1296,l),
(725,1296,l),
(725,1188,l),
(465,1188,l),
(465,1070,l),
(591,1070,l),
(698,1070,o),
(843,1066,o),
(946,1050,o),
(1022,1022,o),
(1059,999,q),
(1133,953,o),
(1230,785,o),
(1230,679,q),
(1230,575,o),
(1133,393,o),
(1059,352,q),
(1017,327,o),
(940,299,o),
(835,285,o),
(695,283,o),
(591,283,q),
(465,283,l),
(465,108,l),
(725,108,l)
);
},
{
closed = 1;
nodes = (
(465,391,l),
(596,391,l),
(736,391,o),
(949,405,o),
(1008,453,q),
(1041,479,o),
(1105,589,o),
(1105,672,q),
(1105,767,o),
(1013,894,o),
(967,916,q),
(946,927,o),
(900,944,o),
(837,955,o),
(753,962,o),
(690,962,q),
(465,962,l)
);
}
);
width = 1381;
}
);
unicode = 222;
},
{
glyphname = germandbls;
layers = (
{
layerId = "099ACB0D-E961-4620-9891-F06BAF5780F3";
shapes = (
{
closed = 1;
nodes = (
(325,1039,l),
(325,1131,o),
(387,1280,o),
(490,1384,o),
(624,1439,o),
(698,1439,q),
(773,1439,o),
(896,1386,o),
(978,1296,o),
(1024,1177,o),
(1024,1109,q),
(1024,1006,o),
(914,850,o),
(833,817,q),
(865,806,o),
(982,758,o),
(1096,659,o),
(1181,495,o),
(1181,371,q),
(1181,294,o),
(1133,154,o),
(1036,48,o),
(896,-16,o),
(804,-16,q),
(690,-16,o),
(566,42,o),
(538,60,q),
(538,180,l),
(580,154,o),
(709,99,o),
(801,99,q),
(843,99,o),
(932,129,o),
(1008,196,o),
(1057,303,o),
(1057,382,q),
(1057,734,o),
(591,751,q),
(591,856,l),
(615,859,o),
(718,872,o),
(824,923,o),
(905,1019,o),
(905,1107,q),
(905,1199,o),
(799,1324,o),
(692,1324,q),
(650,1324,o),
(560,1294,o),
(486,1225,o),
(439,1107,o),
(439,1019,q),
(439,0,l),
(149,0,l),
(149,108,l),
(325,108,l)
);
}
);
width = 1381;
}
);
unicode = 223;
},
{
glyphname = agrave;
layers = (
{
layerId = "099ACB0D-E961-4620-9891-F06BAF5780F3";
shapes = (
{
closed = 1;
nodes = (
(1266,108,l),
(1266,0,l),
(946,0,l),
(946,165,l),
(912,134,o),
(817,62,o),
(707,4,o),
(578,-33,o),
(507,-33,q),
(419,-33,o),
(283,26,o),
(187,117,o),
(136,233,o),
(136,292,q),
(136,338,o),
(182,459,o),
(292,566,o),
(481,640,o),
(624,640,q),
(631,640,o),
(695,637,o),
(785,631,o),
(894,619,o),
(946,610,q),
(946,681,l),
(946,709,o),
(937,792,o),
(886,870,o),
(771,925,o),
(668,925,q),
(606,925,o),
(413,889,o),
(274,828,q),
(230,932,l),
(303,964,o),
(532,1036,o),
(670,1036,q),
(817,1036,o),
(976,951,o),
(1050,833,o),
(1061,716,o),
(1061,681,q),
(1061,108,l)
);
},
{
closed = 1;
nodes = (
(946,505,l),
(907,511,o),
(744,529,o),
(646,529,q),
(505,529,o),
(347,463,o),
(274,378,o),
(260,299,o),
(260,290,q),
(260,246,o),
(299,171,o),
(369,112,o),
(456,79,o),
(505,79,q),
(532,79,o),
(622,92,o),
(736,141,o),
(872,237,o),
(946,320,q)
);
},
{
closed = 1;
nodes = (
(861,1158,l),
(741,1158,l),
(437,1423,l),
(683,1423,l)
);
}
);
width = 1381;
}
);
unicode = 224;
},
{
glyphname = aacute;
layers = (
{
layerId = "099ACB0D-E961-4620-9891-F06BAF5780F3";
shapes = (
{
closed = 1;
nodes = (
(1266,108,l),
(1266,0,l),
(946,0,l),
(946,165,l),
(912,134,o),
(817,62,o),
(707,4,o),
(578,-33,o),
(507,-33,q),
(419,-33,o),
(283,26,o),
(187,117,o),
(136,233,o),
(136,292,q),
(136,338,o),
(182,459,o),
(292,566,o),
(481,640,o),
(624,640,q),
(631,640,o),
(695,637,o),
(785,631,o),
(894,619,o),
(946,610,q),
(946,681,l),
(946,709,o),
(937,792,o),
(886,870,o),
(771,925,o),
(668,925,q),
(606,925,o),
(413,889,o),
(274,828,q),
(230,932,l),
(303,964,o),
(532,1036,o),
(670,1036,q),
(817,1036,o),
(976,951,o),
(1050,833,o),
(1061,716,o),
(1061,681,q),
(1061,108,l)
);
},
{
closed = 1;
nodes = (
(946,505,l),
(907,511,o),
(744,529,o),
(646,529,q),
(505,529,o),
(347,463,o),
(274,378,o),
(260,299,o),
(260,290,q),
(260,246,o),
(299,171,o),
(369,112,o),
(456,79,o),
(505,79,q),
(532,79,o),
(622,92,o),
(736,141,o),
(872,237,o),
(946,320,q)
);
},
{
closed = 1;
nodes = (
(495,1158,l),
(700,1423,l),
(946,1423,l),
(617,1158,l)
);
}
);
width = 1381;
}
);
unicode = 225;
},
{
glyphname = acircumflex;
layers = (
{
layerId = "099ACB0D-E961-4620-9891-F06BAF5780F3";
shapes = (
{
closed = 1;
nodes = (
(1266,108,l),
(1266,0,l),
(946,0,l),
(946,165,l),
(912,134,o),
(817,62,o),
(707,4,o),
(578,-33,o),
(507,-33,q),
(419,-33,o),
(283,26,o),
(187,117,o),
(136,233,o),
(136,292,q),
(136,338,o),
(182,459,o),
(292,566,o),
(481,640,o),
(624,640,q),
(631,640,o),
(695,637,o),
(785,631,o),
(894,619,o),
(946,610,q),
(946,681,l),
(946,709,o),
(937,792,o),
(886,870,o),
(771,925,o),
(668,925,q),
(606,925,o),
(413,889,o),
(274,828,q),
(230,932,l),
(303,964,o),
(532,1036,o),
(670,1036,q),
(817,1036,o),
(976,951,o),
(1050,833,o),
(1061,716,o),
(1061,681,q),
(1061,108,l)
);
},
{
closed = 1;
nodes = (
(946,505,l),
(907,511,o),
(744,529,o),
(646,529,q),
(505,529,o),
(347,463,o),
(274,378,o),
(260,299,o),
(260,290,q),
(260,246,o),
(299,171,o),
(369,112,o),
(456,79,o),
(505,79,q),
(532,79,o),
(622,92,o),
(736,141,o),
(872,237,o),
(946,320,q)
);
},
{
closed = 1;
nodes = (
(942,1213,l),
(868,1155,l),
(635,1307,l),
(426,1155,l),
(350,1211,l),
(553,1430,l),
(729,1430,l)
);
}
);
width = 1381;
}
);
unicode = 226;
},
{
glyphname = atilde;
layers = (
{
layerId = "099ACB0D-E961-4620-9891-F06BAF5780F3";
shapes = (
{
closed = 1;
nodes = (
(1266,108,l),
(1266,0,l),
(946,0,l),
(946,165,l),
(912,134,o),
(817,62,o),
(707,4,o),
(578,-33,o),
(507,-33,q),
(419,-33,o),
(283,26,o),
(187,117,o),
(136,233,o),
(136,292,q),
(136,338,o),
(182,459,o),
(292,566,o),
(481,640,o),
(624,640,q),
(631,640,o),
(695,637,o),
(785,631,o),
(894,619,o),
(946,610,q),
(946,681,l),
(946,709,o),
(937,792,o),
(886,870,o),
(771,925,o),
(668,925,q),
(606,925,o),
(413,889,o),
(274,828,q),
(230,932,l),
(303,964,o),
(532,1036,o),
(670,1036,q),
(817,1036,o),
(976,951,o),
(1050,833,o),
(1061,716,o),
(1061,681,q),
(1061,108,l)
);
},
{
closed = 1;
nodes = (
(946,505,l),
(907,511,o),
(744,529,o),
(646,529,q),
(505,529,o),
(347,463,o),
(274,378,o),
(260,299,o),
(260,290,q),
(260,246,o),
(299,171,o),
(369,112,o),
(456,79,o),
(505,79,q),
(532,79,o),
(622,92,o),
(736,141,o),
(872,237,o),
(946,320,q)
);
},
{
closed = 1;
nodes = (
(1059,1395,l),
(1054,1390,o),
(1054,1379,q),
(1026,1282,o),
(903,1184,o),
(828,1184,q),
(789,1184,o),
(718,1215,o),
(665,1257,q),
(610,1298,o),
(564,1324,o),
(538,1324,q),
(492,1324,o),
(437,1250,o),
(419,1204,q),
(419,1202,o),
(417,1197,q),
(415,1190,l),
(323,1222,l),
(354,1309,o),
(453,1427,o),
(538,1427,q),
(593,1427,o),
(672,1381,o),
(709,1349,q),
(753,1316,o),
(810,1287,o),
(835,1287,q),
(865,1287,o),
(909,1316,o),
(940,1360,o),
(960,1406,o),
(967,1425,q)
);
}
);
width = 1381;
}
);
unicode = 227;
},
{
glyphname = adieresis;
layers = (
{
layerId = "099ACB0D-E961-4620-9891-F06BAF5780F3";
shapes = (
{
closed = 1;
nodes = (
(1266,108,l),
(1266,0,l),
(946,0,l),
(946,165,l),
(912,134,o),
(817,62,o),
(707,4,o),
(578,-33,o),
(507,-33,q),
(419,-33,o),
(283,26,o),
(187,117,o),
(136,233,o),
(136,292,q),
(136,338,o),
(182,459,o),
(292,566,o),
(481,640,o),
(624,640,q),
(631,640,o),
(695,637,o),
(785,631,o),
(894,619,o),
(946,610,q),
(946,681,l),
(946,709,o),
(937,792,o),
(886,870,o),
(771,925,o),
(668,925,q),
(606,925,o),
(413,889,o),
(274,828,q),
(230,932,l),
(303,964,o),
(532,1036,o),
(670,1036,q),
(817,1036,o),
(976,951,o),
(1050,833,o),
(1061,716,o),
(1061,681,q),
(1061,108,l)
);
},
{
closed = 1;
nodes = (
(946,505,l),
(907,511,o),
(744,529,o),
(646,529,q),
(505,529,o),
(347,463,o),
(274,378,o),
(260,299,o),
(260,290,q),
(260,246,o),
(299,171,o),
(369,112,o),
(456,79,o),
(505,79,q),
(532,79,o),
(622,92,o),
(736,141,o),
(872,237,o),
(946,320,q)
);
},
{
closed = 1;
nodes = (
(580,1430,l),
(580,1181,l),
(415,1181,l),
(415,1430,l)
);
},
{
closed = 1;
nodes = (
(879,1430,l),
(879,1181,l),
(714,1181,l),
(714,1430,l)
);
}
);
width = 1381;
}
);
unicode = 228;
},
{
glyphname = aring;
layers = (
{
layerId = "099ACB0D-E961-4620-9891-F06BAF5780F3";
shapes = (
{
closed = 1;
nodes = (
(1266,108,l),
(1266,0,l),
(946,0,l),
(946,165,l),
(912,134,o),
(817,62,o),
(707,4,o),
(578,-33,o),
(507,-33,q),
(419,-33,o),
(283,26,o),
(187,117,o),
(136,233,o),
(136,292,q),
(136,338,o),
(182,459,o),
(292,566,o),
(481,640,o),
(624,640,q),
(631,640,o),
(695,637,o),
(785,631,o),
(894,619,o),
(946,610,q),
(946,681,l),
(946,709,o),
(937,792,o),
(886,870,o),
(771,925,o),
(668,925,q),
(606,925,o),
(413,889,o),
(274,828,q),
(230,932,l),
(303,964,o),
(532,1036,o),
(670,1036,q),
(817,1036,o),
(976,951,o),
(1050,833,o),
(1061,716,o),
(1061,681,q),
(1061,108,l)
);
},
{
closed = 1;
nodes = (
(946,505,l),
(907,511,o),
(744,529,o),
(646,529,q),
(505,529,o),
(347,463,o),
(274,378,o),
(260,299,o),
(260,290,q),
(260,246,o),
(299,171,o),
(369,112,o),
(456,79,o),
(505,79,q),
(532,79,o),
(622,92,o),
(736,141,o),
(872,237,o),
(946,320,q)
);
},
{
closed = 1;
nodes = (
(764,1478,o),
(865,1377,o),
(865,1303,q),
(865,1230,o),
(764,1128,o),
(690,1128,q),
(617,1128,o),
(516,1230,o),
(516,1303,q),
(516,1377,o),
(617,1478,o),
(690,1478,q)
);
},
{
closed = 1;
nodes = (
(656,1390,o),
(604,1344,o),
(604,1303,q),
(604,1266,o),
(656,1215,o),
(692,1215,q),
(729,1215,o),
(778,1266,o),
(778,1303,q),
(778,1340,o),
(729,1390,o),
(692,1390,q)
);
}
);
width = 1381;
}
);
unicode = 229;
},
{
glyphname = ae;
layers = (
{
layerId = "099ACB0D-E961-4620-9891-F06BAF5780F3";
shapes = (
{
closed = 1;
nodes = (
(736,468,l),
(741,369,o),
(764,235,o),
(810,175,q),
(863,106,o),
(973,79,o),
(1006,79,q),
(1075,79,o),
(1208,110,o),
(1266,129,q),
(1307,30,l),
(1184,-13,o),
(1032,-33,o),
(1001,-33,q),
(932,-33,o),
(831,9,o),
(760,64,o),
(716,123,o),
(705,138,q),
(652,85,o),
(553,16,o),
(465,-20,o),
(391,-35,o),
(362,-35,q),
(292,-35,o),
(187,16,o),
(112,101,o),
(76,209,o),
(76,268,q),
(76,325,o),
(123,448,o),
(211,547,o),
(350,613,o),
(444,613,q),
(483,613,o),
(558,601,o),
(622,591,q),
(622,672,l),
(622,792,o),
(558,925,o),
(453,925,q),
(393,925,o),
(274,898,o),
(178,863,q),
(145,964,l),
(242,1001,o),
(384,1036,o),
(456,1036,q),
(518,1036,o),
(604,1008,o),
(659,960,o),
(692,898,o),
(705,863,q),
(723,886,o),
(771,949,o),
(837,999,o),
(923,1036,o),
(978,1036,q),
(988,1036,o),
(1045,1028,o),
(1121,997,o),
(1202,927,o),
(1266,801,o),
(1303,608,o),
(1296,468,q)
);
},
{
closed = 1;
nodes = (
(622,481,l),
(562,492,o),
(486,501,o),
(446,501,q),
(369,501,o),
(270,451,o),
(211,380,o),
(191,297,o),
(191,268,q),
(191,233,o),
(211,165,o),
(253,110,o),
(316,76,o),
(359,76,q),
(400,76,o),
(481,103,o),
(547,145,o),
(604,189,o),
(622,205,q)
);
},
{
closed = 1;
nodes = (
(1181,575,l),
(1169,925,o),
(976,925,q),
(916,925,o),
(833,863,o),
(808,833,q),
(758,771,o),
(738,650,o),
(736,575,q)
);
}
);
width = 1381;
}
);
unicode = 230;
},
{
glyphname = ccedilla;
layers = (
{
layerId = "099ACB0D-E961-4620-9891-F06BAF5780F3";
shapes = (
{
closed = 1;
nodes = (
(760,-60,l),
(808,-71,o),
(854,-147,o),
(854,-187,q),
(854,-205,o),
(841,-255,o),
(810,-301,o),
(758,-332,o),
(716,-332,q),
(670,-332,o),
(610,-299,o),
(582,-281,q),
(633,-196,l),
(670,-221,o),
(690,-230,o),
(707,-230,q),
(734,-230,o),
(751,-200,o),
(751,-189,q),
(751,-158,o),
(711,-149,o),
(703,-149,q),
(683,-149,o),
(661,-152,o),
(650,-154,q),
(659,-30,l),
(569,-28,o),
(391,46,o),
(251,182,o),
(163,375,o),
(163,497,q),
(163,589,o),
(230,776,o),
(364,927,o),
(571,1024,o),
(714,1024,q),
(804,1024,o),
(942,980,o),
(1013,930,q),
(1015,927,o),
(1041,909,o),
(1059,896,o),
(1061,896,q),
(1068,896,o),
(1077,921,o),
(1080,925,q),
(1098,1019,l),
(1204,1008,l),
(1199,973,o),
(1184,856,o),
(1184,797,q),
(1184,734,o),
(1190,644,q),
(1085,628,l),
(1066,707,o),
(1034,797,o),
(990,833,q),
(958,859,o),
(883,889,o),
(813,905,o),
(749,909,o),
(725,909,q),
(615,909,o),
(451,837,o),
(341,720,o),
(288,575,o),
(288,499,q),
(288,426,o),
(338,279,o),
(442,158,o),
(604,83,o),
(716,83,q),
(841,83,o),
(1077,191,o),
(1204,279,q),
(1263,191,l),
(1137,94,o),
(905,-16,o),
(760,-30,q)
);
}
);
width = 1381;
}
);
unicode = 231;
},
{
glyphname = egrave;
layers = (
{
layerId = "099ACB0D-E961-4620-9891-F06BAF5780F3";
shapes = (
{
closed = 1;
nodes = (
(1287,132,l),
(1241,106,o),
(1116,48,o),
(971,0,o),
(810,-33,o),
(729,-33,q),
(589,-33,o),
(380,55,o),
(239,200,o),
(171,391,o),
(171,492,q),
(171,598,o),
(246,792,o),
(387,940,o),
(589,1024,o),
(716,1024,q),
(847,1024,o),
(1043,942,o),
(1173,808,o),
(1239,644,o),
(1239,566,q),
(1239,538,o),
(1234,474,o),
(1234,463,q),
(294,463,l),
(297,417,o),
(334,285,o),
(430,165,o),
(598,79,o),
(732,79,q),
(804,79,o),
(953,112,o),
(1087,161,o),
(1197,214,o),
(1234,233,q)
);
},
{
closed = 1;
nodes = (
(1114,571,l),
(1114,626,o),
(1066,749,o),
(969,850,o),
(819,914,o),
(716,914,q),
(601,914,o),
(446,835,o),
(350,727,o),
(301,610,o),
(294,571,q)
);
},
{
closed = 1;
nodes = (
(900,1158,l),
(780,1158,l),
(477,1423,l),
(723,1423,l)
);
}
);
width = 1381;
}
);
unicode = 232;
},
{
glyphname = eacute;
layers = (
{
layerId = "099ACB0D-E961-4620-9891-F06BAF5780F3";
shapes = (
{
closed = 1;
nodes = (
(1287,132,l),
(1241,106,o),
(1116,48,o),
(971,0,o),
(810,-33,o),
(729,-33,q),
(589,-33,o),
(380,55,o),
(239,200,o),
(171,391,o),
(171,492,q),
(171,598,o),
(246,792,o),
(387,940,o),
(589,1024,o),
(716,1024,q),
(847,1024,o),
(1043,942,o),
(1173,808,o),
(1239,644,o),
(1239,566,q),
(1239,538,o),
(1234,474,o),
(1234,463,q),
(294,463,l),
(297,417,o),
(334,285,o),
(430,165,o),
(598,79,o),
(732,79,q),
(804,79,o),
(953,112,o),
(1087,161,o),
(1197,214,o),
(1234,233,q)
);
},
{
closed = 1;
nodes = (
(1114,571,l),
(1114,626,o),
(1066,749,o),
(969,850,o),
(819,914,o),
(716,914,q),
(601,914,o),
(446,835,o),
(350,727,o),
(301,610,o),
(294,571,q)
);
},
{
closed = 1;
nodes = (
(495,1158,l),
(700,1423,l),
(946,1423,l),
(617,1158,l)
);
}
);
width = 1381;
}
);
unicode = 233;
},
{
glyphname = ecircumflex;
layers = (
{
layerId = "099ACB0D-E961-4620-9891-F06BAF5780F3";
shapes = (
{
closed = 1;
nodes = (
(1287,132,l),
(1241,106,o),
(1116,48,o),
(971,0,o),
(810,-33,o),
(729,-33,q),
(589,-33,o),
(380,55,o),
(239,200,o),
(171,391,o),
(171,492,q),
(171,598,o),
(246,792,o),
(387,940,o),
(589,1024,o),
(716,1024,q),
(847,1024,o),
(1043,942,o),
(1173,808,o),
(1239,644,o),
(1239,566,q),
(1239,538,o),
(1234,474,o),
(1234,463,q),
(294,463,l),
(297,417,o),
(334,285,o),
(430,165,o),
(598,79,o),
(732,79,q),
(804,79,o),
(953,112,o),
(1087,161,o),
(1197,214,o),
(1234,233,q)
);
},
{
closed = 1;
nodes = (
(1114,571,l),
(1114,626,o),
(1066,749,o),
(969,850,o),
(819,914,o),
(716,914,q),
(601,914,o),
(446,835,o),
(350,727,o),
(301,610,o),
(294,571,q)
);
},
{
closed = 1;
nodes = (
(986,1213,l),
(912,1155,l),
(679,1307,l),
(470,1155,l),
(393,1211,l),
(596,1430,l),
(773,1430,l)
);
}
);
width = 1381;
}
);
unicode = 234;
},
{
glyphname = edieresis;
layers = (
{
layerId = "099ACB0D-E961-4620-9891-F06BAF5780F3";
shapes = (
{
closed = 1;
nodes = (
(1287,132,l),
(1241,106,o),
(1116,48,o),
(971,0,o),
(810,-33,o),
(729,-33,q),
(589,-33,o),
(380,55,o),
(239,200,o),
(171,391,o),
(171,492,q),
(171,598,o),
(246,792,o),
(387,940,o),
(589,1024,o),
(716,1024,q),
(847,1024,o),
(1043,942,o),
(1173,808,o),
(1239,644,o),
(1239,566,q),
(1239,538,o),
(1234,474,o),
(1234,463,q),
(294,463,l),
(297,417,o),
(334,285,o),
(430,165,o),
(598,79,o),
(732,79,q),
(804,79,o),
(953,112,o),
(1087,161,o),
(1197,214,o),
(1234,233,q)
);
},
{
closed = 1;
nodes = (
(1114,571,l),
(1114,626,o),
(1066,749,o),
(969,850,o),
(819,914,o),
(716,914,q),
(601,914,o),
(446,835,o),
(350,727,o),
(301,610,o),
(294,571,q)
);
},
{
closed = 1;
nodes = (
(624,1430,l),
(624,1181,l),
(459,1181,l),
(459,1430,l)
);
},
{
closed = 1;
nodes = (
(923,1430,l),
(923,1181,l),
(758,1181,l),
(758,1430,l)
);
}
);
width = 1381;
}
);
unicode = 235;
},
{
glyphname = igrave;
layers = (
{
layerId = "099ACB0D-E961-4620-9891-F06BAF5780F3";
shapes = (
{
closed = 1;
nodes = (
(861,1158,l),
(741,1158,l),
(437,1423,l),
(683,1423,l)
);
},
{
closed = 1;
nodes = (
(753,108,l),
(1151,108,l),
(1151,0,l),
(233,0,l),
(233,108,l),
(637,108,l),
(637,881,l),
(299,881,l),
(299,990,l),
(753,990,l)
);
}
);
width = 1381;
}
);
unicode = 236;
},
{
glyphname = iacute;
layers = (
{
layerId = "099ACB0D-E961-4620-9891-F06BAF5780F3";
shapes = (
{
closed = 1;
nodes = (
(495,1158,l),
(700,1423,l),
(946,1423,l),
(617,1158,l)
);
},
{
closed = 1;
nodes = (
(753,108,l),
(1151,108,l),
(1151,0,l),
(233,0,l),
(233,108,l),
(637,108,l),
(637,881,l),
(299,881,l),
(299,990,l),
(753,990,l)
);
}
);
width = 1381;
}
);
unicode = 237;
},
{
glyphname = icircumflex;
layers = (
{
layerId = "099ACB0D-E961-4620-9891-F06BAF5780F3";
shapes = (
{
closed = 1;
nodes = (
(986,1213,l),
(912,1155,l),
(679,1307,l),
(470,1155,l),
(393,1211,l),
(596,1430,l),
(773,1430,l)
);
},
{
closed = 1;
nodes = (
(753,108,l),
(1151,108,l),
(1151,0,l),
(233,0,l),
(233,108,l),
(637,108,l),
(637,881,l),
(299,881,l),
(299,990,l),
(753,990,l)
);
}
);
width = 1381;
}
);
unicode = 238;
},
{
glyphname = idieresis;
layers = (
{
layerId = "099ACB0D-E961-4620-9891-F06BAF5780F3";
shapes = (
{
closed = 1;
nodes = (
(624,1430,l),
(624,1181,l),
(459,1181,l),
(459,1430,l)
);
},
{
closed = 1;
nodes = (
(923,1430,l),
(923,1181,l),
(758,1181,l),
(758,1430,l)
);
},
{
closed = 1;
nodes = (
(753,108,l),
(1151,108,l),
(1151,0,l),
(233,0,l),
(233,108,l),
(637,108,l),
(637,881,l),
(299,881,l),
(299,990,l),
(753,990,l)
);
}
);
width = 1381;
}
);
unicode = 239;
},
{
glyphname = eth;
layers = (
{
layerId = "099ACB0D-E961-4620-9891-F06BAF5780F3";
shapes = (
{
closed = 1;
nodes = (
(391,1188,l),
(507,1362,l),
(463,1384,o),
(398,1413,o),
(341,1436,o),
(285,1454,o),
(251,1467,q),
(290,1579,l),
(334,1566,o),
(400,1542,o),
(463,1517,o),
(529,1487,o),
(571,1467,q),
(665,1621,l),
(764,1556,l),
(674,1413,l),
(709,1393,o),
(824,1316,o),
(955,1208,o),
(1087,1063,o),
(1195,879,o),
(1261,656,o),
(1261,523,q),
(1261,389,o),
(1173,182,o),
(1019,42,o),
(810,-33,o),
(690,-33,q),
(547,-33,o),
(334,60,o),
(191,209,o),
(119,400,o),
(119,501,q),
(119,628,o),
(211,826,o),
(366,964,o),
(564,1036,o),
(670,1036,q),
(760,1036,o),
(934,999,o),
(986,973,q),
(990,978,l),
(958,1019,o),
(894,1096,o),
(808,1177,o),
(692,1259,o),
(610,1307,q),
(490,1118,l)
);
},
{
closed = 1;
nodes = (
(244,419,o),
(301,268,o),
(417,147,o),
(582,76,o),
(690,76,q),
(801,76,o),
(969,149,o),
(1080,270,o),
(1137,422,o),
(1137,501,q),
(1137,580,o),
(1080,734,o),
(967,854,o),
(801,927,o),
(690,927,q),
(582,927,o),
(417,856,o),
(303,738,o),
(244,584,o),
(244,501,q)
);
}
);
width = 1381;
}
);
unicode = 240;
},
{
glyphname = ntilde;
layers = (
{
layerId = "099ACB0D-E961-4620-9891-F06BAF5780F3";
shapes = (
{
closed = 1;
nodes = (
(382,861,l),
(419,889,o),
(507,946,o),
(606,995,o),
(716,1024,o),
(778,1024,q),
(856,1024,o),
(982,969,o),
(1072,868,o),
(1121,727,o),
(1121,644,q),
(1121,108,l),
(1305,108,l),
(1305,0,l),
(808,0,l),
(808,108,l),
(1006,108,l),
(1006,635,l),
(1006,762,o),
(883,909,o),
(780,909,q),
(753,909,o),
(679,898,o),
(582,859,o),
(461,787,o),
(382,725,q),
(382,108,l),
(575,108,l),
(575,0,l),
(79,0,l),
(79,108,l),
(268,108,l),
(268,881,l),
(79,881,l),
(79,990,l),
(382,990,l)
);
},
{
closed = 1;
nodes = (
(1059,1395,l),
(1054,1390,o),
(1054,1379,q),
(1026,1282,o),
(903,1184,o),
(828,1184,q),
(789,1184,o),
(718,1215,o),
(665,1257,q),
(610,1298,o),
(564,1324,o),
(538,1324,q),
(492,1324,o),
(437,1250,o),
(419,1204,q),
(419,1202,o),
(417,1197,q),
(415,1190,l),
(323,1222,l),
(354,1309,o),
(453,1427,o),
(538,1427,q),
(593,1427,o),
(672,1381,o),
(709,1349,q),
(753,1316,o),
(810,1287,o),
(835,1287,q),
(865,1287,o),
(909,1316,o),
(940,1360,o),
(960,1406,o),
(967,1425,q)
);
}
);
width = 1381;
}
);
unicode = 241;
},
{
glyphname = ograve;
layers = (
{
layerId = "099ACB0D-E961-4620-9891-F06BAF5780F3";
shapes = (
{
closed = 1;
nodes = (
(119,606,o),
(193,799,o),
(336,946,o),
(550,1036,o),
(690,1036,q),
(835,1036,o),
(1050,944,o),
(1190,792,o),
(1261,601,o),
(1261,501,q),
(1261,402,o),
(1190,211,o),
(1050,60,o),
(835,-33,o),
(690,-33,q),
(550,-33,o),
(336,57,o),
(193,207,o),
(119,398,o),
(119,501,q)
);
},
{
closed = 1;
nodes = (
(244,422,o),
(301,270,o),
(415,152,o),
(582,83,o),
(690,83,q),
(801,83,o),
(969,154,o),
(1080,272,o),
(1137,422,o),
(1137,501,q),
(1137,580,o),
(1080,732,o),
(969,850,o),
(801,921,o),
(690,921,q),
(582,921,o),
(417,852,o),
(301,734,o),
(244,584,o),
(244,501,q)
);
},
{
closed = 1;
nodes = (
(861,1158,l),
(741,1158,l),
(437,1423,l),
(683,1423,l)
);
}
);
width = 1381;
}
);
unicode = 242;
},
{
glyphname = oacute;
layers = (
{
layerId = "099ACB0D-E961-4620-9891-F06BAF5780F3";
shapes = (
{
closed = 1;
nodes = (
(119,606,o),
(193,799,o),
(336,946,o),
(550,1036,o),
(690,1036,q),
(835,1036,o),
(1050,944,o),
(1190,792,o),
(1261,601,o),
(1261,501,q),
(1261,402,o),
(1190,211,o),
(1050,60,o),
(835,-33,o),
(690,-33,q),
(550,-33,o),
(336,57,o),
(193,207,o),
(119,398,o),
(119,501,q)
);
},
{
closed = 1;
nodes = (
(244,422,o),
(301,270,o),
(415,152,o),
(582,83,o),
(690,83,q),
(801,83,o),
(969,154,o),
(1080,272,o),
(1137,422,o),
(1137,501,q),
(1137,580,o),
(1080,732,o),
(969,850,o),
(801,921,o),
(690,921,q),
(582,921,o),
(417,852,o),
(301,734,o),
(244,584,o),
(244,501,q)
);
},
{
closed = 1;
nodes = (
(495,1158,l),
(700,1423,l),
(946,1423,l),
(617,1158,l)
);
}
);
width = 1381;
}
);
unicode = 243;
},
{
glyphname = ocircumflex;
layers = (
{
layerId = "099ACB0D-E961-4620-9891-F06BAF5780F3";
shapes = (
{
closed = 1;
nodes = (
(119,606,o),
(193,799,o),
(336,946,o),
(550,1036,o),
(690,1036,q),
(835,1036,o),
(1050,944,o),
(1190,792,o),
(1261,601,o),
(1261,501,q),
(1261,402,o),
(1190,211,o),
(1050,60,o),
(835,-33,o),
(690,-33,q),
(550,-33,o),
(336,57,o),
(193,207,o),
(119,398,o),
(119,501,q)
);
},
{
closed = 1;
nodes = (
(244,422,o),
(301,270,o),
(415,152,o),
(582,83,o),
(690,83,q),
(801,83,o),
(969,154,o),
(1080,272,o),
(1137,422,o),
(1137,501,q),
(1137,580,o),
(1080,732,o),
(969,850,o),
(801,921,o),
(690,921,q),
(582,921,o),
(417,852,o),
(301,734,o),
(244,584,o),
(244,501,q)
);
},
{
closed = 1;
nodes = (
(986,1213,l),
(912,1155,l),
(679,1307,l),
(470,1155,l),
(393,1211,l),
(596,1430,l),
(773,1430,l)
);
}
);
width = 1381;
}
);
unicode = 244;
},
{
glyphname = otilde;
layers = (
{
layerId = "099ACB0D-E961-4620-9891-F06BAF5780F3";
shapes = (
{
closed = 1;
nodes = (
(119,606,o),
(193,799,o),
(336,946,o),
(550,1036,o),
(690,1036,q),
(835,1036,o),
(1050,944,o),
(1190,792,o),
(1261,601,o),
(1261,501,q),
(1261,402,o),
(1190,211,o),
(1050,60,o),
(835,-33,o),
(690,-33,q),
(550,-33,o),
(336,57,o),
(193,207,o),
(119,398,o),
(119,501,q)
);
},
{
closed = 1;
nodes = (
(244,422,o),
(301,270,o),
(415,152,o),
(582,83,o),
(690,83,q),
(801,83,o),
(969,154,o),
(1080,272,o),
(1137,422,o),
(1137,501,q),
(1137,580,o),
(1080,732,o),
(969,850,o),
(801,921,o),
(690,921,q),
(582,921,o),
(417,852,o),
(301,734,o),
(244,584,o),
(244,501,q)
);
},
{
closed = 1;
nodes = (
(1059,1395,l),
(1054,1390,o),
(1054,1379,q),
(1026,1282,o),
(903,1184,o),
(828,1184,q),
(789,1184,o),
(718,1215,o),
(665,1257,q),
(610,1298,o),
(564,1324,o),
(538,1324,q),
(492,1324,o),
(437,1250,o),
(419,1204,q),
(419,1202,o),
(417,1197,q),
(415,1190,l),
(323,1222,l),
(354,1309,o),
(453,1427,o),
(538,1427,q),
(593,1427,o),
(672,1381,o),
(709,1349,q),
(753,1316,o),
(810,1287,o),
(835,1287,q),
(865,1287,o),
(909,1316,o),
(940,1360,o),
(960,1406,o),
(967,1425,q)
);
}
);
width = 1381;
}
);
unicode = 245;
},
{
glyphname = odieresis;
layers = (
{
layerId = "099ACB0D-E961-4620-9891-F06BAF5780F3";
shapes = (
{
closed = 1;
nodes = (
(119,606,o),
(193,799,o),
(336,946,o),
(550,1036,o),
(690,1036,q),
(835,1036,o),
(1050,944,o),
(1190,792,o),
(1261,601,o),
(1261,501,q),
(1261,402,o),
(1190,211,o),
(1050,60,o),
(835,-33,o),
(690,-33,q),
(550,-33,o),
(336,57,o),
(193,207,o),
(119,398,o),
(119,501,q)
);
},
{
closed = 1;
nodes = (
(244,422,o),
(301,270,o),
(415,152,o),
(582,83,o),
(690,83,q),
(801,83,o),
(969,154,o),
(1080,272,o),
(1137,422,o),
(1137,501,q),
(1137,580,o),
(1080,732,o),
(969,850,o),
(801,921,o),
(690,921,q),
(582,921,o),
(417,852,o),
(301,734,o),
(244,584,o),
(244,501,q)
);
},
{
closed = 1;
nodes = (
(624,1430,l),
(624,1181,l),
(459,1181,l),
(459,1430,l)
);
},
{
closed = 1;
nodes = (
(923,1430,l),
(923,1181,l),
(758,1181,l),
(758,1430,l)
);
}
);
width = 1381;
}
);
unicode = 246;
},
{
glyphname = divide;
layers = (
{
layerId = "099ACB0D-E961-4620-9891-F06BAF5780F3";
shapes = (
{
closed = 1;
nodes = (
(732,1215,o),
(795,1158,o),
(795,1112,q),
(795,1070,o),
(736,1008,o),
(690,1008,q),
(646,1008,o),
(587,1070,o),
(587,1112,q),
(587,1158,o),
(652,1215,o),
(690,1215,q)
);
},
{
closed = 1;
nodes = (
(1230,640,l),
(152,640,l),
(152,755,l),
(1230,755,l)
);
},
{
closed = 1;
nodes = (
(729,387,o),
(795,329,o),
(795,283,q),
(795,237,o),
(729,180,o),
(690,180,q),
(650,180,o),
(587,239,o),
(587,283,q),
(587,329,o),
(650,387,o),
(690,387,q)
);
}
);
width = 1381;
}
);
unicode = 247;
},
{
glyphname = oslash;
layers = (
{
layerId = "099ACB0D-E961-4620-9891-F06BAF5780F3";
shapes = (
{
closed = 1;
nodes = (
(138,53,l),
(244,158,l),
(205,207,o),
(156,306,o),
(129,398,o),
(119,477,o),
(119,505,q),
(119,604,o),
(191,797,o),
(336,944,o),
(547,1036,o),
(690,1036,q),
(771,1036,o),
(967,992,o),
(1041,932,q),
(1153,1048,l),
(1241,960,l),
(1135,854,l),
(1177,806,o),
(1227,703,o),
(1252,608,o),
(1261,527,o),
(1261,501,q),
(1261,398,o),
(1188,205,o),
(1043,55,o),
(831,-33,o),
(695,-33,q),
(683,-33,o),
(610,-30,o),
(509,-9,o),
(389,35,o),
(334,74,q),
(228,-33,l)
);
},
{
closed = 1;
nodes = (
(424,156,l),
(444,143,o),
(488,117,o),
(547,97,o),
(631,83,o),
(690,83,q),
(801,83,o),
(969,154,o),
(1080,272,o),
(1137,422,o),
(1137,501,q),
(1137,652,o),
(1045,764,q)
);
},
{
closed = 1;
nodes = (
(955,850,l),
(927,863,o),
(877,889,o),
(819,909,o),
(744,921,o),
(690,921,q),
(580,921,o),
(413,847,o),
(299,729,o),
(244,580,o),
(244,501,q),
(244,456,o),
(279,308,o),
(332,242,q)
);
}
);
width = 1381;
}
);
unicode = 248;
},
{
glyphname = ugrave;
layers = (
{
layerId = "099ACB0D-E961-4620-9891-F06BAF5780F3";
shapes = (
{
closed = 1;
nodes = (
(378,380,l),
(378,356,o),
(384,257,o),
(428,158,o),
(520,83,o),
(608,83,q),
(705,83,o),
(881,180,o),
(978,283,q),
(978,881,l),
(780,881,l),
(780,990,l),
(1094,990,l),
(1094,108,l),
(1280,108,l),
(1280,0,l),
(978,0,l),
(978,127,l),
(953,106,o),
(883,51,o),
(795,2,o),
(683,-33,o),
(617,-33,q),
(509,-33,o),
(371,46,o),
(292,165,o),
(262,310,o),
(262,380,q),
(262,881,l),
(74,881,l),
(74,990,l),
(378,990,l)
);
},
{
closed = 1;
nodes = (
(861,1158,l),
(741,1158,l),
(437,1423,l),
(683,1423,l)
);
}
);
width = 1381;
}
);
unicode = 249;
},
{
glyphname = uacute;
layers = (
{
layerId = "099ACB0D-E961-4620-9891-F06BAF5780F3";
shapes = (
{
closed = 1;
nodes = (
(378,380,l),
(378,356,o),
(384,257,o),
(428,158,o),
(520,83,o),
(608,83,q),
(705,83,o),
(881,180,o),
(978,283,q),
(978,881,l),
(780,881,l),
(780,990,l),
(1094,990,l),
(1094,108,l),
(1280,108,l),
(1280,0,l),
(978,0,l),
(978,127,l),
(953,106,o),
(883,51,o),
(795,2,o),
(683,-33,o),
(617,-33,q),
(509,-33,o),
(371,46,o),
(292,165,o),
(262,310,o),
(262,380,q),
(262,881,l),
(74,881,l),
(74,990,l),
(378,990,l)
);
},
{
closed = 1;
nodes = (
(495,1158,l),
(700,1423,l),
(946,1423,l),
(617,1158,l)
);
}
);
width = 1381;
}
);
unicode = 250;
},
{
glyphname = ucircumflex;
layers = (
{
layerId = "099ACB0D-E961-4620-9891-F06BAF5780F3";
shapes = (
{
closed = 1;
nodes = (
(378,380,l),
(378,356,o),
(384,257,o),
(428,158,o),
(520,83,o),
(608,83,q),
(705,83,o),
(881,180,o),
(978,283,q),
(978,881,l),
(780,881,l),
(780,990,l),
(1094,990,l),
(1094,108,l),
(1280,108,l),
(1280,0,l),
(978,0,l),
(978,127,l),
(953,106,o),
(883,51,o),
(795,2,o),
(683,-33,o),
(617,-33,q),
(509,-33,o),
(371,46,o),
(292,165,o),
(262,310,o),
(262,380,q),
(262,881,l),
(74,881,l),
(74,990,l),
(378,990,l)
);
},
{
closed = 1;
nodes = (
(986,1213,l),
(912,1155,l),
(679,1307,l),
(470,1155,l),
(393,1211,l),
(596,1430,l),
(773,1430,l)
);
}
);
width = 1381;
}
);
unicode = 251;
},
{
glyphname = udieresis;
layers = (
{
layerId = "099ACB0D-E961-4620-9891-F06BAF5780F3";
shapes = (
{
closed = 1;
nodes = (
(378,380,l),
(378,356,o),
(384,257,o),
(428,158,o),
(520,83,o),
(608,83,q),
(705,83,o),
(881,180,o),
(978,283,q),
(978,881,l),
(780,881,l),
(780,990,l),
(1094,990,l),
(1094,108,l),
(1280,108,l),
(1280,0,l),
(978,0,l),
(978,127,l),
(953,106,o),
(883,51,o),
(795,2,o),
(683,-33,o),
(617,-33,q),
(509,-33,o),
(371,46,o),
(292,165,o),
(262,310,o),
(262,380,q),
(262,881,l),
(74,881,l),
(74,990,l),
(378,990,l)
);
},
{
closed = 1;
nodes = (
(624,1430,l),
(624,1181,l),
(459,1181,l),
(459,1430,l)
);
},
{
closed = 1;
nodes = (
(923,1430,l),
(923,1181,l),
(758,1181,l),
(758,1430,l)
);
}
);
width = 1381;
}
);
unicode = 252;
},
{
glyphname = yacute;
layers = (
{
layerId = "099ACB0D-E961-4620-9891-F06BAF5780F3";
shapes = (
{
closed = 1;
nodes = (
(486,881,l),
(327,881,l),
(690,182,l),
(1091,881,l),
(934,881,l),
(934,990,l),
(1356,990,l),
(1356,881,l),
(1222,881,l),
(578,-244,l),
(782,-244,l),
(782,-352,l),
(92,-352,l),
(92,-244,l),
(446,-244,l),
(624,62,l),
(196,881,l),
(55,881,l),
(55,990,l),
(486,990,l)
);
},
{
closed = 1;
nodes = (
(495,1158,l),
(700,1423,l),
(946,1423,l),
(617,1158,l)
);
}
);
width = 1381;
}
);
unicode = 253;
},
{
glyphname = thorn;
layers = (
{
layerId = "099ACB0D-E961-4620-9891-F06BAF5780F3";
shapes = (
{
closed = 1;
nodes = (
(352,826,l),
(366,847,o),
(424,912,o),
(520,973,o),
(656,1019,o),
(749,1019,q),
(865,1019,o),
(1054,932,o),
(1188,789,o),
(1261,604,o),
(1261,505,q),
(1261,387,o),
(1171,196,o),
(1028,60,o),
(845,-16,o),
(753,-16,q),
(738,-16,o),
(656,-9,o),
(541,28,o),
(413,108,o),
(352,182,q),
(347,182,l),
(347,-253,l),
(690,-253,l),
(690,-362,l),
(44,-362,l),
(44,-253,l),
(233,-253,l),
(233,1329,l),
(28,1320,l),
(28,1427,l),
(347,1448,l),
(347,826,l)
);
},
{
closed = 1;
nodes = (
(338,410,o),
(417,255,o),
(536,152,o),
(681,99,o),
(749,99,q),
(826,99,o),
(967,161,o),
(1072,270,o),
(1137,419,o),
(1137,507,q),
(1137,578,o),
(1089,720,o),
(992,833,o),
(847,905,o),
(751,905,q),
(661,905,o),
(509,841,o),
(400,734,o),
(338,589,o),
(338,511,q)
);
}
);
width = 1381;
}
);
unicode = 254;
},
{
glyphname = ydieresis;
layers = (
{
layerId = "099ACB0D-E961-4620-9891-F06BAF5780F3";
shapes = (
{
closed = 1;
nodes = (
(55,990,l),
(55,881,l),
(196,881,l),
(624,62,l),
(446,-244,l),
(92,-244,l),
(92,-352,l),
(782,-352,l),
(782,-244,l),
(578,-244,l),
(1222,881,l),
(1356,881,l),
(1356,990,l),
(934,990,l),
(934,881,l),
(1091,881,l),
(690,182,l),
(327,881,l),
(486,881,l),
(486,990,l)
);
},
{
closed = 1;
nodes = (
(459,1181,l),
(624,1181,l),
(624,1430,l),
(459,1430,l)
);
},
{
closed = 1;
nodes = (
(758,1181,l),
(923,1181,l),
(923,1430,l),
(758,1430,l)
);
}
);
width = 1381;
}
);
unicode = 255;
},
{
glyphname = OE;
layers = (
{
layerId = "099ACB0D-E961-4620-9891-F06BAF5780F3";
shapes = (
{
closed = 1;
nodes = (
(1236,881,l),
(1135,881,l),
(1114,1188,l),
(810,1188,l),
(810,741,l),
(960,741,l),
(960,909,l),
(1066,909,l),
(1066,465,l),
(960,465,l),
(960,633,l),
(810,633,l),
(810,108,l),
(1146,108,l),
(1160,426,l),
(1266,426,l),
(1266,0,l),
(558,0,l),
(422,0,o),
(226,125,o),
(99,314,o),
(37,536,o),
(37,637,q),
(37,776,o),
(125,1015,o),
(283,1195,o),
(507,1296,o),
(642,1296,q),
(1236,1296,l)
);
},
{
closed = 1;
nodes = (
(635,1188,l),
(520,1188,o),
(343,1100,o),
(224,951,o),
(161,753,o),
(161,644,q),
(161,560,o),
(209,371,o),
(314,211,o),
(477,108,o),
(593,108,q),
(695,108,l),
(695,1188,l)
);
}
);
width = 1381;
}
);
unicode = 338;
},
{
glyphname = oe;
layers = (
{
layerId = "099ACB0D-E961-4620-9891-F06BAF5780F3";
shapes = (
{
closed = 1;
nodes = (
(736,472,l),
(734,352,o),
(787,198,o),
(870,110,o),
(962,76,o),
(1001,76,q),
(1075,76,o),
(1220,112,o),
(1266,127,q),
(1307,28,l),
(1184,-13,o),
(1039,-35,o),
(1006,-35,q),
(986,-35,o),
(907,-22,o),
(817,18,o),
(725,103,o),
(690,180,q),
(681,158,o),
(642,88,o),
(569,16,o),
(459,-35,o),
(375,-35,q),
(285,-35,o),
(165,28,o),
(88,123,o),
(46,237,o),
(26,345,o),
(22,433,o),
(22,453,q),
(22,564,o),
(64,773,o),
(154,940,o),
(299,1039,o),
(405,1039,q),
(474,1039,o),
(575,990,o),
(644,927,o),
(683,863,o),
(690,847,q),
(744,944,o),
(900,1036,o),
(976,1036,q),
(1066,1036,o),
(1188,942,o),
(1263,801,o),
(1298,642,o),
(1298,578,q),
(1298,550,o),
(1296,488,o),
(1294,472,q)
);
},
{
closed = 1;
nodes = (
(622,631,o),
(584,806,o),
(523,900,o),
(446,927,o),
(405,927,q),
(334,927,o),
(237,843,o),
(175,707,o),
(147,541,o),
(147,461,q),
(147,396,o),
(169,260,o),
(219,147,o),
(306,76,o),
(373,76,q),
(435,76,o),
(520,125,o),
(575,202,o),
(606,297,o),
(619,389,o),
(622,465,o),
(622,486,q)
);
},
{
closed = 1;
nodes = (
(1184,573,l),
(1184,637,o),
(1160,764,o),
(1109,865,o),
(1032,925,o),
(976,925,q),
(958,925,o),
(881,903,o),
(801,831,o),
(738,690,o),
(736,573,q)
);
}
);
width = 1381;
}
);
unicode = 339;
},
{
glyphname = Scaron;
layers = (
{
layerId = "099ACB0D-E961-4620-9891-F06BAF5780F3";
shapes = (
{
closed = 1;
nodes = (
(1167,1322,l),
(1155,1268,o),
(1146,1199,o),
(1146,1155,q),
(1146,1116,o),
(1155,980,o),
(1167,881,q),
(1063,863,l),
(1059,900,o),
(1032,1019,o),
(992,1080,q),
(978,1100,o),
(934,1149,o),
(865,1190,o),
(769,1220,o),
(700,1220,q),
(610,1220,o),
(479,1167,o),
(393,1087,o),
(352,992,o),
(352,949,q),
(352,868,o),
(430,776,o),
(541,725,o),
(661,707,o),
(703,703,q),
(831,688,o),
(978,659,o),
(1098,580,o),
(1181,451,o),
(1181,352,q),
(1181,251,o),
(1096,103,o),
(962,7,o),
(795,-39,o),
(709,-39,q),
(640,-39,o),
(536,-16,o),
(461,18,o),
(410,53,o),
(393,66,q),
(391,69,o),
(380,76,o),
(375,76,q),
(369,76,o),
(356,62,o),
(352,57,q),
(347,42,o),
(341,11,o),
(332,-46,q),
(228,-46,l),
(239,9,o),
(248,110,o),
(248,136,q),
(248,158,l),
(248,178,o),
(244,239,o),
(237,310,o),
(230,378,o),
(228,402,q),
(332,402,l),
(341,359,o),
(371,248,o),
(410,198,q),
(442,156,o),
(569,76,o),
(692,76,q),
(799,76,o),
(940,127,o),
(1022,205,o),
(1057,299,o),
(1057,343,q),
(1057,419,o),
(990,509,o),
(894,558,o),
(780,575,o),
(736,580,q),
(670,587,o),
(492,615,o),
(336,688,o),
(228,824,o),
(228,940,q),
(228,1017,o),
(297,1160,o),
(419,1270,o),
(587,1335,o),
(686,1335,q),
(749,1335,o),
(845,1312,o),
(914,1282,o),
(960,1250,o),
(971,1241,q),
(999,1220,o),
(1017,1208,o),
(1024,1208,q),
(1041,1208,o),
(1048,1236,o),
(1059,1291,q),
(1061,1303,o),
(1063,1316,o),
(1063,1322,q)
);
},
{
closed = 1;
nodes = (
(393,1694,l),
(468,1749,l),
(700,1599,l),
(912,1752,l),
(986,1694,l),
(782,1478,l),
(608,1478,l)
);
}
);
width = 1381;
}
);
unicode = 352;
},
{
glyphname = scaron;
layers = (
{
layerId = "099ACB0D-E961-4620-9891-F06BAF5780F3";
shapes = (
{
closed = 1;
nodes = (
(1109,1019,l),
(1103,982,o),
(1089,889,o),
(1089,822,q),
(1089,773,o),
(1096,707,o),
(1100,677,q),
(999,665,l),
(992,700,o),
(967,782,o),
(896,854,o),
(758,905,o),
(637,905,q),
(499,905,o),
(352,806,o),
(352,734,q),
(352,672,o),
(424,601,o),
(553,562,o),
(725,547,o),
(826,543,q),
(847,543,o),
(955,529,o),
(1070,479,o),
(1160,375,o),
(1160,285,q),
(1160,202,o),
(1080,81,o),
(951,2,o),
(797,-35,o),
(720,-35,q),
(659,-35,o),
(553,-13,o),
(465,18,o),
(402,51,o),
(382,62,q),
(382,62,o),
(378,64,q),
(375,66,o),
(371,66,q),
(354,66,o),
(336,9,o),
(325,-30,q),
(224,-30,l),
(228,0,o),
(237,57,o),
(237,115,q),
(237,189,o),
(228,303,o),
(224,343,q),
(325,354,l),
(329,325,o),
(356,233,o),
(433,145,o),
(575,81,o),
(695,81,q),
(729,81,o),
(845,94,o),
(955,136,o),
(1036,214,o),
(1036,281,q),
(1036,332,o),
(988,391,o),
(900,422,o),
(778,430,o),
(707,433,q),
(661,435,o),
(499,451,o),
(343,509,o),
(228,626,o),
(228,729,q),
(228,792,o),
(288,898,o),
(393,976,o),
(545,1019,o),
(635,1019,q),
(738,1019,o),
(868,971,o),
(900,953,q),
(905,949,o),
(937,932,o),
(951,932,q),
(969,932,o),
(988,976,o),
(992,988,q),
(997,1010,o),
(1001,1024,o),
(1006,1036,q)
);
},
{
closed = 1;
nodes = (
(393,1388,l),
(468,1443,l),
(700,1294,l),
(912,1445,l),
(986,1388,l),
(782,1171,l),
(608,1171,l)
);
}
);
width = 1381;
}
);
unicode = 353;
},
{
glyphname = Ydieresis;
layers = (
{
layerId = "099ACB0D-E961-4620-9891-F06BAF5780F3";
shapes = (
{
closed = 1;
nodes = (
(525,1188,l),
(350,1188,l),
(698,617,l),
(1041,1188,l),
(861,1188,l),
(861,1296,l),
(1307,1296,l),
(1307,1188,l),
(1162,1188,l),
(751,501,l),
(751,108,l),
(1022,108,l),
(1022,0,l),
(362,0,l),
(362,108,l),
(635,108,l),
(635,501,l),
(219,1188,l),
(74,1188,l),
(74,1296,l),
(525,1296,l)
);
},
{
closed = 1;
nodes = (
(624,1735,l),
(624,1487,l),
(459,1487,l),
(459,1735,l)
);
},
{
closed = 1;
nodes = (
(923,1735,l),
(923,1487,l),
(758,1487,l),
(758,1735,l)
);
}
);
width = 1381;
}
);
unicode = 376;
},
{
glyphname = Zcaron;
layers = (
{
layerId = "099ACB0D-E961-4620-9891-F06BAF5780F3";
shapes = (
{
closed = 1;
nodes = (
(1135,1202,l),
(332,108,l),
(1080,108,l),
(1080,481,l),
(1188,481,l),
(1188,0,l),
(193,0,l),
(193,108,l),
(988,1188,l),
(318,1188,l),
(318,852,l),
(209,852,l),
(209,1296,l),
(1135,1296,l)
);
},
{
closed = 1;
nodes = (
(393,1694,l),
(468,1749,l),
(700,1599,l),
(912,1752,l),
(986,1694,l),
(782,1478,l),
(608,1478,l)
);
}
);
width = 1381;
}
);
unicode = 381;
},
{
glyphname = zcaron;
layers = (
{
layerId = "099ACB0D-E961-4620-9891-F06BAF5780F3";
shapes = (
{
closed = 1;
nodes = (
(1142,891,l),
(396,108,l),
(1034,108,l),
(1034,320,l),
(1142,320,l),
(1142,0,l),
(239,0,l),
(239,108,l),
(978,881,l),
(371,881,l),
(371,677,l),
(262,677,l),
(262,990,l),
(1142,990,l)
);
},
{
closed = 1;
nodes = (
(393,1388,l),
(468,1443,l),
(700,1294,l),
(912,1445,l),
(986,1388,l),
(782,1171,l),
(608,1171,l)
);
}
);
width = 1381;
}
);
unicode = 382;
},
{
glyphname = florin;
layers = (
{
layerId = "099ACB0D-E961-4620-9891-F06BAF5780F3";
shapes = (
{
closed = 1;
nodes = (
(1160,1402,l),
(1131,1408,o),
(1050,1421,o),
(995,1421,q),
(863,1421,o),
(723,1353,o),
(656,1257,o),
(644,1149,o),
(644,1105,q),
(644,978,l),
(1050,978,l),
(1050,881,l),
(644,881,l),
(644,117,l),
(644,37,o),
(608,-81,o),
(543,-129,q),
(468,-187,o),
(270,-228,o),
(171,-228,q),
(141,-228,o),
(81,-224,o),
(55,-219,q),
(64,-103,l),
(99,-108,o),
(182,-117,o),
(221,-117,q),
(297,-117,o),
(459,-76,o),
(495,-33,q),
(520,0,o),
(529,88,o),
(529,134,q),
(529,881,l),
(283,881,l),
(283,978,l),
(529,978,l),
(529,1116,l),
(529,1167,o),
(553,1309,o),
(652,1439,o),
(850,1529,o),
(1024,1529,q),
(1075,1529,o),
(1149,1524,o),
(1171,1520,q)
);
}
);
width = 1381;
}
);
unicode = 402;
},
{
glyphname = circumflex;
layers = (
{
layerId = "099ACB0D-E961-4620-9891-F06BAF5780F3";
shapes = (
{
closed = 1;
nodes = (
(986,1213,l),
(912,1155,l),
(679,1307,l),
(470,1155,l),
(393,1211,l),
(596,1430,l),
(773,1430,l)
);
}
);
width = 1381;
}
);
unicode = 710;
},
{
glyphname = tilde;
layers = (
{
layerId = "099ACB0D-E961-4620-9891-F06BAF5780F3";
shapes = (
{
closed = 1;
nodes = (
(1059,1395,l),
(1054,1390,o),
(1054,1379,q),
(1026,1282,o),
(903,1184,o),
(828,1184,q),
(789,1184,o),
(718,1215,o),
(665,1257,q),
(610,1298,o),
(564,1324,o),
(538,1324,q),
(492,1324,o),
(437,1250,o),
(419,1204,q),
(419,1202,o),
(417,1197,q),
(415,1190,l),
(323,1222,l),
(354,1309,o),
(453,1427,o),
(538,1427,q),
(593,1427,o),
(672,1381,o),
(709,1349,q),
(753,1316,o),
(810,1287,o),
(835,1287,q),
(865,1287,o),
(909,1316,o),
(940,1360,o),
(960,1406,o),
(967,1425,q)
);
}
);
width = 1381;
}
);
unicode = 732;
},
{
glyphname = uni1200;
layers = (
{
layerId = "099ACB0D-E961-4620-9891-F06BAF5780F3";
shapes = (
{
closed = 1;
nodes = (
(723,1296,o),
(679,1250,o),
(679,1204,q),
(679,288,l),
(679,132,o),
(581,2,o),
(495,2,q),
(412,2,o),
(320,130,o),
(320,288,q),
(320,1204,l),
(320,1250,o),
(280,1296,o),
(214,1296,q),
(143,1296,o),
(99,1250,o),
(99,1204,q),
(99,509,l),
(99,334,o),
(124,130,o),
(206,18,o),
(366,-22,o),
(501,-32,q),
(629,-20,o),
(785,20,o),
(871,130,o),
(899,334,o),
(899,509,q),
(899,1204,l),
(899,1250,o),
(859,1296,o),
(793,1296,q)
);
}
);
width = 1012;
}
);
unicode = 4608;
},
{
glyphname = uni1201;
layers = (
{
layerId = "099ACB0D-E961-4620-9891-F06BAF5780F3";
shapes = (
{
closed = 1;
nodes = (
(951,783,l),
(951,705,l),
(951,659,o),
(995,613,o),
(1065,613,q),
(1130,613,o),
(1170,659,o),
(1170,705,q),
(1170,783,l),
(1170,805,o),
(1153,813,o),
(1140,813,q),
(877,813,l),
(877,1204,l),
(877,1250,o),
(837,1296,o),
(771,1296,q),
(701,1296,o),
(657,1250,o),
(657,1204,q),
(657,288,l),
(657,210,o),
(623,101,o),
(570,32,o),
(507,2,o),
(480,2,q),
(396,2,o),
(297,130,o),
(297,288,q),
(297,1204,l),
(297,1250,o),
(257,1296,o),
(192,1296,q),
(122,1296,o),
(78,1250,o),
(78,1204,q),
(78,412,l),
(78,272,o),
(101,106,o),
(183,14,o),
(343,-22,o),
(480,-32,q),
(608,-20,o),
(763,20,o),
(848,130,o),
(877,334,o),
(877,509,q),
(877,783,l)
);
}
);
width = 1189;
}
);
unicode = 4609;
},
{
glyphname = uni1202;
layers = (
{
layerId = "099ACB0D-E961-4620-9891-F06BAF5780F3";
shapes = (
{
closed = 1;
nodes = (
(797,1204,l),
(797,1250,o),
(757,1296,o),
(691,1296,q),
(621,1296,o),
(577,1250,o),
(577,1204,q),
(577,759,l),
(577,737,o),
(549,691,o),
(507,653,o),
(452,629,o),
(425,629,q),
(383,629,o),
(332,659,o),
(305,727,o),
(295,837,o),
(295,915,q),
(295,1204,l),
(295,1250,o),
(256,1296,o),
(190,1296,q),
(120,1296,o),
(76,1250,o),
(76,1204,q),
(76,846,l),
(76,763,o),
(103,663,o),
(181,610,o),
(318,591,o),
(425,591,q),
(480,591,o),
(553,613,o),
(577,635,q),
(577,82,l),
(577,24,o),
(615,-32,o),
(673,-32,q),
(869,-32,l),
(869,-122,l),
(1039,-122,l),
(1084,-122,o),
(1130,-78,o),
(1130,-8,q),
(1130,58,o),
(1084,98,o),
(1039,98,q),
(869,98,l),
(869,0,l),
(852,0,l),
(813,0,o),
(797,44,o),
(797,114,q)
);
}
);
width = 1142;
}
);
unicode = 4610;
},
{
glyphname = uni1203;
layers = (
{
layerId = "099ACB0D-E961-4620-9891-F06BAF5780F3";
shapes = (
{
closed = 1;
nodes = (
(631,1296,o),
(587,1250,o),
(587,1204,q),
(587,759,l),
(587,737,o),
(559,691,o),
(517,653,o),
(461,629,o),
(435,629,q),
(351,629,o),
(295,757,o),
(295,915,q),
(295,1204,l),
(295,1250,o),
(256,1296,o),
(190,1296,q),
(120,1296,o),
(76,1250,o),
(76,1204,q),
(76,846,l),
(76,765,o),
(108,665,o),
(188,611,o),
(328,591,o),
(435,591,q),
(490,591,o),
(564,613,o),
(587,635,q),
(587,59,l),
(587,14,o),
(631,-32,o),
(701,-32,q),
(767,-32,o),
(806,14,o),
(806,59,q),
(806,1204,l),
(806,1250,o),
(767,1296,o),
(701,1296,q)
);
}
);
width = 919;
}
);
unicode = 4611;
},
{
glyphname = uni1204;
layers = (
{
layerId = "099ACB0D-E961-4620-9891-F06BAF5780F3";
shapes = (
{
closed = 1;
nodes = (
(865,-32,l),
(941,-32,o),
(1027,-18,o),
(1067,18,o),
(1075,84,o),
(1075,138,q),
(1075,234,l),
(1075,343,o),
(983,415,o),
(890,415,q),
(863,415,o),
(855,413,o),
(841,412,q),
(841,381,l),
(867,381,o),
(897,372,o),
(915,341,o),
(921,282,o),
(921,232,q),
(921,128,l),
(921,46,o),
(905,-10,o),
(865,-10,q),
(843,-10,o),
(817,4,o),
(805,38,o),
(801,99,o),
(801,148,q),
(801,1204,l),
(801,1250,o),
(761,1296,o),
(695,1296,q),
(625,1296,o),
(581,1250,o),
(581,1204,q),
(581,759,l),
(581,737,o),
(553,689,o),
(511,649,o),
(455,625,o),
(429,625,q),
(387,625,o),
(335,657,o),
(305,725,o),
(295,837,o),
(295,915,q),
(295,1204,l),
(295,1250,o),
(256,1296,o),
(190,1296,q),
(120,1296,o),
(76,1250,o),
(76,1204,q),
(76,846,l),
(76,765,o),
(106,665,o),
(183,611,o),
(322,591,o),
(429,591,q),
(484,591,o),
(557,613,o),
(581,635,q),
(581,124,l),
(581,76,o),
(587,14,o),
(615,-20,o),
(671,-32,o),
(723,-32,q)
);
}
);
width = 1096;
}
);
unicode = 4612;
},
{
glyphname = uni1205;
layers = (
{
layerId = "099ACB0D-E961-4620-9891-F06BAF5780F3";
shapes = (
{
closed = 1;
nodes = (
(719,1296,o),
(675,1250,o),
(675,1204,q),
(675,288,l),
(675,210,o),
(641,101,o),
(587,32,o),
(526,2,o),
(497,2,q),
(413,2,o),
(316,130,o),
(316,288,q),
(316,1204,l),
(316,1250,o),
(276,1296,o),
(210,1296,q),
(139,1296,o),
(96,1250,o),
(96,1204,q),
(96,879,l),
(143,879,o),
(212,831,o),
(256,761,o),
(276,679,o),
(276,646,q),
(261,646,l),
(261,655,o),
(236,697,o),
(194,737,o),
(143,767,o),
(120,767,q),
(106,767,o),
(96,757,q),
(96,412,l),
(96,272,o),
(120,106,o),
(202,14,o),
(362,-22,o),
(497,-32,q),
(625,-20,o),
(781,20,o),
(867,130,o),
(895,334,o),
(895,509,q),
(895,1204,l),
(895,1250,o),
(855,1296,o),
(789,1296,q)
);
}
);
width = 1004;
}
);
unicode = 4613;
},
{
glyphname = uni1206;
layers = (
{
layerId = "099ACB0D-E961-4620-9891-F06BAF5780F3";
shapes = (
{
closed = 1;
nodes = (
(877,785,l),
(1003,785,l),
(1046,785,o),
(1109,799,o),
(1147,835,o),
(1164,903,o),
(1164,957,q),
(1164,1122,l),
(1164,1178,o),
(1142,1248,o),
(1100,1284,o),
(1041,1296,o),
(1003,1296,q),
(751,1296,l),
(717,1296,o),
(679,1277,o),
(661,1240,o),
(657,1187,o),
(657,1153,q),
(657,288,l),
(657,210,o),
(623,101,o),
(570,32,o),
(507,2,o),
(480,2,q),
(396,2,o),
(297,130,o),
(297,288,q),
(297,1204,l),
(297,1250,o),
(257,1296,o),
(192,1296,q),
(122,1296,o),
(78,1250,o),
(78,1204,q),
(78,412,l),
(78,272,o),
(101,106,o),
(183,14,o),
(343,-22,o),
(480,-32,q),
(608,-20,o),
(763,20,o),
(848,130,o),
(877,334,o),
(877,509,q)
);
},
{
closed = 1;
nodes = (
(877,1264,l),
(913,1264,o),
(963,1258,o),
(993,1231,o),
(1006,1172,o),
(1006,1122,q),
(1006,953,l),
(1006,903,o),
(995,845,o),
(964,817,o),
(915,810,o),
(877,810,q)
);
}
);
width = 1191;
}
);
unicode = 4614;
},
{
glyphname = uni1208;
layers = (
{
layerId = "099ACB0D-E961-4620-9891-F06BAF5780F3";
shapes = (
{
closed = 1;
nodes = (
(120,1296,o),
(76,1250,o),
(76,1204,q),
(76,58,l),
(76,12,o),
(120,-34,o),
(190,-34,q),
(256,-34,o),
(295,12,o),
(295,58,q),
(295,689,l),
(301,707,o),
(339,773,o),
(393,837,o),
(459,885,o),
(495,885,q),
(573,885,o),
(646,767,o),
(646,629,q),
(646,58,l),
(646,12,o),
(689,-34,o),
(759,-34,q),
(825,-34,o),
(865,12,o),
(865,58,q),
(865,599,l),
(865,713,o),
(815,846,o),
(725,917,o),
(603,934,o),
(530,934,q),
(488,934,o),
(410,897,o),
(345,841,o),
(301,777,o),
(295,751,q),
(295,1204,l),
(295,1250,o),
(256,1296,o),
(190,1296,q)
);
}
);
width = 970;
}
);
unicode = 4616;
},
{
glyphname = uni1209;
layers = (
{
layerId = "099ACB0D-E961-4620-9891-F06BAF5780F3";
shapes = (
{
closed = 1;
nodes = (
(913,559,l),
(913,482,l),
(913,435,o),
(957,389,o),
(1027,389,q),
(1092,389,o),
(1132,435,o),
(1132,482,q),
(1132,559,l),
(1132,581,o),
(1115,589,o),
(1102,589,q),
(867,589,l),
(867,601,l),
(867,715,o),
(817,848,o),
(727,919,o),
(606,937,o),
(531,937,q),
(490,937,o),
(412,899,o),
(347,843,o),
(303,779,o),
(297,753,q),
(297,1206,l),
(297,1252,o),
(257,1298,o),
(192,1298,q),
(122,1298,o),
(78,1252,o),
(78,1206,q),
(78,59,l),
(78,14,o),
(122,-32,o),
(192,-32,q),
(257,-32,o),
(297,14,o),
(297,59,q),
(297,691,l),
(303,709,o),
(341,775,o),
(396,839,o),
(461,886,o),
(497,886,q),
(575,886,o),
(648,768,o),
(648,631,q),
(648,59,l),
(648,14,o),
(691,-32,o),
(761,-32,q),
(827,-32,o),
(867,14,o),
(867,59,q),
(867,559,l)
);
}
);
width = 1159;
}
);
unicode = 4617;
},
{
glyphname = uni120A;
layers = (
{
layerId = "099ACB0D-E961-4620-9891-F06BAF5780F3";
shapes = (
{
closed = 1;
nodes = (
(865,601,l),
(865,715,o),
(815,848,o),
(725,919,o),
(603,937,o),
(530,937,q),
(488,937,o),
(410,899,o),
(345,843,o),
(301,779,o),
(295,753,q),
(295,1206,l),
(295,1252,o),
(256,1298,o),
(190,1298,q),
(120,1298,o),
(76,1252,o),
(76,1206,q),
(76,59,l),
(76,14,o),
(120,-32,o),
(190,-32,q),
(256,-32,o),
(295,14,o),
(295,59,q),
(295,691,l),
(301,709,o),
(339,775,o),
(393,839,o),
(459,886,o),
(495,886,q),
(573,886,o),
(646,768,o),
(646,631,q),
(646,82,l),
(646,24,o),
(683,-32,o),
(741,-32,q),
(937,-32,l),
(937,-122,l),
(1107,-122,l),
(1153,-122,o),
(1199,-78,o),
(1199,-8,q),
(1199,58,o),
(1153,98,o),
(1107,98,q),
(937,98,l),
(937,0,l),
(921,0,l),
(881,0,o),
(865,44,o),
(865,114,q)
);
}
);
width = 1222;
}
);
unicode = 4618;
},
{
glyphname = uni120B;
layers = (
{
layerId = "099ACB0D-E961-4620-9891-F06BAF5780F3";
shapes = (
{
closed = 1;
nodes = (
(120,1298,o),
(76,1252,o),
(76,1206,q),
(76,284,l),
(76,238,o),
(120,192,o),
(190,192,q),
(256,192,o),
(295,238,o),
(295,284,q),
(295,691,l),
(301,709,o),
(339,775,o),
(393,839,o),
(459,886,o),
(495,886,q),
(573,886,o),
(646,768,o),
(646,631,q),
(646,59,l),
(646,14,o),
(689,-32,o),
(759,-32,q),
(825,-32,o),
(865,14,o),
(865,59,q),
(865,601,l),
(865,715,o),
(815,848,o),
(725,919,o),
(603,937,o),
(530,937,q),
(488,937,o),
(410,899,o),
(345,843,o),
(301,779,o),
(295,753,q),
(295,1206,l),
(295,1252,o),
(256,1298,o),
(190,1298,q)
);
}
);
width = 983;
}
);
unicode = 4619;
},
{
glyphname = uni120C;
layers = (
{
layerId = "099ACB0D-E961-4620-9891-F06BAF5780F3";
shapes = (
{
closed = 1;
nodes = (
(295,1206,l),
(295,1252,o),
(256,1298,o),
(190,1298,q),
(120,1298,o),
(76,1252,o),
(76,1206,q),
(76,59,l),
(76,14,o),
(120,-32,o),
(190,-32,q),
(256,-32,o),
(295,14,o),
(295,59,q),
(295,691,l),
(301,709,o),
(339,775,o),
(393,839,o),
(459,886,o),
(495,886,q),
(573,886,o),
(646,768,o),
(646,631,q),
(646,124,l),
(646,76,o),
(651,14,o),
(679,-20,o),
(735,-32,o),
(787,-32,q),
(917,-32,l),
(989,-32,o),
(1088,-16,o),
(1151,36,o),
(1176,136,o),
(1176,219,q),
(1176,290,o),
(1138,377,o),
(1081,425,o),
(1006,444,o),
(970,444,q),
(951,444,o),
(923,442,o),
(913,442,q),
(913,408,l),
(934,408,o),
(966,402,o),
(989,366,o),
(1001,292,o),
(1001,223,q),
(1001,146,o),
(995,54,o),
(976,6,o),
(949,-10,o),
(926,-10,q),
(909,-10,o),
(885,-2,o),
(871,32,o),
(865,99,o),
(865,160,q),
(865,601,l),
(865,715,o),
(815,848,o),
(725,919,o),
(603,937,o),
(530,937,q),
(488,937,o),
(410,899,o),
(345,843,o),
(301,779,o),
(295,753,q)
);
}
);
width = 1193;
}
);
unicode = 4620;
},
{
glyphname = uni120D;
layers = (
{
layerId = "099ACB0D-E961-4620-9891-F06BAF5780F3";
shapes = (
{
closed = 1;
nodes = (
(345,-32,l),
(417,-32,o),
(513,-16,o),
(568,36,o),
(589,136,o),
(589,219,q),
(589,290,o),
(557,377,o),
(503,425,o),
(435,444,o),
(400,444,q),
(385,444,o),
(360,442,o),
(349,440,q),
(349,413,l),
(370,413,o),
(402,402,o),
(419,364,o),
(429,288,o),
(429,223,q),
(429,154,o),
(427,64,o),
(415,12,o),
(387,-10,o),
(362,-10,q),
(316,-10,o),
(295,70,o),
(295,166,q),
(295,691,l),
(301,709,o),
(339,775,o),
(393,839,o),
(459,886,o),
(495,886,q),
(573,886,o),
(646,768,o),
(646,631,q),
(646,59,l),
(646,14,o),
(689,-32,o),
(759,-32,q),
(825,-32,o),
(865,14,o),
(865,59,q),
(865,601,l),
(865,715,o),
(815,848,o),
(725,919,o),
(603,937,o),
(530,937,q),
(488,937,o),
(410,899,o),
(345,843,o),
(301,779,o),
(295,753,q),
(295,1206,l),
(295,1252,o),
(256,1298,o),
(190,1298,q),
(120,1298,o),
(76,1252,o),
(76,1206,q),
(76,124,l),
(76,76,o),
(82,14,o),
(110,-20,o),
(166,-32,o),
(217,-32,q)
);
}
);
width = 937;
}
);
unicode = 4621;
},
{
glyphname = uni120E;
layers = (
{
layerId = "099ACB0D-E961-4620-9891-F06BAF5780F3";
shapes = (
{
closed = 1;
nodes = (
(921,423,l),
(921,379,o),
(930,330,o),
(972,305,o),
(1058,299,o),
(1134,299,q),
(1212,299,o),
(1298,309,o),
(1340,351,o),
(1350,431,o),
(1350,503,q),
(1350,564,o),
(1334,633,o),
(1300,665,o),
(1250,673,o),
(1216,673,q),
(865,673,l),
(865,763,o),
(810,867,o),
(717,921,o),
(595,937,o),
(530,937,q),
(488,937,o),
(410,899,o),
(345,843,o),
(301,779,o),
(295,753,q),
(295,1206,l),
(295,1252,o),
(256,1298,o),
(190,1298,q),
(120,1298,o),
(76,1252,o),
(76,1206,q),
(76,59,l),
(76,14,o),
(120,-32,o),
(190,-32,q),
(256,-32,o),
(295,14,o),
(295,59,q),
(295,691,l),
(301,709,o),
(339,775,o),
(393,839,o),
(459,886,o),
(495,886,q),
(573,886,o),
(646,768,o),
(646,631,q),
(646,59,l),
(646,14,o),
(689,-32,o),
(759,-32,q),
(825,-32,o),
(865,14,o),
(865,59,q),
(865,649,l),
(877,649,l),
(899,649,o),
(921,635,o),
(921,603,q)
);
},
{
closed = 1;
nodes = (
(1197,415,l),
(1197,370,o),
(1176,324,o),
(1134,324,q),
(1094,324,o),
(1075,374,o),
(1075,415,q),
(1075,571,l),
(1075,606,o),
(1096,648,o),
(1134,648,q),
(1178,648,o),
(1197,608,o),
(1197,575,q)
);
}
);
width = 1364;
}
);
unicode = 4622;
},
{
glyphname = uni120F;
layers = (
{
layerId = "099ACB0D-E961-4620-9891-F06BAF5780F3";
shapes = (
{
closed = 1;
nodes = (
(1035,-130,o),
(1075,-84,o),
(1075,-38,q),
(1075,74,l),
(850,74,l),
(850,595,l),
(850,709,o),
(801,843,o),
(711,913,o),
(589,930,o),
(515,930,q),
(473,930,o),
(396,892,o),
(332,837,o),
(288,773,o),
(282,747,q),
(282,1200,l),
(282,1246,o),
(242,1292,o),
(176,1292,q),
(106,1292,o),
(61,1246,o),
(61,1200,q),
(61,278,l),
(61,232,o),
(106,185,o),
(176,185,q),
(242,185,o),
(282,232,o),
(282,278,q),
(282,685,l),
(288,703,o),
(326,768,o),
(379,833,o),
(446,881,o),
(482,881,q),
(559,881,o),
(631,763,o),
(631,625,q),
(631,74,l),
(324,74,l),
(324,-38,l),
(324,-84,o),
(366,-130,o),
(435,-130,q),
(501,-130,o),
(541,-84,o),
(541,-38,q),
(541,42,l),
(855,42,l),
(855,-38,l),
(855,-84,o),
(899,-130,o),
(968,-130,q)
);
}
);
width = 1092;
}
);
unicode = 4623;
},
{
glyphname = uni1210;
layers = (
{
layerId = "099ACB0D-E961-4620-9891-F06BAF5780F3";
shapes = (
{
closed = 1;
nodes = (
(242,-32,o),
(282,14,o),
(282,59,q),
(282,493,l),
(282,566,o),
(290,657,o),
(334,715,o),
(423,743,o),
(505,751,q),
(505,59,l),
(505,14,o),
(549,-32,o),
(619,-32,q),
(685,-32,o),
(725,14,o),
(725,59,q),
(725,751,l),
(803,743,o),
(892,717,o),
(939,661,o),
(949,570,o),
(949,495,q),
(949,59,l),
(949,14,o),
(993,-32,o),
(1063,-32,q),
(1128,-32,o),
(1168,14,o),
(1168,59,q),
(1168,475,l),
(1168,581,o),
(1121,699,o),
(1016,757,o),
(846,775,o),
(725,783,q),
(725,1204,l),
(725,1250,o),
(685,1296,o),
(619,1296,q),
(549,1296,o),
(505,1250,o),
(505,1204,q),
(505,783,l),
(387,775,o),
(219,757,o),
(112,697,o),
(61,581,o),
(61,473,q),
(61,59,l),
(61,14,o),
(106,-32,o),
(176,-32,q)
);
}
);
width = 1260;
}
);
unicode = 4624;
},
{
glyphname = uni1211;
layers = (
{
layerId = "099ACB0D-E961-4620-9891-F06BAF5780F3";
shapes = (
{
closed = 1;
nodes = (
(1231,444,l),
(1231,366,l),
(1231,320,o),
(1275,274,o),
(1344,274,q),
(1410,274,o),
(1450,320,o),
(1450,366,q),
(1450,444,l),
(1450,465,o),
(1432,473,o),
(1420,473,q),
(1168,473,l),
(1168,475,l),
(1168,581,o),
(1121,699,o),
(1016,757,o),
(846,775,o),
(725,783,q),
(725,1204,l),
(725,1250,o),
(685,1296,o),
(619,1296,q),
(549,1296,o),
(505,1250,o),
(505,1204,q),
(505,783,l),
(387,775,o),
(219,757,o),
(112,697,o),
(61,581,o),
(61,473,q),
(61,59,l),
(61,14,o),
(106,-32,o),
(176,-32,q),
(242,-32,o),
(282,14,o),
(282,59,q),
(282,493,l),
(282,566,o),
(290,657,o),
(334,715,o),
(423,743,o),
(505,751,q),
(505,59,l),
(505,14,o),
(549,-32,o),
(619,-32,q),
(685,-32,o),
(725,14,o),
(725,59,q),
(725,751,l),
(803,743,o),
(892,717,o),
(939,661,o),
(949,570,o),
(949,495,q),
(949,59,l),
(949,14,o),
(993,-32,o),
(1063,-32,q),
(1128,-32,o),
(1168,14,o),
(1168,59,q),
(1168,444,l)
);
}
);
width = 1468;
}
);
unicode = 4625;
},
{
glyphname = uni1212;
layers = (
{
layerId = "099ACB0D-E961-4620-9891-F06BAF5780F3";
shapes = (
{
closed = 1;
nodes = (
(242,-32,o),
(282,14,o),
(282,59,q),
(282,493,l),
(282,566,o),
(290,657,o),
(334,715,o),
(423,743,o),
(505,751,q),
(505,59,l),
(505,14,o),
(549,-32,o),
(619,-32,q),
(685,-32,o),
(725,14,o),
(725,59,q),
(725,751,l),
(803,743,o),
(892,717,o),
(939,661,o),
(949,570,o),
(949,495,q),
(949,82,l),
(949,24,o),
(987,-32,o),
(1044,-32,q),
(1256,-32,l),
(1256,-112,l),
(1404,-112,l),
(1426,-112,o),
(1460,-106,o),
(1484,-84,o),
(1496,-42,o),
(1496,-8,q),
(1496,58,o),
(1450,88,o),
(1404,88,q),
(1256,88,l),
(1256,0,l),
(1206,0,l),
(1178,0,o),
(1168,40,o),
(1168,101,q),
(1168,475,l),
(1168,581,o),
(1121,699,o),
(1016,757,o),
(846,775,o),
(725,783,q),
(725,1204,l),
(725,1250,o),
(685,1296,o),
(619,1296,q),
(549,1296,o),
(505,1250,o),
(505,1204,q),
(505,783,l),
(387,775,o),
(219,757,o),
(112,697,o),
(61,581,o),
(61,473,q),
(61,59,l),
(61,14,o),
(106,-32,o),
(176,-32,q)
);
}
);
width = 1515;
}
);
unicode = 4626;
},
{
glyphname = uni1213;
layers = (
{
layerId = "099ACB0D-E961-4620-9891-F06BAF5780F3";
shapes = (
{
closed = 1;
nodes = (
(242,116,o),
(282,162,o),
(282,208,q),
(282,493,l),
(282,566,o),
(290,657,o),
(334,715,o),
(423,743,o),
(505,751,q),
(505,208,l),
(505,162,o),
(549,116,o),
(619,116,q),
(685,116,o),
(725,162,o),
(725,208,q),
(725,751,l),
(803,743,o),
(892,717,o),
(939,661,o),
(949,570,o),
(949,495,q),
(949,59,l),
(949,14,o),
(993,-32,o),
(1063,-32,q),
(1128,-32,o),
(1168,14,o),
(1168,59,q),
(1168,475,l),
(1168,581,o),
(1121,699,o),
(1016,757,o),
(846,775,o),
(725,783,q),
(725,1204,l),
(725,1250,o),
(685,1296,o),
(619,1296,q),
(549,1296,o),
(505,1250,o),
(505,1204,q),
(505,783,l),
(387,775,o),
(219,757,o),
(112,697,o),
(61,581,o),
(61,473,q),
(61,208,l),
(61,162,o),
(106,116,o),
(176,116,q)
);
}
);
width = 1246;
}
);
unicode = 4627;
},
{
glyphname = uni1214;
layers = (
{
layerId = "099ACB0D-E961-4620-9891-F06BAF5780F3";
shapes = (
{
closed = 1;
nodes = (
(1233,-32,l),
(1308,-32,o),
(1395,-18,o),
(1434,18,o),
(1442,84,o),
(1442,138,q),
(1442,234,l),
(1442,343,o),
(1350,415,o),
(1258,415,q),
(1231,415,o),
(1222,413,o),
(1208,412,q),
(1208,381,l),
(1235,381,o),
(1264,372,o),
(1282,341,o),
(1288,282,o),
(1288,232,q),
(1288,128,l),
(1288,46,o),
(1273,-10,o),
(1233,-10,q),
(1210,-10,o),
(1184,4,o),
(1172,38,o),
(1168,99,o),
(1168,148,q),
(1168,475,l),
(1168,581,o),
(1121,699,o),
(1016,757,o),
(846,775,o),
(725,783,q),
(725,1204,l),
(725,1250,o),
(685,1296,o),
(619,1296,q),
(549,1296,o),
(505,1250,o),
(505,1204,q),
(505,783,l),
(387,775,o),
(219,757,o),
(112,697,o),
(61,581,o),
(61,473,q),
(61,59,l),
(61,14,o),
(106,-32,o),
(176,-32,q),
(242,-32,o),
(282,14,o),
(282,59,q),
(282,493,l),
(282,566,o),
(290,657,o),
(334,715,o),
(423,743,o),
(505,751,q),
(505,59,l),
(505,14,o),
(549,-32,o),
(619,-32,q),
(685,-32,o),
(725,14,o),
(725,59,q),
(725,751,l),
(803,743,o),
(892,717,o),
(939,661,o),
(949,570,o),
(949,495,q),
(949,124,l),
(949,76,o),
(955,14,o),
(983,-20,o),
(1039,-32,o),
(1090,-32,q)
);
}
);
width = 1464;
}
);
unicode = 4628;
},
{
glyphname = uni1215;
layers = (
{
layerId = "099ACB0D-E961-4620-9891-F06BAF5780F3";
shapes = (
{
closed = 1;
nodes = (
(148,1149,o),
(194,1122,o),
(240,1122,q),
(413,1122,l),
(413,1206,l),
(450,1206,l),
(480,1206,o),
(505,1180,o),
(505,1119,q),
(505,783,l),
(387,775,o),
(219,757,o),
(112,697,o),
(61,581,o),
(61,473,q),
(61,59,l),
(61,14,o),
(106,-32,o),
(176,-32,q),
(242,-32,o),
(282,14,o),
(282,59,q),
(282,493,l),
(282,566,o),
(290,657,o),
(334,715,o),
(423,743,o),
(505,751,q),
(505,59,l),
(505,14,o),
(549,-32,o),
(619,-32,q),
(685,-32,o),
(725,14,o),
(725,59,q),
(725,751,l),
(803,743,o),
(892,717,o),
(939,661,o),
(949,570,o),
(949,495,q),
(949,59,l),
(949,14,o),
(993,-32,o),
(1063,-32,q),
(1128,-32,o),
(1168,14,o),
(1168,59,q),
(1168,475,l),
(1168,581,o),
(1121,699,o),
(1016,757,o),
(846,775,o),
(725,783,q),
(725,1124,l),
(725,1189,o),
(681,1237,o),
(629,1237,q),
(413,1237,l),
(413,1328,l),
(240,1328,l),
(194,1328,o),
(148,1284,o),
(148,1214,q)
);
}
);
width = 1254;
}
);
unicode = 4629;
},
{
glyphname = uni1216;
layers = (
{
layerId = "099ACB0D-E961-4620-9891-F06BAF5780F3";
shapes = (
{
closed = 1;
nodes = (
(242,-32,o),
(282,14,o),
(282,59,q),
(282,493,l),
(282,566,o),
(290,657,o),
(334,715,o),
(423,743,o),
(505,751,q),
(505,242,l),
(505,196,o),
(549,150,o),
(619,150,q),
(685,150,o),
(725,196,o),
(725,242,q),
(725,751,l),
(803,743,o),
(892,717,o),
(939,661,o),
(949,570,o),
(949,495,q),
(949,242,l),
(949,196,o),
(993,150,o),
(1063,150,q),
(1128,150,o),
(1168,196,o),
(1168,242,q),
(1168,475,l),
(1168,581,o),
(1121,699,o),
(1016,757,o),
(846,775,o),
(725,783,q),
(725,1204,l),
(725,1250,o),
(685,1296,o),
(619,1296,q),
(549,1296,o),
(505,1250,o),
(505,1204,q),
(505,783,l),
(387,775,o),
(219,757,o),
(112,697,o),
(61,581,o),
(61,473,q),
(61,59,l),
(61,14,o),
(106,-32,o),
(176,-32,q)
);
}
);
width = 1273;
}
);
unicode = 4630;
},
{
glyphname = uni1217;
layers = (
{
layerId = "099ACB0D-E961-4620-9891-F06BAF5780F3";
shapes = (
{
closed = 1;
nodes = (
(1396,59,l),
(1168,59,l),
(1168,475,ls),
(1168,581,o),
(1121,699,o),
(1016,757,o),
(846,775,o),
(725,783,q),
(725,1204,ls),
(725,1250,o),
(685,1296,o),
(619,1296,qs),
(549,1296,o),
(505,1250,o),
(505,1204,qs),
(505,783,l),
(387,775,o),
(219,757,o),
(112,697,o),
(61,581,o),
(61,473,qs),
(61,242,ls),
(61,196,o),
(106,150,o),
(176,150,qs),
(242,150,o),
(282,196,o),
(282,242,qs),
(282,493,ls),
(282,566,o),
(290,657,o),
(334,715,o),
(423,743,o),
(505,751,q),
(505,242,ls),
(505,196,o),
(549,150,o),
(619,150,qs),
(685,150,o),
(725,196,o),
(725,242,qs),
(725,751,l),
(803,743,o),
(892,717,o),
(939,661,o),
(949,570,o),
(949,495,qs),
(949,59,l),
(589,59,l),
(589,-52,ls),
(589,-98,o),
(631,-143,o),
(701,-143,qs),
(767,-143,o),
(806,-98,o),
(806,-52,qs),
(806,28,l),
(1176,28,l),
(1176,-52,ls),
(1176,-98,o),
(1220,-143,o),
(1290,-143,qs),
(1357,-143,o),
(1396,-98,o),
(1396,-52,qs)
);
}
);
width = 1414;
}
);
unicode = 4631;
},
{
glyphname = uni1218;
layers = (
{
layerId = "099ACB0D-E961-4620-9891-F06BAF5780F3";
shapes = (
{
closed = 1;
nodes = (
(398,995,o),
(267,981,o),
(154,928,o),
(78,825,o),
(78,737,q),
(78,179,l),
(78,103,o),
(116,20,o),
(202,-22,o),
(337,-32,o),
(435,-32,q),
(539,-32,o),
(669,-10,o),
(741,40,o),
(767,128,o),
(767,194,q),
(767,839,l),
(789,873,o),
(833,917,o),
(857,917,q),
(886,917,o),
(919,903,o),
(937,855,o),
(941,763,o),
(941,685,q),
(941,246,l),
(941,190,o),
(953,101,o),
(1018,40,o),
(1157,8,o),
(1282,8,q),
(1390,8,o),
(1526,40,o),
(1599,101,o),
(1628,190,o),
(1628,246,q),
(1628,763,l),
(1628,835,o),
(1586,924,o),
(1514,974,o),
(1414,993,o),
(1358,993,q),
(1294,993,o),
(1184,951,o),
(1159,917,q),
(1142,937,o),
(1109,966,o),
(1063,989,o),
(999,999,o),
(951,999,q),
(934,999,o),
(883,979,o),
(827,945,o),
(779,901,o),
(767,877,q),
(755,911,o),
(699,957,o),
(615,983,o),
(511,995,o),
(453,995,q)
);
},
{
closed = 1;
nodes = (
(547,216,l),
(547,112,o),
(486,4,o),
(435,4,q),
(362,4,o),
(297,112,o),
(297,216,q),
(297,783,l),
(297,852,o),
(368,955,o),
(446,955,q),
(517,955,o),
(547,888,o),
(547,827,q)
);
},
{
closed = 1;
nodes = (
(1410,234,l),
(1410,126,o),
(1355,44,o),
(1282,44,q),
(1218,44,o),
(1160,130,o),
(1160,234,q),
(1160,883,l),
(1189,913,o),
(1246,934,o),
(1278,934,q),
(1334,934,o),
(1410,850,o),
(1410,735,q)
);
}
);
width = 1734;
}
);
unicode = 4632;
},
{
glyphname = uni1219;
layers = (
{
layerId = "099ACB0D-E961-4620-9891-F06BAF5780F3";
shapes = (
{
closed = 1;
nodes = (
(1696,599,l),
(1696,522,l),
(1696,475,o),
(1740,429,o),
(1809,429,q),
(1875,429,o),
(1915,475,o),
(1915,522,q),
(1915,599,l),
(1915,621,o),
(1898,629,o),
(1885,629,q),
(1626,629,l),
(1626,763,l),
(1626,835,o),
(1584,924,o),
(1512,974,o),
(1412,993,o),
(1357,993,q),
(1292,993,o),
(1182,951,o),
(1157,917,q),
(1140,937,o),
(1107,966,o),
(1060,989,o),
(997,999,o),
(949,999,q),
(932,999,o),
(881,979,o),
(825,945,o),
(777,901,o),
(765,877,q),
(753,911,o),
(697,957,o),
(613,983,o),
(509,995,o),
(452,995,q),
(396,995,o),
(265,981,o),
(152,928,o),
(76,825,o),
(76,737,q),
(76,179,l),
(76,103,o),
(114,20,o),
(200,-22,o),
(335,-32,o),
(433,-32,q),
(537,-32,o),
(667,-10,o),
(739,40,o),
(765,128,o),
(765,194,q),
(765,839,l),
(787,873,o),
(831,917,o),
(855,917,q),
(885,917,o),
(917,903,o),
(934,855,o),
(939,763,o),
(939,685,q),
(939,246,l),
(939,190,o),
(951,101,o),
(1016,40,o),
(1155,8,o),
(1280,8,q),
(1388,8,o),
(1524,40,o),
(1597,101,o),
(1626,190,o),
(1626,246,q),
(1626,599,l)
);
},
{
closed = 1;
nodes = (
(545,216,l),
(545,112,o),
(484,4,o),
(433,4,q),
(360,4,o),
(295,112,o),
(295,216,q),
(295,783,l),
(295,852,o),
(366,955,o),
(444,955,q),
(515,955,o),
(545,888,o),
(545,827,q)
);
},
{
closed = 1;
nodes = (
(1408,234,l),
(1408,126,o),
(1352,44,o),
(1280,44,q),
(1216,44,o),
(1159,130,o),
(1159,234,q),
(1159,883,l),
(1187,913,o),
(1244,934,o),
(1277,934,q),
(1332,934,o),
(1408,850,o),
(1408,735,q)
);
}
);
width = 1936;
}
);
unicode = 4633;
},
{
glyphname = uni121A;
layers = (
{
layerId = "099ACB0D-E961-4620-9891-F06BAF5780F3";
shapes = (
{
closed = 1;
nodes = (
(846,1292,o),
(775,1271,o),
(723,1239,o),
(691,1204,o),
(688,1191,q),
(669,1222,o),
(635,1262,o),
(579,1286,o),
(490,1294,o),
(413,1294,q),
(345,1294,o),
(223,1284,o),
(132,1237,o),
(78,1142,o),
(78,1058,q),
(78,739,l),
(78,671,o),
(124,599,o),
(208,566,o),
(328,559,o),
(404,559,q),
(501,559,o),
(617,571,o),
(677,613,o),
(693,689,o),
(693,755,q),
(693,1132,l),
(693,1151,o),
(711,1182,o),
(741,1210,o),
(775,1226,o),
(791,1226,q),
(846,1226,o),
(846,1168,q),
(846,753,l),
(846,688,o),
(857,611,o),
(905,575,o),
(1006,566,o),
(1096,566,q),
(1153,566,o),
(1226,585,o),
(1246,593,q),
(1246,82,l),
(1246,24,o),
(1284,-32,o),
(1342,-32,q),
(1538,-32,l),
(1538,-122,l),
(1708,-122,l),
(1753,-122,o),
(1799,-78,o),
(1799,-8,q),
(1799,58,o),
(1753,98,o),
(1708,98,q),
(1538,98,l),
(1538,0,l),
(1522,0,l),
(1482,0,o),
(1466,44,o),
(1466,114,q),
(1466,1008,l),
(1466,1115,o),
(1450,1231,o),
(1395,1284,o),
(1290,1294,o),
(1204,1294,q),
(1189,1294,o),
(1142,1284,o),
(1094,1266,o),
(1056,1239,o),
(1048,1220,q),
(1042,1233,o),
(1029,1258,o),
(995,1280,o),
(937,1292,o),
(888,1292,q)
);
},
{
closed = 1;
nodes = (
(1170,1244,o),
(1212,1237,o),
(1237,1197,o),
(1246,1113,o),
(1246,1039,q),
(1246,747,l),
(1246,675,o),
(1208,608,o),
(1140,608,q),
(1075,608,o),
(1048,699,o),
(1048,805,q),
(1048,1117,l),
(1048,1184,o),
(1113,1244,o),
(1140,1244,q)
);
},
{
closed = 1;
nodes = (
(495,805,l),
(495,701,o),
(461,599,o),
(404,599,q),
(368,599,o),
(326,625,o),
(303,677,o),
(299,755,o),
(299,805,q),
(299,1092,l),
(299,1121,o),
(311,1178,o),
(337,1226,o),
(381,1258,o),
(413,1258,q),
(465,1258,o),
(495,1202,o),
(495,1136,q)
);
}
);
width = 1820;
}
);
unicode = 4634;
},
{
glyphname = uni121B;
layers = (
{
layerId = "099ACB0D-E961-4620-9891-F06BAF5780F3";
shapes = (
{
closed = 1;
nodes = (
(1426,-32,o),
(1466,14,o),
(1466,59,q),
(1466,1008,l),
(1466,1115,o),
(1450,1231,o),
(1395,1284,o),
(1290,1294,o),
(1204,1294,q),
(1149,1294,o),
(1065,1256,o),
(1048,1220,q),
(1042,1233,o),
(1029,1256,o),
(995,1278,o),
(937,1292,o),
(888,1292,q),
(846,1292,o),
(775,1271,o),
(723,1239,o),
(691,1204,o),
(688,1191,q),
(648,1248,o),
(522,1294,o),
(413,1294,q),
(345,1294,o),
(223,1284,o),
(132,1237,o),
(78,1142,o),
(78,1058,q),
(78,739,l),
(78,671,o),
(124,599,o),
(208,566,o),
(328,559,o),
(404,559,q),
(501,559,o),
(617,571,o),
(677,613,o),
(693,689,o),
(693,755,q),
(693,1132,l),
(693,1151,o),
(711,1182,o),
(741,1210,o),
(775,1226,o),
(791,1226,q),
(846,1226,o),
(846,1168,q),
(846,753,l),
(846,688,o),
(857,611,o),
(905,575,o),
(1006,566,o),
(1096,566,q),
(1153,566,o),
(1226,585,o),
(1246,593,q),
(1246,59,l),
(1246,14,o),
(1290,-32,o),
(1360,-32,q)
);
},
{
closed = 1;
nodes = (
(495,805,l),
(495,701,o),
(461,599,o),
(404,599,q),
(368,599,o),
(326,625,o),
(303,677,o),
(299,755,o),
(299,805,q),
(299,1092,l),
(299,1121,o),
(311,1178,o),
(337,1226,o),
(381,1258,o),
(413,1258,q),
(465,1258,o),
(495,1202,o),
(495,1136,q)
);
},
{
closed = 1;
nodes = (
(1170,1244,o),
(1212,1237,o),
(1237,1197,o),
(1246,1113,o),
(1246,1039,q),
(1246,747,l),
(1246,675,o),
(1208,608,o),
(1140,608,q),
(1075,608,o),
(1048,699,o),
(1048,805,q),
(1048,1117,l),
(1048,1184,o),
(1113,1244,o),
(1140,1244,q)
);
}
);
width = 1586;
}
);
unicode = 4635;
},
{
glyphname = uni121C;
layers = (
{
layerId = "099ACB0D-E961-4620-9891-F06BAF5780F3";
shapes = (
{
closed = 1;
nodes = (
(1528,-32,l),
(1604,-32,o),
(1690,-18,o),
(1730,18,o),
(1738,84,o),
(1738,138,q),
(1738,234,l),
(1738,343,o),
(1646,415,o),
(1553,415,q),
(1526,415,o),
(1517,413,o),
(1504,412,q),
(1504,381,l),
(1530,381,o),
(1559,372,o),
(1578,341,o),
(1584,282,o),
(1584,232,q),
(1584,128,l),
(1584,46,o),
(1568,-10,o),
(1528,-10,q),
(1506,-10,o),
(1480,4,o),
(1468,38,o),
(1464,99,o),
(1464,148,q),
(1464,1008,l),
(1464,1115,o),
(1448,1231,o),
(1392,1284,o),
(1288,1294,o),
(1202,1294,q),
(1147,1294,o),
(1063,1256,o),
(1046,1220,q),
(1041,1233,o),
(1027,1256,o),
(993,1278,o),
(934,1292,o),
(886,1292,q),
(845,1292,o),
(773,1271,o),
(721,1239,o),
(689,1204,o),
(685,1191,q),
(646,1248,o),
(505,1294,o),
(412,1294,q),
(343,1294,o),
(221,1284,o),
(130,1237,o),
(76,1142,o),
(76,1058,q),
(76,739,l),
(76,671,o),
(122,599,o),
(206,566,o),
(326,559,o),
(402,559,q),
(499,559,o),
(615,571,o),
(675,613,o),
(691,689,o),
(691,755,q),
(691,1132,l),
(691,1151,o),
(709,1182,o),
(739,1210,o),
(773,1226,o),
(789,1226,q),
(845,1226,o),
(845,1168,q),
(845,753,l),
(845,688,o),
(855,611,o),
(903,575,o),
(1004,566,o),
(1094,566,q),
(1151,566,o),
(1224,585,o),
(1244,593,q),
(1244,124,l),
(1244,76,o),
(1250,14,o),
(1278,-20,o),
(1334,-32,o),
(1386,-32,q)
);
},
{
closed = 1;
nodes = (
(493,805,l),
(493,701,o),
(459,599,o),
(402,599,q),
(366,599,o),
(324,625,o),
(301,677,o),
(297,755,o),
(297,805,q),
(297,1092,l),
(297,1121,o),
(309,1178,o),
(335,1226,o),
(379,1258,o),
(412,1258,q),
(463,1258,o),
(493,1202,o),
(493,1136,q)
);
},
{
closed = 1;
nodes = (
(1168,1244,o),
(1210,1237,o),
(1235,1197,o),
(1244,1113,o),
(1244,1039,q),
(1244,747,l),
(1244,675,o),
(1206,608,o),
(1138,608,q),
(1073,608,o),
(1046,699,o),
(1046,805,q),
(1046,1117,l),
(1046,1184,o),
(1111,1244,o),
(1138,1244,q)
);
}
);
width = 1761;
}
);
unicode = 4636;
},
{
glyphname = uni121D;
layers = (
{
layerId = "099ACB0D-E961-4620-9891-F06BAF5780F3";
shapes = (
{
closed = 1;
nodes = (
(288,-32,o),
(328,14,o),
(328,59,q),
(328,150,l),
(328,206,o),
(349,269,o),
(391,301,o),
(452,309,o),
(488,309,q),
(570,309,o),
(659,343,o),
(701,415,o),
(709,526,o),
(709,601,q),
(709,1132,l),
(731,1166,o),
(755,1210,o),
(779,1210,q),
(808,1210,o),
(841,1197,o),
(859,1149,o),
(863,1056,o),
(863,979,q),
(863,795,l),
(863,719,o),
(873,627,o),
(928,575,o),
(1052,557,o),
(1164,557,q),
(1273,557,o),
(1398,589,o),
(1460,651,o),
(1478,739,o),
(1478,795,q),
(1478,1056,l),
(1478,1128,o),
(1436,1218,o),
(1364,1268,o),
(1264,1286,o),
(1208,1286,q),
(1145,1286,o),
(1086,1244,o),
(1060,1210,q),
(1044,1231,o),
(1016,1260,o),
(979,1282,o),
(921,1292,o),
(873,1292,q),
(857,1292,o),
(810,1273,o),
(763,1239,o),
(721,1195,o),
(709,1170,q),
(688,1240,o),
(533,1288,o),
(415,1288,q),
(360,1288,o),
(240,1275,o),
(139,1222,o),
(76,1119,o),
(76,1031,q),
(76,779,l),
(76,703,o),
(120,619,o),
(202,577,o),
(322,568,o),
(398,568,q),
(455,568,o),
(509,579,q),
(509,499,l),
(509,467,o),
(448,417,o),
(360,383,o),
(263,366,o),
(227,366,q),
(192,366,o),
(143,335,o),
(118,284,o),
(108,214,o),
(108,176,q),
(108,59,l),
(108,14,o),
(152,-32,o),
(221,-32,q)
);
},
{
closed = 1;
nodes = (
(509,815,l),
(509,711,o),
(448,603,o),
(398,603,q),
(362,603,o),
(320,631,o),
(299,685,o),
(295,763,o),
(295,815,q),
(295,1077,l),
(295,1102,o),
(301,1162,o),
(324,1214,o),
(368,1248,o),
(408,1248,q),
(480,1248,o),
(509,1182,o),
(509,1121,q)
);
},
{
closed = 1;
nodes = (
(1260,783,l),
(1260,729,o),
(1256,657,o),
(1239,613,o),
(1200,593,o),
(1164,593,q),
(1100,593,o),
(1063,679,o),
(1063,783,q),
(1063,1176,l),
(1090,1206,o),
(1128,1229,o),
(1160,1229,q),
(1216,1229,o),
(1260,1145,o),
(1260,1029,q)
);
}
);
width = 1557;
}
);
unicode = 4637;
},
{
glyphname = uni121E;
layers = (
{
layerId = "099ACB0D-E961-4620-9891-F06BAF5780F3";
shapes = (
{
closed = 1;
nodes = (
(703,-30,o),
(743,16,o),
(743,61,q),
(743,1128,l),
(765,1162,o),
(789,1206,o),
(813,1206,q),
(843,1206,o),
(875,1193,o),
(892,1145,o),
(897,1052,o),
(897,974,q),
(897,801,l),
(897,733,o),
(907,641,o),
(963,587,o),
(1084,564,o),
(1199,564,q),
(1306,564,o),
(1434,595,o),
(1500,657,o),
(1520,745,o),
(1520,801,q),
(1520,1075,l),
(1520,1147,o),
(1478,1229,o),
(1406,1271,o),
(1306,1282,o),
(1250,1282,q),
(1187,1282,o),
(1121,1240,o),
(1094,1206,q),
(1079,1226,o),
(1050,1256,o),
(1012,1278,o),
(955,1288,o),
(907,1288,q),
(890,1288,o),
(845,1268,o),
(797,1235,o),
(755,1191,o),
(743,1166,q),
(731,1200,o),
(675,1246,o),
(591,1275,o),
(486,1286,o),
(427,1286,q),
(372,1286,o),
(248,1273,o),
(143,1220,o),
(76,1119,o),
(76,1031,q),
(76,777,l),
(76,701,o),
(130,617,o),
(225,573,o),
(356,564,o),
(431,564,q),
(459,564,o),
(495,570,o),
(524,575,q),
(524,61,l),
(524,16,o),
(568,-30,o),
(637,-30,q)
);
},
{
closed = 1;
nodes = (
(533,813,l),
(533,709,o),
(492,601,o),
(410,601,q),
(335,601,o),
(295,709,o),
(295,813,q),
(295,1075,l),
(295,1100,o),
(305,1160,o),
(332,1212,o),
(379,1246,o),
(419,1246,q),
(492,1246,o),
(533,1180,o),
(533,1119,q)
);
},
{
closed = 1;
nodes = (
(1302,789,l),
(1302,735,o),
(1296,663,o),
(1277,619,o),
(1235,599,o),
(1199,599,q),
(1134,599,o),
(1096,685,o),
(1096,789,q),
(1096,1172,l),
(1124,1202,o),
(1162,1224,o),
(1195,1224,q),
(1250,1224,o),
(1302,1140,o),
(1302,1025,q)
);
}
);
width = 1580;
}
);
unicode = 4638;
},
{
glyphname = uni121F;
layers = (
{
layerId = "099ACB0D-E961-4620-9891-F06BAF5780F3";
shapes = (
{
closed = 1;
nodes = (
(1508,38,l),
(1508,-46,l),
(1508,-90,o),
(1576,-156,o),
(1632,-156,q),
(1690,-156,o),
(1755,-90,o),
(1755,-48,q),
(1755,70,l),
(1464,70,l),
(1464,1010,l),
(1464,1117,o),
(1448,1233,o),
(1392,1286,o),
(1288,1296,o),
(1202,1296,q),
(1147,1296,o),
(1063,1258,o),
(1046,1222,q),
(1041,1235,o),
(1027,1258,o),
(993,1280,o),
(934,1294,o),
(886,1294,q),
(845,1294,o),
(773,1273,o),
(721,1240,o),
(689,1206,o),
(685,1193,q),
(667,1224,o),
(633,1264,o),
(577,1288,o),
(488,1296,o),
(412,1296,q),
(343,1296,o),
(221,1286,o),
(130,1239,o),
(76,1145,o),
(76,1060,q),
(76,741,l),
(76,673,o),
(122,601,o),
(206,568,o),
(326,561,o),
(402,561,q),
(499,561,o),
(615,573,o),
(675,615,o),
(691,691,o),
(691,757,q),
(691,1134,l),
(691,1153,o),
(709,1184,o),
(739,1212,o),
(773,1229,o),
(789,1229,q),
(845,1229,o),
(845,1170,q),
(845,755,l),
(845,689,o),
(855,613,o),
(903,577,o),
(1004,568,o),
(1094,568,q),
(1151,568,o),
(1224,587,o),
(1244,595,q),
(1244,70,l),
(947,70,l),
(947,-48,l),
(947,-94,o),
(1012,-156,o),
(1071,-156,q),
(1126,-156,o),
(1195,-92,o),
(1195,-46,q),
(1195,38,l)
);
},
{
closed = 1;
nodes = (
(493,806,l),
(493,703,o),
(459,601,o),
(402,601,q),
(366,601,o),
(324,627,o),
(301,679,o),
(297,757,o),
(297,806,q),
(297,1094,l),
(297,1122,o),
(309,1180,o),
(335,1229,o),
(379,1260,o),
(412,1260,q),
(463,1260,o),
(493,1204,o),
(493,1138,q)
);
},
{
closed = 1;
nodes = (
(1168,1246,o),
(1210,1239,o),
(1235,1199,o),
(1244,1115,o),
(1244,1041,q),
(1244,749,l),
(1244,677,o),
(1206,610,o),
(1138,610,q),
(1073,610,o),
(1046,701,o),
(1046,806,q),
(1046,1119,l),
(1046,1187,o),
(1111,1246,o),
(1138,1246,q)
);
}
);
width = 1765;
}
);
unicode = 4639;
},
{
glyphname = uni1220;
layers = (
{
layerId = "099ACB0D-E961-4620-9891-F06BAF5780F3";
shapes = (
{
closed = 1;
nodes = (
(150,1134,o),
(106,1088,o),
(106,1042,q),
(106,347,l),
(106,265,o),
(162,170,o),
(244,118,o),
(337,103,o),
(375,103,q),
(453,103,o),
(610,120,o),
(733,162,o),
(817,232,o),
(823,284,q),
(843,238,o),
(928,196,o),
(974,196,q),
(1065,196,o),
(1197,232,o),
(1286,326,o),
(1330,484,o),
(1330,606,q),
(1330,1042,l),
(1330,1088,o),
(1290,1134,o),
(1224,1134,q),
(1155,1134,o),
(1111,1088,o),
(1111,1042,q),
(1111,486,l),
(1111,400,o),
(1079,297,o),
(1035,246,o),
(989,232,o),
(976,232,q),
(905,232,o),
(823,316,o),
(823,389,q),
(823,1042,l),
(823,1088,o),
(783,1134,o),
(717,1134,q),
(648,1134,o),
(603,1088,o),
(603,1042,q),
(603,492,l),
(603,377,o),
(587,240,o),
(555,162,o),
(505,136,o),
(469,136,q),
(442,136,o),
(391,160,o),
(349,202,o),
(326,259,o),
(326,292,q),
(326,1042,l),
(326,1088,o),
(286,1134,o),
(219,1134,q)
);
}
);
width = 1444;
}
);
unicode = 4640;
},
{
glyphname = uni1221;
layers = (
{
layerId = "099ACB0D-E961-4620-9891-F06BAF5780F3";
shapes = (
{
closed = 1;
nodes = (
(1384,733,l),
(1384,655,l),
(1384,610,o),
(1428,564,o),
(1498,564,q),
(1564,564,o),
(1604,610,o),
(1604,655,q),
(1604,733,l),
(1604,755,o),
(1586,763,o),
(1574,763,q),
(1320,763,l),
(1320,1041,l),
(1320,1086,o),
(1280,1132,o),
(1214,1132,q),
(1145,1132,o),
(1100,1086,o),
(1100,1041,q),
(1100,484,l),
(1100,398,o),
(1069,295,o),
(1025,244,o),
(979,230,o),
(966,230,q),
(895,230,o),
(813,314,o),
(813,387,q),
(813,1041,l),
(813,1086,o),
(773,1132,o),
(707,1132,q),
(637,1132,o),
(593,1086,o),
(593,1041,q),
(593,490,l),
(593,375,o),
(577,238,o),
(545,160,o),
(495,134,o),
(459,134,q),
(431,134,o),
(381,158,o),
(339,200,o),
(316,257,o),
(316,290,q),
(316,1041,l),
(316,1086,o),
(276,1132,o),
(210,1132,q),
(139,1132,o),
(96,1086,o),
(96,1041,q),
(96,345,l),
(96,263,o),
(152,168,o),
(234,116,o),
(328,101,o),
(366,101,q),
(444,101,o),
(599,118,o),
(723,160,o),
(806,230,o),
(813,282,q),
(833,236,o),
(919,194,o),
(964,194,q),
(1054,194,o),
(1187,230,o),
(1277,324,o),
(1320,482,o),
(1320,603,q),
(1320,733,l)
);
}
);
width = 1620;
}
);
unicode = 4641;
},
{
glyphname = uni1222;
layers = (
{
layerId = "099ACB0D-E961-4620-9891-F06BAF5780F3";
shapes = (
{
closed = 1;
nodes = (
(1202,1204,l),
(1202,1250,o),
(1162,1296,o),
(1096,1296,q),
(1027,1296,o),
(983,1250,o),
(983,1204,q),
(983,843,l),
(983,795,o),
(959,733,o),
(923,701,o),
(885,689,o),
(871,689,q),
(817,689,o),
(753,751,o),
(743,779,q),
(743,1204,l),
(743,1250,o),
(703,1296,o),
(637,1296,q),
(568,1296,o),
(524,1250,o),
(524,1204,q),
(524,867,l),
(524,779,o),
(513,669,o),
(488,608,o),
(442,583,o),
(408,583,q),
(356,583,o),
(295,673,o),
(295,739,q),
(295,1204,l),
(295,1250,o),
(256,1296,o),
(190,1296,q),
(120,1296,o),
(76,1250,o),
(76,1204,q),
(76,795,l),
(76,713,o),
(114,615,o),
(181,566,o),
(282,549,o),
(345,549,q),
(533,549,o),
(721,627,o),
(743,711,q),
(757,688,o),
(821,653,o),
(873,653,q),
(899,653,o),
(957,663,o),
(983,671,q),
(983,82,l),
(983,24,o),
(1021,-32,o),
(1079,-32,q),
(1275,-32,l),
(1275,-122,l),
(1444,-122,l),
(1490,-122,o),
(1536,-78,o),
(1536,-8,q),
(1536,58,o),
(1490,98,o),
(1444,98,q),
(1275,98,l),
(1275,0,l),
(1258,0,l),
(1218,0,o),
(1202,44,o),
(1202,114,q)
);
}
);
width = 1557;
}
);
unicode = 4642;
},
{
glyphname = uni1223;
layers = (
{
layerId = "099ACB0D-E961-4620-9891-F06BAF5780F3";
shapes = (
{
closed = 1;
nodes = (
(1029,1296,o),
(985,1250,o),
(985,1204,q),
(985,843,l),
(985,795,o),
(961,733,o),
(924,701,o),
(886,689,o),
(873,689,q),
(819,689,o),
(755,751,o),
(745,779,q),
(745,1204,l),
(745,1250,o),
(705,1296,o),
(639,1296,q),
(570,1296,o),
(526,1250,o),
(526,1204,q),
(526,867,l),
(526,779,o),
(515,669,o),
(490,608,o),
(444,583,o),
(410,583,q),
(358,583,o),
(297,673,o),
(297,739,q),
(297,1204,l),
(297,1250,o),
(257,1296,o),
(192,1296,q),
(122,1296,o),
(78,1250,o),
(78,1204,q),
(78,795,l),
(78,713,o),
(116,615,o),
(183,566,o),
(284,549,o),
(347,549,q),
(535,549,o),
(723,627,o),
(745,711,q),
(759,688,o),
(823,653,o),
(875,653,q),
(901,653,o),
(959,663,o),
(985,671,q),
(985,59,l),
(985,14,o),
(1029,-32,o),
(1098,-32,q),
(1164,-32,o),
(1204,14,o),
(1204,59,q),
(1204,1204,l),
(1204,1250,o),
(1164,1296,o),
(1098,1296,q)
);
}
);
width = 1346;
}
);
unicode = 4643;
},
{
glyphname = uni1224;
layers = (
{
layerId = "099ACB0D-E961-4620-9891-F06BAF5780F3";
shapes = (
{
closed = 1;
nodes = (
(1266,-32,l),
(1342,-32,o),
(1428,-18,o),
(1468,18,o),
(1475,84,o),
(1475,138,q),
(1475,234,l),
(1475,343,o),
(1384,415,o),
(1292,415,q),
(1264,415,o),
(1256,413,o),
(1242,412,q),
(1242,381,l),
(1268,381,o),
(1298,372,o),
(1317,341,o),
(1322,282,o),
(1322,232,q),
(1322,128,l),
(1322,46,o),
(1306,-10,o),
(1266,-10,q),
(1244,-10,o),
(1218,4,o),
(1206,38,o),
(1202,99,o),
(1202,148,q),
(1202,1204,l),
(1202,1250,o),
(1162,1296,o),
(1096,1296,q),
(1027,1296,o),
(983,1250,o),
(983,1204,q),
(983,843,l),
(983,795,o),
(959,733,o),
(923,701,o),
(885,689,o),
(871,689,q),
(817,689,o),
(753,751,o),
(743,779,q),
(743,1204,l),
(743,1250,o),
(703,1296,o),
(637,1296,q),
(568,1296,o),
(524,1250,o),
(524,1204,q),
(524,867,l),
(524,779,o),
(513,669,o),
(488,608,o),
(442,583,o),
(408,583,q),
(356,583,o),
(295,673,o),
(295,739,q),
(295,1204,l),
(295,1250,o),
(256,1296,o),
(190,1296,q),
(120,1296,o),
(76,1250,o),
(76,1204,q),
(76,795,l),
(76,713,o),
(114,615,o),
(181,566,o),
(282,549,o),
(345,549,q),
(533,549,o),
(721,627,o),
(743,711,q),
(757,688,o),
(821,653,o),
(873,653,q),
(899,653,o),
(957,663,o),
(983,671,q),
(983,124,l),
(983,76,o),
(989,14,o),
(1016,-20,o),
(1073,-32,o),
(1124,-32,q)
);
}
);
width = 1500;
}
);
unicode = 4644;
},
{
glyphname = uni1225;
layers = (
{
layerId = "099ACB0D-E961-4620-9891-F06BAF5780F3";
shapes = (
{
closed = 1;
nodes = (
(120,1296,o),
(76,1250,o),
(76,1204,q),
(76,59,l),
(76,14,o),
(120,-32,o),
(190,-32,q),
(256,-32,o),
(295,14,o),
(295,59,q),
(295,657,l),
(305,635,o),
(377,579,o),
(429,579,q),
(471,579,o),
(571,589,o),
(665,617,o),
(743,669,o),
(763,709,q),
(775,685,o),
(823,651,o),
(877,627,o),
(926,615,o),
(943,615,q),
(1031,615,o),
(1151,639,o),
(1224,699,o),
(1256,799,o),
(1256,875,q),
(1256,1204,l),
(1256,1250,o),
(1216,1296,o),
(1151,1296,q),
(1081,1296,o),
(1037,1250,o),
(1037,1204,q),
(1037,829,l),
(1037,773,o),
(1010,709,o),
(972,675,o),
(932,667,o),
(921,667,q),
(899,667,o),
(846,689,o),
(803,729,o),
(773,779,o),
(773,806,q),
(773,1204,l),
(773,1250,o),
(733,1296,o),
(667,1296,q),
(597,1296,o),
(553,1250,o),
(553,1204,q),
(553,873,l),
(553,797,o),
(541,703,o),
(513,649,o),
(467,629,o),
(431,629,q),
(377,629,o),
(322,675,o),
(295,731,q),
(295,1204,l),
(295,1250,o),
(256,1296,o),
(190,1296,q)
);
}
);
width = 1315;
}
);
unicode = 4645;
},
{
glyphname = uni1226;
layers = (
{
layerId = "099ACB0D-E961-4620-9891-F06BAF5780F3";
shapes = (
{
closed = 1;
nodes = (
(120,1296,o),
(76,1250,o),
(76,1204,q),
(76,861,l),
(76,779,o),
(132,683,o),
(214,631,o),
(307,617,o),
(345,617,q),
(404,617,o),
(497,627,o),
(549,637,q),
(549,59,l),
(549,14,o),
(593,-32,o),
(663,-32,q),
(729,-32,o),
(768,14,o),
(768,59,q),
(768,677,l),
(781,661,o),
(852,625,o),
(899,625,q),
(989,625,o),
(1115,653,o),
(1195,725,o),
(1233,845,o),
(1233,937,q),
(1233,1204,l),
(1233,1250,o),
(1193,1296,o),
(1126,1296,q),
(1056,1296,o),
(1012,1250,o),
(1012,1204,q),
(1012,817,l),
(1012,765,o),
(987,703,o),
(951,671,o),
(913,661,o),
(901,661,q),
(865,661,o),
(815,681,o),
(783,709,o),
(768,741,o),
(768,755,q),
(768,1204,l),
(768,1250,o),
(729,1296,o),
(663,1296,q),
(593,1296,o),
(549,1250,o),
(549,1204,q),
(549,855,l),
(549,785,o),
(533,703,o),
(499,661,o),
(450,649,o),
(415,649,q),
(362,649,o),
(295,741,o),
(295,805,q),
(295,1204,l),
(295,1250,o),
(256,1296,o),
(190,1296,q)
);
}
);
width = 1302;
}
);
unicode = 4646;
},
{
glyphname = uni1227;
layers = (
{
layerId = "099ACB0D-E961-4620-9891-F06BAF5780F3";
shapes = (
{
closed = 1;
nodes = (
(1390,-158,o),
(1430,-112,o),
(1430,-66,q),
(1430,46,l),
(1202,46,l),
(1202,1204,l),
(1202,1250,o),
(1162,1296,o),
(1096,1296,q),
(1027,1296,o),
(983,1250,o),
(983,1204,q),
(983,843,l),
(983,795,o),
(959,733,o),
(923,701,o),
(885,689,o),
(871,689,q),
(817,689,o),
(753,751,o),
(743,779,q),
(743,1204,l),
(743,1250,o),
(703,1296,o),
(637,1296,q),
(568,1296,o),
(524,1250,o),
(524,1204,q),
(524,867,l),
(524,779,o),
(513,669,o),
(488,608,o),
(442,583,o),
(408,583,q),
(356,583,o),
(295,673,o),
(295,739,q),
(295,1204,l),
(295,1250,o),
(256,1296,o),
(190,1296,q),
(120,1296,o),
(76,1250,o),
(76,1204,q),
(76,795,l),
(76,713,o),
(114,615,o),
(181,566,o),
(282,549,o),
(345,549,q),
(533,549,o),
(721,627,o),
(743,711,q),
(757,688,o),
(821,653,o),
(873,653,q),
(899,653,o),
(957,663,o),
(983,671,q),
(983,46,l),
(623,46,l),
(623,-66,l),
(623,-112,o),
(665,-158,o),
(735,-158,q),
(801,-158,o),
(841,-112,o),
(841,-66,q),
(841,14,l),
(1210,14,l),
(1210,-66,l),
(1210,-112,o),
(1254,-158,o),
(1324,-158,q)
);
}
);
width = 1448;
}
);
unicode = 4647;
},
{
glyphname = uni1228;
layers = (
{
layerId = "099ACB0D-E961-4620-9891-F06BAF5780F3";
shapes = (
{
closed = 1;
nodes = (
(810,-99,o),
(850,-54,o),
(850,-8,q),
(850,136,l),
(850,181,o),
(810,227,o),
(745,227,q),
(675,227,o),
(631,181,o),
(631,136,q),
(631,46,l),
(450,46,l),
(393,46,o),
(332,70,o),
(301,122,o),
(295,202,o),
(295,259,q),
(295,531,l),
(295,585,o),
(366,659,o),
(469,715,o),
(591,763,o),
(695,819,o),
(765,892,o),
(765,949,q),
(765,1204,l),
(765,1250,o),
(725,1296,o),
(659,1296,q),
(589,1296,o),
(545,1250,o),
(545,1204,q),
(545,926,l),
(545,883,o),
(475,825,o),
(372,779,o),
(250,739,o),
(146,689,o),
(76,617,o),
(76,566,q),
(76,139,l),
(76,86,o),
(86,20,o),
(126,-18,o),
(206,-32,o),
(274,-32,q),
(303,-32,o),
(339,-22,o),
(368,-10,o),
(400,0,o),
(429,0,q),
(631,0,l),
(631,-8,l),
(631,-54,o),
(675,-99,o),
(745,-99,q)
);
}
);
width = 886;
}
);
unicode = 4648;
},
{
glyphname = uni1229;
layers = (
{
layerId = "099ACB0D-E961-4620-9891-F06BAF5780F3";
shapes = (
{
closed = 1;
nodes = (
(892,174,o),
(932,219,o),
(932,265,q),
(932,372,l),
(353,372,l),
(330,372,o),
(305,393,o),
(294,425,o),
(292,467,o),
(292,490,q),
(292,701,l),
(292,755,o),
(362,819,o),
(465,859,o),
(587,888,o),
(691,928,o),
(761,995,o),
(761,1048,q),
(761,1235,l),
(761,1280,o),
(721,1326,o),
(655,1326,q),
(585,1326,o),
(541,1280,o),
(541,1235,q),
(541,1027,l),
(541,983,o),
(471,934,o),
(368,905,o),
(246,883,o),
(141,848,o),
(72,787,o),
(72,735,q),
(72,477,l),
(72,425,o),
(80,356,o),
(120,309,o),
(196,290,o),
(265,290,q),
(284,290,o),
(320,303,o),
(360,322,o),
(402,335,o),
(429,335,q),
(429,4,l),
(429,-42,o),
(473,-88,o),
(543,-88,q),
(610,-88,o),
(649,-42,o),
(649,4,q),
(649,328,l),
(713,328,l),
(713,265,l),
(713,219,o),
(757,174,o),
(827,174,q)
);
}
);
width = 957;
}
);
unicode = 4649;
},
{
glyphname = uni122A;
layers = (
{
layerId = "099ACB0D-E961-4620-9891-F06BAF5780F3";
shapes = (
{
closed = 1;
nodes = (
(621,200,l),
(621,103,o),
(566,40,o),
(501,40,q),
(429,40,l),
(387,40,o),
(334,59,o),
(305,99,o),
(295,154,o),
(295,188,q),
(295,531,l),
(295,585,o),
(366,659,o),
(469,715,o),
(591,763,o),
(695,819,o),
(765,892,o),
(765,949,q),
(765,1204,l),
(765,1250,o),
(725,1296,o),
(659,1296,q),
(589,1296,o),
(545,1250,o),
(545,1204,q),
(545,926,l),
(545,883,o),
(475,825,o),
(372,779,o),
(250,739,o),
(146,689,o),
(76,617,o),
(76,566,q),
(76,139,l),
(76,48,o),
(143,-32,o),
(236,-32,q),
(265,-32,o),
(297,-22,o),
(326,-10,o),
(364,0,o),
(400,0,q),
(663,0,l),
(715,0,o),
(783,22,o),
(821,72,o),
(835,150,o),
(835,208,q),
(835,358,l),
(835,417,o),
(808,486,o),
(739,517,o),
(615,524,o),
(515,524,q),
(515,495,l),
(551,495,o),
(595,473,o),
(615,431,o),
(621,372,o),
(621,334,q)
);
}
);
width = 924;
}
);
unicode = 4650;
},
{
glyphname = uni122B;
layers = (
{
layerId = "099ACB0D-E961-4620-9891-F06BAF5780F3";
shapes = (
{
closed = 1;
nodes = (
(966,393,o),
(1006,440,o),
(1006,486,q),
(1006,591,l),
(535,591,l),
(513,591,o),
(493,577,o),
(493,555,q),
(493,98,l),
(493,56,o),
(459,40,o),
(435,40,q),
(358,40,l),
(334,40,o),
(309,61,o),
(297,94,o),
(295,136,o),
(295,158,q),
(295,671,l),
(295,725,o),
(366,789,o),
(469,829,o),
(591,859,o),
(695,899,o),
(765,963,o),
(765,1018,q),
(765,1204,l),
(765,1250,o),
(725,1296,o),
(659,1296,q),
(589,1296,o),
(545,1250,o),
(545,1204,q),
(545,997,l),
(545,953,o),
(475,905,o),
(372,875,o),
(250,852,o),
(146,819,o),
(76,757,o),
(76,705,q),
(76,156,l),
(76,103,o),
(84,34,o),
(124,-12,o),
(200,-32,o),
(269,-32,q),
(286,-32,o),
(305,-22,o),
(328,-10,o),
(356,0,o),
(379,0,q),
(693,0,l),
(721,0,o),
(743,16,o),
(743,46,q),
(743,61,o),
(727,74,o),
(709,82,o),
(695,92,o),
(695,106,q),
(695,486,l),
(695,517,o),
(709,547,o),
(739,547,q),
(787,547,l),
(787,486,l),
(787,440,o),
(831,393,o),
(901,393,q)
);
}
);
width = 1031;
}
);
unicode = 4651;
},
{
glyphname = uni122C;
layers = (
{
layerId = "099ACB0D-E961-4620-9891-F06BAF5780F3";
shapes = (
{
closed = 1;
nodes = (
(545,997,l),
(545,953,o),
(475,905,o),
(372,875,o),
(250,852,o),
(146,819,o),
(76,757,o),
(76,705,q),
(76,156,l),
(76,99,o),
(84,28,o),
(124,-14,o),
(200,-32,o),
(269,-32,q),
(290,-32,o),
(324,-16,o),
(360,4,o),
(404,20,o),
(433,20,q),
(881,20,l),
(909,20,o),
(930,36,o),
(930,66,q),
(930,82,o),
(915,94,o),
(897,101,o),
(883,112,o),
(883,126,q),
(883,372,l),
(883,431,o),
(865,499,o),
(817,531,o),
(729,537,o),
(657,537,q),
(589,537,o),
(503,528,o),
(453,492,o),
(435,425,o),
(435,372,q),
(435,59,l),
(347,59,l),
(328,59,o),
(307,82,o),
(297,116,o),
(295,158,o),
(295,177,q),
(295,671,l),
(295,725,o),
(366,789,o),
(469,829,o),
(591,859,o),
(695,899,o),
(765,963,o),
(765,1018,q),
(765,1204,l),
(765,1250,o),
(725,1296,o),
(659,1296,q),
(589,1296,o),
(545,1250,o),
(545,1204,q)
);
},
{
closed = 1;
nodes = (
(705,509,o),
(723,457,o),
(723,429,q),
(723,146,l),
(723,112,o),
(707,59,o),
(665,59,q),
(615,59,o),
(597,112,o),
(597,148,q),
(597,427,l),
(597,455,o),
(621,509,o),
(661,509,q)
);
}
);
width = 953;
}
);
unicode = 4652;
},
{
glyphname = uni122D;
layers = (
{
layerId = "099ACB0D-E961-4620-9891-F06BAF5780F3";
shapes = (
{
closed = 1;
nodes = (
(685,244,o),
(641,198,o),
(641,152,q),
(641,42,l),
(519,42,l),
(450,42,o),
(370,50,o),
(332,90,o),
(322,172,o),
(322,244,q),
(322,1003,l),
(322,1092,o),
(339,1197,o),
(383,1250,o),
(463,1264,o),
(526,1264,q),
(651,1264,l),
(651,1162,l),
(651,1117,o),
(695,1071,o),
(765,1071,q),
(831,1071,o),
(871,1117,o),
(871,1162,q),
(871,1262,l),
(871,1284,o),
(852,1296,o),
(833,1296,q),
(383,1296,l),
(286,1296,o),
(174,1284,o),
(116,1224,o),
(101,1102,o),
(101,993,q),
(101,219,l),
(101,130,o),
(120,30,o),
(158,-20,o),
(217,-32,o),
(259,-32,q),
(294,-32,o),
(345,-22,o),
(391,-10,o),
(440,0,o),
(469,0,q),
(827,0,l),
(850,0,o),
(861,28,o),
(861,56,q),
(861,152,l),
(861,198,o),
(821,244,o),
(755,244,q)
);
}
);
width = 951;
}
);
unicode = 4653;
},
{
glyphname = uni122E;
layers = (
{
layerId = "099ACB0D-E961-4620-9891-F06BAF5780F3";
shapes = (
{
closed = 1;
nodes = (
(955,1124,l),
(955,1180,o),
(939,1246,o),
(903,1277,o),
(846,1284,o),
(806,1284,q),
(387,1284,l),
(290,1284,o),
(177,1275,o),
(120,1229,o),
(106,1128,o),
(106,1039,q),
(106,208,l),
(106,118,o),
(124,18,o),
(162,-32,o),
(221,-44,o),
(263,-44,q),
(297,-44,o),
(349,-34,o),
(396,-22,o),
(444,-12,o),
(473,-12,q),
(863,-12,l),
(886,-12,o),
(897,16,o),
(897,44,q),
(897,139,l),
(897,185,o),
(857,232,o),
(791,232,q),
(721,232,o),
(677,185,o),
(677,139,q),
(677,30,l),
(524,30,l),
(453,30,o),
(374,38,o),
(335,78,o),
(326,160,o),
(326,232,q),
(326,1004,l),
(326,1088,o),
(330,1187,o),
(353,1239,o),
(406,1252,o),
(453,1252,q),
(488,1252,o),
(488,1214,q),
(488,1003,l),
(488,959,o),
(505,909,o),
(555,885,o),
(648,879,o),
(719,879,q),
(787,879,o),
(879,883,o),
(932,907,o),
(955,957,o),
(955,1001,q)
);
},
{
closed = 1;
nodes = (
(787,1008,l),
(787,963,o),
(767,909,o),
(719,909,q),
(673,909,o),
(657,966,o),
(657,1010,q),
(657,1170,l),
(657,1206,o),
(681,1252,o),
(723,1252,q),
(771,1252,o),
(787,1208,o),
(787,1172,q)
);
}
);
width = 1021;
}
);
unicode = 4654;
},
{
glyphname = uni122F;
layers = (
{
layerId = "099ACB0D-E961-4620-9891-F06BAF5780F3";
shapes = (
{
closed = 1;
nodes = (
(288,1388,o),
(248,1342,o),
(248,1296,q),
(248,1184,l),
(545,1184,l),
(545,997,l),
(545,953,o),
(475,905,o),
(372,875,o),
(250,852,o),
(146,819,o),
(76,757,o),
(76,705,q),
(76,156,l),
(76,103,o),
(84,34,o),
(124,-12,o),
(200,-32,o),
(269,-32,q),
(286,-32,o),
(305,-22,o),
(328,-10,o),
(356,0,o),
(379,0,q),
(693,0,l),
(721,0,o),
(743,16,o),
(743,46,q),
(743,61,o),
(727,74,o),
(709,82,o),
(695,92,o),
(695,106,q),
(695,486,l),
(695,517,o),
(709,547,o),
(739,547,q),
(787,547,l),
(787,486,l),
(787,440,o),
(831,393,o),
(901,393,q),
(966,393,o),
(1006,440,o),
(1006,486,q),
(1006,591,l),
(535,591,l),
(513,591,o),
(493,577,o),
(493,555,q),
(493,98,l),
(493,56,o),
(459,40,o),
(435,40,q),
(358,40,l),
(334,40,o),
(309,61,o),
(297,94,o),
(295,136,o),
(295,158,q),
(295,671,l),
(295,725,o),
(366,789,o),
(469,829,o),
(591,859,o),
(695,899,o),
(765,963,o),
(765,1018,q),
(765,1184,l),
(999,1184,l),
(999,1296,l),
(999,1342,o),
(957,1388,o),
(886,1388,q),
(821,1388,o),
(781,1342,o),
(781,1296,q),
(781,1216,l),
(467,1216,l),
(467,1296,l),
(467,1342,o),
(423,1388,o),
(353,1388,q)
);
}
);
width = 1033;
}
);
unicode = 4655;
},
{
glyphname = uni1230;
layers = (
{
layerId = "099ACB0D-E961-4620-9891-F06BAF5780F3";
shapes = (
{
closed = 1;
nodes = (
(438,1296,o),
(393,1250,o),
(393,1204,q),
(393,1006,l),
(303,993,o),
(183,943,o),
(110,846,o),
(78,691,o),
(78,571,q),
(78,59,l),
(78,14,o),
(122,-32,o),
(192,-32,q),
(257,-32,o),
(297,14,o),
(297,59,q),
(297,617,l),
(297,719,o),
(316,859,o),
(358,947,o),
(431,987,o),
(486,987,q),
(541,987,o),
(613,947,o),
(655,859,o),
(671,719,o),
(671,617,q),
(671,59,l),
(671,14,o),
(715,-32,o),
(785,-32,q),
(850,-32,o),
(890,14,o),
(890,59,q),
(890,619,l),
(890,735,o),
(869,883,o),
(808,968,o),
(701,1006,o),
(613,1012,q),
(613,1204,l),
(613,1250,o),
(573,1296,o),
(507,1296,q)
);
}
);
width = 989;
}
);
unicode = 4656;
},
{
glyphname = uni1231;
layers = (
{
layerId = "099ACB0D-E961-4620-9891-F06BAF5780F3";
shapes = (
{
closed = 1;
nodes = (
(957,599,l),
(957,522,l),
(957,475,o),
(1001,429,o),
(1071,429,q),
(1136,429,o),
(1176,475,o),
(1176,522,q),
(1176,599,l),
(1176,621,o),
(1159,629,o),
(1147,629,q),
(888,629,l),
(888,743,o),
(865,885,o),
(805,968,o),
(697,1006,o),
(611,1012,q),
(611,1204,l),
(611,1250,o),
(571,1296,o),
(505,1296,q),
(435,1296,o),
(391,1250,o),
(391,1204,q),
(391,1006,l),
(301,993,o),
(181,943,o),
(108,846,o),
(76,691,o),
(76,571,q),
(76,59,l),
(76,14,o),
(120,-32,o),
(190,-32,q),
(256,-32,o),
(295,14,o),
(295,59,q),
(295,617,l),
(295,719,o),
(314,859,o),
(356,947,o),
(429,987,o),
(484,987,q),
(539,987,o),
(611,947,o),
(653,859,o),
(669,719,o),
(669,617,q),
(669,59,l),
(669,14,o),
(713,-32,o),
(783,-32,q),
(848,-32,o),
(888,14,o),
(888,59,q),
(888,599,l)
);
}
);
width = 1199;
}
);
unicode = 4657;
},
{
glyphname = uni1232;
layers = (
{
layerId = "099ACB0D-E961-4620-9891-F06BAF5780F3";
shapes = (
{
closed = 1;
nodes = (
(888,619,l),
(888,735,o),
(867,883,o),
(806,968,o),
(699,1006,o),
(611,1012,q),
(611,1204,l),
(611,1250,o),
(571,1296,o),
(505,1296,q),
(435,1296,o),
(391,1250,o),
(391,1204,q),
(391,1006,l),
(301,993,o),
(181,943,o),
(108,846,o),
(76,691,o),
(76,571,q),
(76,59,l),
(76,14,o),
(120,-32,o),
(190,-32,q),
(256,-32,o),
(295,14,o),
(295,59,q),
(295,617,l),
(295,719,o),
(314,859,o),
(356,947,o),
(429,987,o),
(484,987,q),
(539,987,o),
(611,947,o),
(653,859,o),
(669,719,o),
(669,617,q),
(669,82,l),
(669,24,o),
(707,-32,o),
(765,-32,q),
(961,-32,l),
(961,-122,l),
(1130,-122,l),
(1176,-122,o),
(1222,-78,o),
(1222,-8,q),
(1222,58,o),
(1176,98,o),
(1130,98,q),
(961,98,l),
(961,0,l),
(945,0,l),
(905,0,o),
(888,44,o),
(888,114,q)
);
}
);
width = 1244;
}
);
unicode = 4658;
},
{
glyphname = uni1233;
layers = (
{
layerId = "099ACB0D-E961-4620-9891-F06BAF5780F3";
shapes = (
{
closed = 1;
nodes = (
(435,1296,o),
(391,1250,o),
(391,1204,q),
(391,1006,l),
(301,993,o),
(181,943,o),
(108,846,o),
(76,691,o),
(76,571,q),
(76,318,l),
(76,272,o),
(120,225,o),
(190,225,q),
(256,225,o),
(295,272,o),
(295,318,q),
(295,617,l),
(295,719,o),
(314,859,o),
(356,947,o),
(429,987,o),
(484,987,q),
(539,987,o),
(611,947,o),
(653,859,o),
(669,719,o),
(669,617,q),
(669,59,l),
(669,14,o),
(713,-32,o),
(783,-32,q),
(848,-32,o),
(888,14,o),
(888,59,q),
(888,619,l),
(888,735,o),
(867,883,o),
(806,968,o),
(699,1006,o),
(611,1012,q),
(611,1204,l),
(611,1250,o),
(571,1296,o),
(505,1296,q)
);
}
);
width = 993;
}
);
unicode = 4659;
},
